<?xml version="1.0" encoding="UTF-8"?>
<svg width="192px" height="105px" viewBox="0 0 192 105" version="1.1" xmlns="http://www.w3.org/2000/svg" xmlns:xlink="http://www.w3.org/1999/xlink">
    <!-- Generator: Sketch 48.2 (47327) - http://www.bohemiancoding.com/sketch -->
    <title>openimage</title>
    <desc>Created with Sketch.</desc>
    <defs></defs>
    <g id="rylan.io" stroke="none" stroke-width="1" fill="none" fill-rule="evenodd" transform="translate(-1041.000000, -2217.000000)">
        <g id="startups" transform="translate(143.000000, 800.000000)">
            <g id="open-image" transform="translate(625.000000, 1152.000000)">
                <g id="openimage" transform="translate(273.137494, 235.334715)">
                    <path d="M13.8463418,43.581041 C13.8463418,39.8720381 15.1734769,36.7167962 17.8277871,34.1152207 C20.4820972,31.5136452 23.7164399,30.212877 27.5309121,30.212877 C31.3629625,30.212877 34.6148831,31.5224342 37.2867715,34.1415879 C39.9235034,36.7607416 41.2418496,39.9775063 41.2418496,43.7919785 C41.2418496,47.6416072 39.9147144,50.8671608 37.2604043,53.4687363 C34.5885159,56.0527336 31.3102284,57.3447129 27.4254433,57.3447129 C23.5758147,57.3447129 20.350261,56.0263667 17.7486855,53.3896348 C15.14711,50.7880593 13.8463418,47.5185607 13.8463418,43.581041 Z M19.9107949,43.6865098 C19.9107949,46.2529289 20.5963349,48.283182 21.9674355,49.7773301 C23.3736925,51.2890564 25.2281662,52.0449082 27.5309121,52.0449082 C29.8512362,52.0449082 31.7057098,51.2978454 33.0943886,49.8036973 C34.4830675,48.3095492 35.1773965,46.314452 35.1773965,43.8183457 C35.1773965,41.3222395 34.4830675,39.3271423 33.0943886,37.8329942 C31.6881316,36.3212678 29.833658,35.565416 27.5309121,35.565416 C25.2633226,35.565416 23.4264269,36.3212678 22.0201699,37.8329942 C20.6139129,39.3447205 19.9107949,41.2958728 19.9107949,43.6865098 Z M53.4498574,70.581041 L47.5172402,70.581041 L47.5172402,30.924791 L53.4498574,30.924791 L53.4498574,33.7197129 C55.7877597,31.3818106 58.44203,30.212877 61.412748,30.212877 C64.9459688,30.212877 67.8551194,31.5136452 70.1402871,34.1152207 C72.4606112,36.699218 73.6207558,39.9599276 73.6207558,43.8974473 C73.6207558,47.7470759 72.4694002,50.9550516 70.1666543,53.5214707 C67.8814866,56.0703116 64.9987029,57.3447129 61.5182168,57.3447129 C58.5123424,57.3447129 55.8229161,56.1406234 53.4498574,53.7324082 L53.4498574,70.581041 Z M67.5563027,43.9238145 C67.5563027,41.4628647 66.8883406,39.4589785 65.5523965,37.9120957 C64.1988741,36.3476348 62.493813,35.565416 60.4371621,35.565416 C58.2574637,35.565416 56.4908798,36.3212678 55.1373574,37.8329942 C53.783835,39.3447205 53.107084,41.3310287 53.107084,43.7919785 C53.107084,46.2001937 53.783835,48.186502 55.1373574,49.7509629 C56.4733016,51.2802674 58.2310965,52.0449082 60.4107949,52.0449082 C62.4674458,52.0449082 64.1637179,51.2714785 65.4996621,49.7245957 C66.8707627,48.177713 67.5563027,46.2441386 67.5563027,43.9238145 Z M103.283842,45.1630723 L84.8795449,45.1630723 C85.0377488,47.2724578 85.7232888,48.951152 86.9361855,50.1992051 C88.1490822,51.42968 89.7047307,52.0449082 91.6031777,52.0449082 C93.0797476,52.0449082 94.3014151,51.6933492 95.2682168,50.9902207 C96.2174403,50.2870922 97.2984841,48.986324 98.5113808,47.087877 L103.521146,49.8827988 C102.747705,51.2011648 101.93033,52.330548 101.068998,53.2709824 C100.207666,54.2114168 99.2848232,54.9848466 98.3004433,55.5912949 C97.3160634,56.1977433 96.2525975,56.6415865 95.1100136,56.9228379 C93.9674298,57.2040893 92.7281844,57.3447129 91.3922402,57.3447129 C87.5601898,57.3447129 84.4840487,56.1142565 82.1637246,53.6533067 C79.8434005,51.1747786 78.6832558,47.8877021 78.6832558,43.7919785 C78.6832558,39.7314114 79.8082446,36.4443349 82.0582558,33.9306504 C84.3258453,31.4521224 87.3316746,30.212877 91.075834,30.212877 C94.8551497,30.212877 97.8434011,31.4169665 100.040678,33.8251817 C102.220376,36.2158186 103.310209,39.529262 103.310209,43.7656113 L103.283842,45.1630723 Z M97.1930215,40.3115098 C96.3668454,37.1474315 94.3717482,35.565416 91.2076699,35.565416 C90.4869632,35.565416 89.8102121,35.6752782 89.1773965,35.8950059 C88.5445808,36.1147335 87.968903,36.4311366 87.4503457,36.8442246 C86.9317884,37.2573126 86.4879452,37.7538897 86.1188027,38.3339707 C85.7496602,38.9140517 85.468413,39.5732248 85.2750527,40.3115098 L97.1930215,40.3115098 Z M109.77017,30.924791 L115.729154,30.924791 L115.729154,33.2978379 C117.803383,31.241187 120.141251,30.212877 122.742826,30.212877 C125.731122,30.212877 128.060201,31.1532973 129.730131,33.034166 C131.171544,34.6337834 131.89224,37.2441089 131.89224,40.8652207 L131.89224,56.6064317 L125.933256,56.6064317 L125.933256,42.2626817 C125.933256,39.731419 125.581697,37.9824131 124.878568,37.0156113 C124.193018,36.0312314 122.944984,35.5390488 121.134428,35.5390488 C119.165668,35.5390488 117.768221,36.189433 116.942045,37.4902207 C116.133447,38.7734303 115.729154,41.0146188 115.729154,44.2138535 L115.729154,56.6064317 L109.77017,56.6064317 L109.77017,30.924791 Z" id="open" fill="#000000" opacity="0.350000024"></path>
                    <path d="M26.8125,84.1489396 L26.8125,114.58644 L19.78125,114.58644 L19.78125,84.1489396 L26.8125,84.1489396 Z M18.71875,71.4926896 C18.71875,70.2635168 19.1666622,69.2010274 20.0625,68.3051896 C20.9583378,67.4093518 22.0312438,66.9614396 23.28125,66.9614396 C24.5520897,66.9614396 25.6354122,67.4093518 26.53125,68.3051896 C27.4270878,69.180194 27.875,70.2530999 27.875,71.5239396 C27.875,72.7947793 27.4270878,73.8781018 26.53125,74.7739396 C25.6562456,75.6697774 24.5833397,76.1176896 23.3125,76.1176896 C22.0416603,76.1176896 20.9583378,75.6697774 20.0625,74.7739396 C19.1666622,73.8781018 18.71875,72.7843627 18.71875,71.4926896 Z M35.71875,84.1489396 L42.75,84.1489396 L42.75,86.9614396 C44.1041734,85.5447658 45.2604119,84.5864421 46.21875,84.0864396 C47.2395884,83.5656037 48.5208256,83.3051896 50.0625,83.3051896 C53.5000172,83.3051896 56.21874,84.8051746 58.21875,87.8051896 C60.4270944,84.8051746 63.4166478,83.3051896 67.1875,83.3051896 C74.0417009,83.3051896 77.46875,87.461398 77.46875,95.7739396 L77.46875,114.58644 L70.40625,114.58644 L70.40625,97.6801896 C70.40625,94.7635083 70.0520869,92.701029 69.34375,91.4926896 C68.6145797,90.2635168 67.416675,89.6489396 65.75,89.6489396 C63.8124903,89.6489396 62.4010461,90.378099 61.515625,91.8364396 C60.6302039,93.2947802 60.1875,95.6385068 60.1875,98.8676896 L60.1875,114.58644 L53.125,114.58644 L53.125,97.7739396 C53.125,92.3572458 51.5625156,89.6489396 48.4375,89.6489396 C46.4583234,89.6489396 45.0156295,90.3885155 44.109375,91.8676896 C43.2031205,93.3468637 42.75,95.6801737 42.75,98.8676896 L42.75,114.58644 L35.71875,114.58644 L35.71875,84.1489396 Z M108.78125,84.1489396 L115.84375,84.1489396 L115.84375,114.58644 L108.78125,114.58644 L108.78125,111.39894 C105.885402,114.107286 102.77085,115.46144 99.4375,115.46144 C95.2291456,115.46144 91.7500138,113.940621 89,110.89894 C86.2708197,107.794757 84.90625,103.919796 84.90625,99.2739396 C84.90625,94.7114168 86.2708197,90.9093715 89,87.8676896 C91.7291803,84.8260077 95.1458128,83.3051896 99.25,83.3051896 C102.791684,83.3051896 105.968736,84.7635083 108.78125,87.6801896 L108.78125,84.1489396 Z M92.09375,99.2739396 C92.09375,102.190621 92.8749922,104.565597 94.4375,106.39894 C96.0416747,108.253116 98.0624878,109.18019 100.5,109.18019 C103.10418,109.18019 105.208325,108.284365 106.8125,106.49269 C108.416675,104.638514 109.21875,102.284371 109.21875,99.4301896 C109.21875,96.5760087 108.416675,94.2218655 106.8125,92.3676896 C105.208325,90.5551805 103.125013,89.6489396 100.5625,89.6489396 C98.1458212,89.6489396 96.1250081,90.5655971 94.5,92.3989396 C92.8958253,94.2531155 92.09375,96.5447593 92.09375,99.2739396 Z M154.15625,113.86769 C154.15625,115.305197 154.109375,116.570809 154.015625,117.664565 C153.921875,118.75832 153.791667,119.721852 153.625,120.55519 C153.124998,122.846868 152.145841,124.815598 150.6875,126.46144 C147.937486,129.628122 144.156274,131.21144 139.34375,131.21144 C135.28123,131.21144 131.937513,130.117701 129.3125,127.93019 C126.604153,125.680178 125.041669,122.565626 124.625,118.58644 L131.6875,118.58644 C131.958335,120.086447 132.406247,121.242686 133.03125,122.05519 C134.489591,123.951032 136.614569,124.89894 139.40625,124.89894 C144.552109,124.89894 147.125,121.742721 147.125,115.43019 L147.125,111.18019 C144.333319,114.034371 141.114602,115.46144 137.46875,115.46144 C133.322896,115.46144 129.927097,113.961455 127.28125,110.96144 C124.61457,107.919758 123.28125,104.117712 123.28125,99.5551896 C123.28125,95.1176674 124.520821,91.3468718 127,88.2426896 C129.66668,84.9510065 133.187478,83.3051896 137.5625,83.3051896 C141.395852,83.3051896 144.583321,84.7322587 147.125,87.5864396 L147.125,84.1489396 L154.15625,84.1489396 L154.15625,113.86769 Z M147.40625,99.4301896 C147.40625,96.4718415 146.614591,94.1072818 145.03125,92.3364396 C143.427075,90.5239305 141.375012,89.6176896 138.875,89.6176896 C136.20832,89.6176896 134.104174,90.607263 132.5625,92.5864396 C131.16666,94.3572818 130.46875,96.6489255 130.46875,99.4614396 C130.46875,102.232287 131.16666,104.503097 132.5625,106.27394 C134.083341,108.211449 136.187487,109.18019 138.875,109.18019 C141.562513,109.18019 143.687492,108.201033 145.25,106.24269 C146.687507,104.471847 147.40625,102.201037 147.40625,99.4301896 Z M190.75,101.02394 L168.9375,101.02394 C169.125001,103.523952 169.937493,105.513516 171.375,106.99269 C172.812507,108.45103 174.656239,109.18019 176.90625,109.18019 C178.656259,109.18019 180.104161,108.763527 181.25,107.93019 C182.375006,107.096852 183.656243,105.555201 185.09375,103.30519 L191.03125,106.61769 C190.114579,108.180197 189.145838,109.518726 188.125,110.633315 C187.104162,111.747903 186.010423,112.664561 184.84375,113.383315 C183.677077,114.102068 182.416673,114.628105 181.0625,114.96144 C179.708327,115.294775 178.239591,115.46144 176.65625,115.46144 C172.114561,115.46144 168.468764,114.003121 165.71875,111.08644 C162.968736,108.148925 161.59375,104.253131 161.59375,99.3989396 C161.59375,94.5864155 162.92707,90.6906212 165.59375,87.7114396 C168.281263,84.7739249 171.843728,83.3051896 176.28125,83.3051896 C180.760439,83.3051896 184.30207,84.7322587 186.90625,87.5864396 C189.489596,90.4197871 190.78125,94.3468312 190.78125,99.3676896 L190.75,101.02394 Z M183.53125,95.2739396 C182.552078,91.5239208 180.187519,89.6489396 176.4375,89.6489396 C175.583329,89.6489396 174.781254,89.7791466 174.03125,90.0395646 C173.281246,90.2999826 172.598961,90.6749788 171.984375,91.1645646 C171.369789,91.6541504 170.843752,92.2426862 170.40625,92.9301896 C169.968748,93.617693 169.635418,94.3989352 169.40625,95.2739396 L183.53125,95.2739396 Z" id="image" fill="#FFFFFF"></path>
                    <path d="M182.826287,30.581041 L190.826287,30.581041 L190.826287,46.581041 L182.826287,46.581041 L182.826287,38.581041 L174.826287,38.581041 L174.826287,30.581041 L182.826287,30.581041 Z" id="Combined-Shape" fill="#FFFFFF"></path>
                    <path d="M8.63638083,125.786721 L16.6363808,125.786721 L16.6363808,133.786721 L8.63638083,133.786721 L0.636380827,133.786721 L0.636380827,117.786721 L8.63638083,117.786721 L8.63638083,125.786721 Z" id="Combined-Shape-Copy" fill="#FFFFFF"></path>
                </g>
            </g>
        </g>
    </g>
</svg>