<?xml version="1.0" encoding="UTF-8"?>
<svg width="37px" height="12px" viewBox="0 0 37 12" version="1.1" xmlns="http://www.w3.org/2000/svg" xmlns:xlink="http://www.w3.org/1999/xlink">
    <!-- Generator: Sketch 48.2 (47327) - http://www.bohemiancoding.com/sketch -->
    <title>purch</title>
    <desc>Created with Sketch.</desc>
    <defs></defs>
    <g id="rylan.io" stroke="none" stroke-width="1" fill="none" fill-rule="evenodd" transform="translate(-603.000000, -1258.000000)">
        <g id="startups" transform="translate(143.000000, 800.000000)" fill="#EB3F2E">
            <g id="shopsavvy" transform="translate(17.037803, 0.000000)">
                <g id="Group-2" transform="translate(32.171050, 414.627279)">
                    <g id="Group-4" transform="translate(243.565866, 0.000000)">
                        <path d="M171.157014,43.8145805 C173.517147,43.8145805 175.092563,45.3656731 175.092563,47.4391132 C175.092563,49.512952 173.517147,51.0632472 171.157014,51.0632472 L169.792531,51.0632472 L169.792531,54.4098592 L167.737035,54.4098592 L167.73544,48.9614967 L171.005494,48.9638891 C172.387521,48.9638891 173.011148,48.3330849 173.011148,47.3884734 C173.011148,46.4442607 172.385926,45.9155335 171.003899,45.9155335 L167.737035,45.9155335 L167.737035,43.8145805 L171.157014,43.8145805 Z M192.328831,52.8404246 C193.050947,52.8404246 193.690922,52.5190414 194.249156,51.7901474 L195.725684,52.8240763 C194.708104,54.0617605 193.526642,54.5530063 192.328831,54.5530063 C190.064395,54.5530063 188.259306,53.0003187 188.259306,50.6708885 C188.259306,48.4842068 189.965907,46.7887708 192.230343,46.7887708 C193.428552,46.7887708 194.609216,47.280814 195.627196,48.5184983 L194.117971,49.6202127 C193.576085,48.8227357 192.952059,48.50215 192.230343,48.50215 C191.065628,48.50215 190.129788,49.4678946 190.129788,50.6708885 C190.129788,51.9863268 191.164116,52.8404246 192.328831,52.8404246 Z M200.212688,46.8334295 C202.252236,46.8334295 203.355545,48.2162545 203.355545,50.0711859 L203.355545,54.4106567 L201.296858,54.4106567 L201.296858,50.5803749 C201.296858,49.4009065 200.887354,48.726241 199.942742,48.726241 C199.015277,48.726241 198.345795,49.3012219 198.345795,50.680857 L198.345795,54.4106567 L196.287108,54.4106567 L196.287108,43.8097956 L198.345795,43.8097956 L198.345795,47.5982099 C198.668773,47.1775408 199.369356,46.8334295 200.212688,46.8334295 Z M180.706003,51.0632472 L180.706003,46.9008163 L182.759507,46.9008163 L182.759108,54.416239 L180.706003,54.416239 L180.706003,53.986399 C180.351525,54.3779601 179.823595,54.5757344 179.1266,54.5757344 C177.036014,54.5757344 175.692665,53.5362232 175.692665,51.3499402 L175.692665,46.9008163 L177.754142,46.9008163 L177.754142,51.0632472 C177.754142,52.368717 178.288452,52.9185773 179.215519,52.9185773 C180.115472,52.9185773 180.706003,52.3850652 180.706003,51.0632472 Z M185.706184,47.3242765 C185.757621,47.2449276 186.284753,46.8270497 187.251295,46.8270497 C187.867745,46.8270497 188.011291,46.9351078 188.34344,47.0152542 L188.110577,48.6740063 C188.074292,48.6600504 188.038006,48.6452971 188.001322,48.6341324 C187.788795,48.5667456 187.596603,48.5348465 187.365335,48.5348465 C186.850563,48.5348465 186.254449,48.5998409 185.908743,49.0946754 C185.67907,49.4240333 185.711367,50.0089827 185.711367,50.4739117 L185.711367,54.4098592 L183.653079,54.4098592 L183.653079,46.9008163 L185.706184,46.9008163 L185.706184,47.3242765 Z" id="purch"></path>
                    </g>
                </g>
            </g>
        </g>
    </g>
</svg>