<?xml version="1.0" encoding="UTF-8"?>
<svg width="347px" height="97px" viewBox="0 0 347 97" version="1.1" xmlns="http://www.w3.org/2000/svg" xmlns:xlink="http://www.w3.org/1999/xlink">
    <!-- Generator: Sketch 48.2 (47327) - http://www.bohemiancoding.com/sketch -->
    <title>shopsavvy</title>
    <desc>Created with Sketch.</desc>
    <defs>
        <path d="M224.53263,209.895102 C233.825995,209.895102 240.148546,202.918227 240.148546,193.964109 C240.148546,185.196411 234.305678,178.126327 225.586724,178.126327 C218.113335,178.126327 213.9937,182.933588 213.707502,183.403604 L213.707502,205.462664 C213.898972,205.841454 218.018608,209.895102 224.53263,209.895102 Z M213.610759,225.607943 C213.610759,226.268346 213.036348,226.833556 212.365194,226.833556 L210.736689,226.833556 C210.065535,226.833556 209.491124,226.268346 209.491124,225.607943 L209.491124,176.428713 C209.491124,175.6751 210.160262,175.2031 210.833432,175.2031 L211.885511,175.2031 C212.556665,175.2031 212.939605,175.484713 213.036348,176.145117 L213.322546,178.784747 C214.473383,177.84273 218.879216,174.261083 225.874937,174.261083 C236.508595,174.261083 244.364924,183.026798 244.364924,194.057319 C244.364924,205.181051 236.317124,213.855539 225.012313,213.855539 C218.689761,213.855539 214.664854,210.932312 213.610759,209.990295 L213.610759,225.607943 Z M183.418307,209.989502 C191.849048,209.989502 198.459813,202.919417 198.459813,193.963316 C198.459813,185.288828 191.849048,178.218744 183.418307,178.218744 C174.890824,178.218744 168.280059,185.288828 168.280059,193.963316 C168.280059,202.919417 174.890824,209.989502 183.418307,209.989502 M183.418307,174.26029 C194.148708,174.26029 202.676191,183.216391 202.676191,193.963316 C202.676191,204.993837 194.148708,213.854745 183.418307,213.854745 C172.59318,213.854745 164.160424,204.993837 164.160424,193.963316 C164.160424,183.216391 172.59318,174.26029 183.418307,174.26029 Z M123.908524,159.973563 C123.908524,159.313159 124.482935,158.747949 125.248816,158.747949 L126.782595,158.747949 C127.453748,158.747949 128.028159,159.313159 128.028159,159.973563 L128.028159,180.293362 C129.273724,179.067749 134.350711,174.260488 141.920843,174.260488 C151.883346,174.260488 157.345289,180.293362 157.345289,191.512287 L157.345289,211.68533 C157.345289,212.345734 156.770878,212.910944 156.099725,212.910944 L154.374476,212.910944 C153.703322,212.910944 153.130927,212.345734 153.130927,211.68533 L153.130927,191.512287 C153.130927,182.837799 149.009276,178.314135 141.729373,178.314135 C133.7763,178.314135 128.4111,184.442203 128.028159,184.914203 L128.028159,211.68533 C128.028159,212.440927 127.645219,212.910944 126.782595,212.910944 L124.962619,212.910944 C124.291465,212.910944 123.908524,212.345734 123.908524,211.68533 L123.908524,159.973563 Z M90.5539904,208.29288 L91.5113421,206.783669 C91.7995553,206.313653 92.5654366,206.125249 93.2365905,206.688476 C94.1939421,207.444073 98.122107,210.3673 103.489323,210.3673 C108.94925,210.3673 112.685945,207.350863 112.685945,203.672039 C112.685945,199.336778 108.374839,197.545955 101.955544,195.189921 C95.1533092,192.831904 90.1710498,189.908677 90.1710498,184.064206 C90.1710498,179.917349 93.9077443,174.259298 102.721426,174.259298 C107.800428,174.259298 111.63185,176.052105 113.548569,177.275735 C114.12298,177.652542 114.31445,178.408139 113.931509,179.068542 L113.355083,180.105752 C112.972142,180.764172 112.206261,180.952576 111.535107,180.575769 C110.674498,180.010559 106.841061,177.936139 102.721426,177.936139 C96.6850718,177.936139 94.4821553,181.424576 94.4821553,183.970996 C94.4821553,187.741047 97.9306367,189.53187 103.58405,191.51308 C110.769226,194.150728 117.091778,196.508745 117.091778,203.390426 C117.091778,209.046493 111.152166,213.853754 103.489323,213.853754 C96.973285,213.853754 93.0451201,211.216107 90.9369311,209.611703 C90.5539904,209.33009 90.2677927,208.76488 90.5539904,208.29288 Z M307.374183,202.856581 C307.03338,203.568187 306.199415,204.353544 304.872288,205.214647 C303.543157,206.079736 302.183954,206.512281 300.792676,206.512281 C299.341256,206.512281 298.158469,206.049837 297.248325,205.122955 C296.336176,204.198068 295.881103,203.026011 295.881103,201.606787 C295.881103,200.065971 296.444431,198.826143 297.571085,197.883315 C298.699745,196.942481 300.191259,196.472064 302.045628,196.472064 C303.867922,196.472064 305.644107,196.858762 307.374183,197.630167 L307.374183,202.856581 Z M322.046754,203.107736 L318.726932,203.107736 L318.726932,191.289502 C318.726932,188.54673 318.518441,186.218564 318.097449,184.305003 C317.680466,182.393435 316.934709,180.689169 315.866192,179.192206 C314.795669,177.697236 313.284108,176.586972 311.327498,175.861413 C309.374897,175.137848 306.939158,174.775069 304.02429,174.775069 C302.191973,174.775069 300.247391,174.980378 298.184531,175.394983 C296.12167,175.805601 294.515887,176.196287 293.369185,176.563052 C292.220478,176.929818 291.460688,177.228812 291.08781,177.458041 C290.157618,177.767001 289.692522,178.35303 289.692522,179.216126 C289.692522,179.401502 289.706555,179.602824 289.736626,179.8181 L290.57861,184.767447 C290.726959,185.971396 291.214107,186.571377 292.042058,186.571377 C292.248545,186.571377 292.457036,186.541478 292.663522,186.479685 C293.786167,186.140826 295.359875,185.815919 297.384646,185.506958 C299.409417,185.199991 301.219682,185.044514 302.817447,185.044514 C304.52948,185.044514 305.756371,185.471079 306.496114,186.318229 C307.205786,187.139465 307.560622,188.504871 307.560622,190.412453 L307.560622,190.68952 L306.680549,190.412453 C306.063094,190.256976 305.172997,190.095519 304.014267,189.926089 C302.855536,189.756659 301.720863,189.670948 300.608241,189.670948 C295.640537,189.670948 291.719298,190.799152 288.842519,193.049579 C285.965741,195.300007 284.528355,198.15241 284.528355,201.606787 C284.528355,205.585399 285.789326,208.740782 288.315277,211.068949 C290.841229,213.399108 294.151027,214.561198 298.244672,214.561198 C302.524757,214.561198 306.460029,212.956597 310.048484,209.749389 L311.259337,212.292831 C311.696367,213.189813 312.285755,213.63631 313.025498,213.63631 L316.758294,213.63631 C316.770322,213.63631 316.780345,213.634317 316.790369,213.634317 L322.046754,213.634317 C322.812558,213.634317 323.434023,213.016396 323.434023,212.252965 L323.434023,204.487095 C323.434023,203.725657 322.812558,203.107736 322.046754,203.107736 Z M412.486974,212.427689 L400.924402,176.682451 C400.61768,175.73763 401.327352,174.770883 402.325704,174.770883 L410.883868,174.770883 C411.523375,174.770883 412.090712,175.179508 412.287175,175.785469 L418.847196,195.89456 L425.17033,175.816564 C425.366793,175.192663 425.948162,174.768092 426.605712,174.768092 L435.10173,174.768092 C436.11612,174.768092 436.839825,175.746799 436.537112,176.711553 C434.530383,183.084111 432.521651,189.458662 430.514922,195.833213 C428.379892,202.612403 426.501466,209.443418 423.356055,215.853849 C419.813709,223.075549 415.100604,229.751088 409.300939,235.360215 C400.331806,244.029046 388.981062,250.052778 376.826424,252.91116 C364.85622,255.72569 352.190377,255.504434 340.332438,252.253373 C327.965299,248.866768 316.592503,242.149371 307.881979,232.752987 C307.208392,232.023442 307.22844,230.895238 307.906036,230.171673 L313.140369,224.590452 C313.89214,223.791142 315.179173,223.767222 315.928939,224.572513 C342.39152,252.98156 392.87496,248.936339 412.486974,212.427689 Z M385.918045,175.785668 C386.114508,175.179707 386.67984,174.769089 387.319347,174.769089 L395.879516,174.769089 C396.877868,174.769089 397.58754,175.735836 397.280818,176.68265 L385.649412,212.633684 C385.454954,213.239645 384.889622,213.650263 384.250115,213.650263 L374.68558,213.650263 C374.046073,213.650263 373.478736,213.239645 373.284278,212.633684 L361.652872,176.68265 C361.34615,175.735836 362.055822,174.769089 363.056179,174.769089 L371.614343,174.769089 C372.25385,174.769089 372.819182,175.179707 373.015645,175.785668 L379.466845,195.726572 L385.918045,175.785668 Z M346.647718,175.785668 C346.842176,175.179707 347.409513,174.769089 348.049019,174.769089 L356.609189,174.769089 C357.607541,174.769089 358.317213,175.735836 358.01049,176.68265 L346.379085,212.633684 C346.184627,213.239645 345.619295,213.650263 344.979788,213.650263 L335.415252,213.650263 C334.775746,213.650263 334.208409,213.239645 334.011946,212.633684 L322.382545,176.68265 C322.077827,175.735836 322.785495,174.769089 323.785852,174.769089 L332.344016,174.769089 C332.983523,174.769089 333.548855,175.179707 333.745318,175.785668 L340.196518,195.726572 L346.647718,175.785668 Z M250.372478,185.963423 C250.372478,182.818006 251.607387,180.164933 254.079212,178.006197 C256.551036,175.84746 260.175576,174.769089 264.958846,174.769089 C269.8203,174.769089 273.721492,175.755769 276.662421,177.729129 C277.097446,178.006197 277.398155,178.384922 277.568556,178.863313 C277.738958,179.33971 277.714901,179.810127 277.498391,180.272571 L275.124798,185.130226 C274.908288,185.532871 274.567485,185.778046 274.102389,185.871731 C273.635289,185.963423 273.218306,185.933523 272.845428,185.778046 C270.000725,184.452506 267.370528,183.78874 264.958846,183.78874 C262.803768,183.78874 261.725227,184.514299 261.725227,185.963423 C261.725227,186.828512 262.326644,187.581977 263.527473,188.229797 C263.956484,188.415173 265.097172,188.895557 266.945527,189.664968 C268.553315,190.282889 269.944593,190.866924 271.12337,191.423052 C272.304152,191.977188 273.466892,192.648928 274.613594,193.434285 C275.7623,194.221636 276.692492,195.054832 277.406174,195.933874 C278.11785,196.812917 278.693206,197.853416 279.128231,199.055371 C279.561251,200.25932 279.779766,201.58486 279.779766,203.033984 C279.779766,206.273086 278.414549,209.001904 275.69013,211.224426 C272.965711,213.444954 269.281029,214.555218 264.636085,214.555218 C261.683128,214.555218 259.09102,214.208385 256.855753,213.514719 C254.620487,212.821053 252.898429,212.009783 251.689581,211.084895 C250.943824,210.466974 250.759389,209.805201 251.130263,209.095589 L253.690295,203.960866 C253.87473,203.496428 254.185462,203.219361 254.620487,203.127669 C255.053507,203.033984 255.472494,203.09777 255.877448,203.313045 C258.856467,204.823962 261.853529,205.57942 264.866628,205.57942 C266.991635,205.57942 268.054139,204.794062 268.054139,203.219361 C268.054139,202.356265 267.623123,201.592833 266.761092,200.929067 C265.899061,200.2653 264.219103,199.44207 261.725227,198.45539 C257.82604,197.036166 254.959285,195.317947 253.124963,193.296748 C251.288636,191.277542 250.372478,188.831771 250.372478,185.963423 Z" id="path-1"></path>
    </defs>
    <g id="rylan.io" stroke="none" stroke-width="1" fill="none" fill-rule="evenodd" transform="translate(-250.000000, -958.000000)">
        <g id="startups" transform="translate(143.000000, 800.000000)">
            <g id="shopsavvy" transform="translate(17.037803, 0.000000)">
                <mask id="mask-2" fill="white">
                    <use xlink:href="#path-1"></use>
                </mask>
                <use fill="#FFFFFF" xlink:href="#path-1"></use>
            </g>
        </g>
    </g>
</svg>