<?xml version="1.0" encoding="UTF-8"?>
<svg width="257px" height="41px" viewBox="0 0 257 41" version="1.1" xmlns="http://www.w3.org/2000/svg" xmlns:xlink="http://www.w3.org/1999/xlink">
    <!-- Generator: Sketch 48.2 (47327) - http://www.bohemiancoding.com/sketch -->
    <title>spectrum</title>
    <desc>Created with Sketch.</desc>
    <defs></defs>
    <g id="rylan.io" stroke="none" stroke-width="1" fill="none" fill-rule="evenodd" transform="translate(-287.000000, -2476.000000)">
        <g id="startups" transform="translate(143.000000, 800.000000)" fill="#FFFFFF">
            <g id="spectrum" transform="translate(17.037803, 1568.000000)">
                <path d="M174.565247,132.948941 L180.680676,131.858594 C180.775489,133.470412 181.913244,135.034825 184.378378,135.034825 C186.227229,135.034825 187.127951,134.039289 187.127951,132.996348 C187.127951,132.143032 186.559074,131.431936 184.805036,131.052684 L182.102869,130.436401 C177.077788,129.346053 175.086717,126.501667 175.086717,123.183217 C175.086717,118.869231 178.879232,115.361155 184.141346,115.361155 C190.967872,115.361155 193.338194,119.627734 193.575226,122.377307 L187.602015,123.467655 C187.41239,121.903243 186.416855,120.575863 184.236159,120.575863 C182.861372,120.575863 181.676211,121.381772 181.676211,122.614339 C181.676211,123.609874 182.482121,124.178752 183.525062,124.368377 L186.653887,124.984661 C191.536749,125.980196 193.907071,128.919395 193.907071,132.380064 C193.907071,136.409611 190.825653,140.344345 184.520597,140.344345 C177.125194,140.344345 174.754872,135.556295 174.565247,132.948941 Z M205.797526,148.64047 L198.591748,148.64047 L198.591748,116.072252 L205.560494,116.072252 L205.560494,118.48998 C206.556029,116.972974 209.115976,115.503375 212.481833,115.503375 C219.308359,115.503375 223.432719,120.718082 223.432719,127.78164 C223.432719,134.987418 218.786888,140.154719 212.197394,140.154719 C209.163383,140.154719 206.887874,139.111778 205.797526,137.784398 L205.797526,148.64047 Z M216.36916,127.829047 C216.36916,123.894313 213.856619,121.998056 211.012233,121.998056 C208.215254,121.998056 205.702713,123.894313 205.702713,127.829047 C205.702713,131.716374 208.215254,133.707444 211.012233,133.707444 C213.856619,133.707444 216.36916,131.763781 216.36916,127.829047 Z M243.488931,131.147497 L249.509548,132.854129 C248.371794,136.931082 244.626686,140.344345 238.653475,140.344345 C232.158794,140.344345 226.375209,135.698515 226.375209,127.78164 C226.375209,120.196611 232.016575,115.361155 238.132005,115.361155 C245.432595,115.361155 249.936206,119.864766 249.936206,127.449795 C249.936206,128.44533 249.841393,129.535678 249.793987,129.677898 L233.391361,129.677898 C233.533581,132.332658 235.951309,134.228915 238.748288,134.228915 C241.355642,134.228915 242.825241,132.996348 243.488931,131.147497 Z M233.533581,125.032067 L242.967461,125.032067 C242.872648,123.230623 241.640081,121.049927 238.226817,121.049927 C235.192806,121.049927 233.6758,123.278029 233.533581,125.032067 Z M265.419015,121.998056 C262.43241,121.998056 260.014682,124.083939 260.014682,127.876453 C260.014682,131.621561 262.527223,133.707444 265.513828,133.707444 C268.310807,133.707444 269.87522,131.953406 270.39669,130.199368 L276.749152,132.143032 C275.706211,136.267392 271.818883,140.344345 265.513828,140.344345 C258.497676,140.344345 252.856311,135.177044 252.856311,127.876453 C252.856311,120.528456 258.355457,115.361155 265.276796,115.361155 C271.771477,115.361155 275.563992,119.343296 276.606933,123.562468 L270.159658,125.506132 C269.638188,123.704687 268.215995,121.998056 265.419015,121.998056 Z M289.764193,109.198319 L289.764193,116.072252 L294.362617,116.072252 L294.362617,122.377307 L289.764193,122.377307 L289.764193,131.194904 C289.764193,133.138567 290.807135,133.660038 292.371547,133.660038 C293.13005,133.660038 293.841146,133.517819 294.267804,133.423006 L294.267804,139.396216 C293.983366,139.538436 292.798205,140.059906 290.522696,140.059906 C285.639834,140.059906 282.653228,137.168114 282.653228,132.474877 L282.653228,122.377307 L278.481462,122.377307 L278.481462,116.072252 L279.666623,116.072252 C282.131758,116.072252 283.316918,114.413027 283.316918,112.232331 L283.316918,109.198319 L289.764193,109.198319 Z M314.171921,116.072252 L314.171921,123.183217 C313.366012,122.993591 312.607509,122.946184 311.896413,122.946184 C309.00462,122.946184 306.397267,124.652816 306.397267,129.346053 L306.397267,139.633248 L299.191489,139.633248 L299.191489,116.072252 L306.160234,116.072252 L306.160234,119.248483 C307.392802,116.593722 310.379407,115.83522 312.275664,115.83522 C312.986761,115.83522 313.697857,115.930032 314.171921,116.072252 Z M333.574979,139.633248 C333.480166,139.206591 333.386012,137.87921 333.386012,137.262927 C332.153444,139.301403 329.451278,140.154719 327.080298,140.154719 C321.34412,140.154719 318.120482,135.982953 318.120482,130.957871 L318.120482,116.072252 L325.32626,116.072252 L325.32626,129.440866 C325.32626,131.716374 326.559485,133.517819 329.119433,133.517819 C331.537161,133.517819 333.054167,131.858594 333.054167,129.488272 L333.054167,116.072252 L340.259944,116.072252 L340.259944,135.414076 C340.259944,137.547365 340.448912,139.253997 340.496976,139.633248 L333.574979,139.633248 Z M353.803699,139.633248 L346.597921,139.633248 L346.597921,116.072252 L353.471854,116.072252 L353.471854,118.774418 C354.657014,116.688535 357.691026,115.361155 360.250973,115.361155 C363.61683,115.361155 366.034558,116.735942 367.219719,119.058857 C369.06857,116.404097 371.344078,115.361155 374.520309,115.361155 C378.976514,115.361155 383.243093,117.968509 383.243093,124.368377 L383.243093,139.633248 L376.274347,139.633248 L376.274347,125.980196 C376.274347,123.752094 375.089186,121.998056 372.529239,121.998056 C369.969292,121.998056 368.594505,123.941719 368.594505,126.027602 L368.594505,139.633248 L361.483541,139.633248 L361.483541,125.980196 C361.483541,123.752094 360.29838,121.998056 357.691026,121.998056 C355.178485,121.998056 353.803699,123.941719 353.803699,126.075009 L353.803699,139.633248 Z M127.243093,110.135913 C127.243093,108.97248 128.186612,108.02896 129.350045,108.02896 L131.193629,108.02896 C146.466401,108.02896 158.847381,120.40994 158.847381,135.682712 L158.847381,137.526296 C158.847381,138.690387 157.903861,139.633248 156.740428,139.633248 L145.152189,139.633248 C143.988756,139.633248 143.045237,138.690387 143.045237,137.526296 L143.045237,135.682712 C143.045237,129.137333 137.739009,123.831104 131.193629,123.831104 L129.350045,123.831104 C128.186612,123.831104 127.243093,122.888243 127.243093,121.724152 L127.243093,110.135913 Z"></path>
            </g>
        </g>
    </g>
</svg>