<?xml version="1.0" encoding="UTF-8"?>
<svg width="289px" height="62px" viewBox="0 0 289 62" version="1.1" xmlns="http://www.w3.org/2000/svg" xmlns:xlink="http://www.w3.org/1999/xlink">
    <!-- Generator: Sketch 48.2 (47327) - http://www.bohemiancoding.com/sketch -->
    <title>veryable</title>
    <desc>Created with Sketch.</desc>
    <defs></defs>
    <g id="rylan.io" stroke="none" stroke-width="1" fill="none" fill-rule="evenodd" transform="translate(-271.000000, -1986.000000)" stroke-linecap="round" stroke-linejoin="round">
        <g id="startups" transform="translate(143.000000, 800.000000)" stroke="#FFFFFF" stroke-width="4">
            <g id="veryable" transform="translate(0.037803, 1045.000000)">
                <g transform="translate(129.743093, 143.202161)">
                    <polyline id="Line-2" points="0.457044195 18.0342884 38.4621967 56.5 53.7815576 41.2556056"></polyline>
                    <path d="M83.4514163,11.5107804 L94.4735434,0.488653336" id="Line-5"></path>
                    <polyline id="Line-3" points="83.4621967 18.5 60.4621967 18.5 60.4621967 34.8248373 60.4621967 56.9804684 83.4621967 56.9804684"></polyline>
                    <polyline id="Line-3-Copy" points="284.77308 18.5 261.77308 18.5 261.77308 34.8248373 261.77308 56.9804684 284.77308 56.9804684"></polyline>
                    <polyline id="Line-3-Copy-2" points="232.708682 18.5 232.708682 34.8248373 232.708682 56.9804684 255.708682 56.9804684"></polyline>
                    <path d="M213.462197,18.5 C211.492736,18.5 205.826069,18.5 196.462197,18.5 L196.462197,57.1806209 C206.727633,57.1806209 212.3943,57.1806209 213.462197,57.1806209 C215.064042,57.1806209 222.124982,53.520582 222.124982,46.7232419 C222.124982,42.1916819 219.237387,38.8209844 213.462197,36.6111496 C218.40258,34.0810868 220.872772,31.0226043 220.872772,27.435702 C220.872772,22.0553486 216.416388,18.5 213.462197,18.5 Z" id="Line-13"></path>
                    <path d="M196.462197,36.5 L213.462197,36.5" id="Line-14"></path>
                    <path d="M77.4621967,34.5 L60.4621967,34.5" id="Line-4"></path>
                    <path d="M278.77308,34.5 L261.77308,34.5" id="Line-4-Copy"></path>
                    <path d="M93.4621967,56.5 L93.4621967,18.5" id="Line-6"></path>
                    <polyline id="Line-8" points="121.462197 56.5 108.952201 43.990004 93.8170335 43.990004"></polyline>
                    <path d="M93.4621967,18.5 C102.388807,18.5 107.824597,18.5 109.769566,18.5 C112.68702,18.5 119.427541,23.7149101 119.427541,30.9672419 C119.427541,35.8021297 118.318985,39.1052706 116.101872,40.8766643" id="Line-7"></path>
                    <polyline id="Line-9" points="126.443443 18.5494295 139.462197 36.5 152.501636 18.5494295"></polyline>
                    <path d="M139.462197,36.5 L139.462197,57.0242616" id="Line-10"></path>
                    <polyline id="Line-11" points="154.462197 56.5 169.462197 19.5 184.95028 56.5"></polyline>
                    <path d="M159.462197,45.5 L179.462197,45.5" id="Line-12"></path>
                </g>
            </g>
        </g>
    </g>
</svg>