<?xml version="1.0" encoding="UTF-8"?>
<svg width="325px" height="155px" viewBox="0 0 325 155" version="1.1" xmlns="http://www.w3.org/2000/svg" xmlns:xlink="http://www.w3.org/1999/xlink">
    <!-- Generator: Sketch 48.2 (47327) - http://www.bohemiancoding.com/sketch -->
    <title>villagetable</title>
    <desc>Created with Sketch.</desc>
    <defs></defs>
    <g id="rylan.io" stroke="none" stroke-width="1" fill="none" fill-rule="evenodd" transform="translate(-247.000000, -1490.000000)">
        <g id="startups" transform="translate(143.000000, 800.000000)">
            <g id="village" transform="translate(17.037803, 640.000000)">
                <g id="villagetable" transform="translate(87.000000, 50.000000)">
                    <path d="M201.297717,101.770998 L197.362316,101.770998 L197.362316,114.706805 C197.362316,115.451782 197.196319,116.004433 196.864318,116.364775 C196.532318,116.725117 196.103153,116.905285 195.576811,116.905285 C195.042371,116.905285 194.607133,116.723092 194.271084,116.358702 C193.935034,115.994311 193.767012,115.443684 193.767012,114.706805 L193.767012,101.770998 L189.831612,101.770998 C189.216196,101.770998 188.75869,101.635365 188.45908,101.364097 C188.15947,101.092828 188.009667,100.734516 188.009667,100.289149 C188.009667,99.8275878 188.165543,99.4632025 188.477299,99.1959826 C188.789056,98.9287628 189.240489,98.7951548 189.831612,98.7951548 L201.297717,98.7951548 C201.92123,98.7951548 202.384809,98.9328115 202.688468,99.2081289 C202.992127,99.4834464 203.143954,99.843783 203.143954,100.289149 C203.143954,100.734516 202.990103,101.092828 202.682395,101.364097 C202.374687,101.635365 201.913132,101.770998 201.297717,101.770998 Z M215.108058,114.585342 L214.257817,112.350423 L207.018623,112.350423 L206.168382,114.633927 C205.836382,115.52466 205.552971,116.125896 205.318141,116.437653 C205.083312,116.749409 204.698683,116.905285 204.164243,116.905285 C203.710779,116.905285 203.309955,116.739287 202.96176,116.407287 C202.613564,116.075286 202.439469,115.698755 202.439469,115.277681 C202.439469,115.034754 202.479956,114.783733 202.560932,114.524611 C202.641908,114.265488 202.775516,113.905152 202.96176,113.44359 L207.516621,101.880314 C207.646183,101.548314 207.802059,101.149515 207.984254,100.683904 C208.166449,100.218294 208.360788,99.8316404 208.567276,99.5239327 C208.773764,99.2162249 209.045029,98.9672283 209.381078,98.7769354 C209.717127,98.5866424 210.132122,98.4914974 210.626074,98.4914974 C211.128123,98.4914974 211.547166,98.5866424 211.883216,98.7769354 C212.219265,98.9672283 212.490529,99.2121762 212.697017,99.5117864 C212.903506,99.8113966 213.077601,100.13327 213.219308,100.477417 C213.361016,100.821564 213.541184,101.281094 213.759819,101.856022 L218.411851,113.34642 C218.776241,114.220958 218.958434,114.856607 218.958434,115.253388 C218.958434,115.666365 218.786363,116.044921 218.442216,116.389067 C218.09807,116.733214 217.683075,116.905285 217.197221,116.905285 C216.913806,116.905285 216.670882,116.854676 216.468443,116.753456 C216.266004,116.652237 216.095957,116.51458 215.958298,116.340482 C215.82064,116.166384 215.672861,115.899168 215.514959,115.538826 C215.357056,115.178485 215.221424,114.86066 215.108058,114.585342 Z M207.966034,109.641799 L213.286113,109.641799 L210.601781,102.293289 L207.966034,109.641799 Z M229.209909,116.601628 L223.768368,116.601628 C222.982903,116.601628 222.422155,116.425508 222.086106,116.073264 C221.750057,115.721019 221.582034,115.160271 221.582034,114.391001 L221.582034,101.005781 C221.582034,100.220317 221.754105,99.6555193 222.098252,99.3113725 C222.442399,98.9672256 222.999099,98.7951548 223.768368,98.7951548 L229.53786,98.7951548 C230.388105,98.7951548 231.124973,98.8477882 231.748486,98.9530567 C232.371999,99.0583251 232.930723,99.2607614 233.424675,99.5603716 C233.845749,99.8113963 234.218231,100.129221 234.542134,100.513856 C234.866037,100.898491 235.113009,101.323607 235.283058,101.789217 C235.453107,102.254828 235.538131,102.746748 235.538131,103.264992 C235.538131,105.046458 234.647411,106.350148 232.865945,107.1761 C235.206144,107.921077 236.376225,109.370521 236.376225,111.524475 C236.376225,112.520476 236.121156,113.417269 235.611008,114.21488 C235.100861,115.012491 234.412578,115.60158 233.546138,115.982166 C233.0036,116.208898 232.380097,116.368823 231.675608,116.461945 C230.971119,116.555067 230.149228,116.601628 229.209909,116.601628 Z M228.942691,108.694388 L225.189485,108.694388 L225.189485,113.893003 L229.064154,113.893003 C231.501523,113.893003 232.72019,113.01443 232.72019,111.257256 C232.72019,110.358426 232.404389,109.706581 231.772778,109.301703 C231.141168,108.896824 230.197815,108.694388 228.942691,108.694388 Z M225.189485,101.503779 L225.189485,106.107226 L228.493278,106.107226 C229.392108,106.107226 230.086465,106.022203 230.576368,105.852154 C231.066271,105.682105 231.440778,105.358207 231.699901,104.88045 C231.90234,104.540352 232.003558,104.159772 232.003558,103.738698 C232.003558,102.839868 231.683709,102.242681 231.044,101.947119 C230.404292,101.651558 229.428549,101.503779 228.116743,101.503779 L225.189485,101.503779 Z M243.032397,100.677831 L243.032397,113.637931 L250.344468,113.637931 C250.927493,113.637931 251.374877,113.779636 251.686634,114.063051 C251.99839,114.346466 252.154266,114.702754 252.154266,115.131926 C252.154266,115.569194 252.000415,115.923458 251.692707,116.194727 C251.384999,116.465995 250.935591,116.601628 250.344468,116.601628 L241.635572,116.601628 C240.850108,116.601628 240.285311,116.427532 239.941164,116.079337 C239.597017,115.731141 239.424946,115.168368 239.424946,114.391001 L239.424946,100.677831 C239.424946,99.9490495 239.588919,99.4024715 239.916871,99.0380808 C240.244823,98.67369 240.676012,98.4914974 241.210452,98.4914974 C241.752989,98.4914974 242.192276,98.6716657 242.528325,99.0320076 C242.864374,99.3923496 243.032397,99.9409519 243.032397,100.677831 Z M266.256118,101.576657 L258.130245,101.576657 L258.130245,105.949324 L265.612364,105.949324 C266.162999,105.949324 266.573945,106.07281 266.845214,106.319786 C267.116482,106.566762 267.252115,106.892685 267.252115,107.297563 C267.252115,107.702442 267.118507,108.032413 266.851287,108.287487 C266.584067,108.54256 266.171097,108.670095 265.612364,108.670095 L258.130245,108.670095 L258.130245,113.735101 L266.535483,113.735101 C267.102313,113.735101 267.529454,113.866685 267.816917,114.129856 C268.104381,114.393027 268.248111,114.743242 268.248111,115.180511 C268.248111,115.601584 268.104381,115.943702 267.816917,116.206873 C267.529454,116.470044 267.102313,116.601628 266.535483,116.601628 L256.733421,116.601628 C255.947956,116.601628 255.383159,116.427532 255.039012,116.079337 C254.694865,115.731141 254.522794,115.168368 254.522794,114.391001 L254.522794,101.005781 C254.522794,100.487536 254.59972,100.064445 254.753574,99.7364929 C254.907428,99.4085412 255.148327,99.1696664 255.476279,99.0198613 C255.80423,98.8700562 256.223273,98.7951548 256.733421,98.7951548 L266.256118,98.7951548 C266.831046,98.7951548 267.258186,98.9226897 267.537553,99.1777632 C267.816919,99.4328367 267.9566,99.7668566 267.9566,100.179833 C267.9566,100.600907 267.816919,100.938975 267.537553,101.194049 C267.258186,101.449122 266.831046,101.576657 266.256118,101.576657 Z" id="TABLE" fill="#FFFFFF" opacity="0.495471014"></path>
                    <path d="M192.086821,66.4361233 C192.497284,67.4409249 192.789181,67.5213057 193.392185,68.9843424 C193.852361,70.1008412 194.237944,72.6495629 194.624437,74.0521826 C195.954879,78.8804725 196.939927,83.4243767 197.915518,84.9433388 C198.701568,86.1671907 200.773679,89.3105948 201.296349,89.5029151 C201.81902,89.6952354 202.722124,85.7332543 202.972541,84.9433388 C203.284568,83.9590802 204.511287,82.0702619 205.412004,79.6999888 C205.858753,78.5243483 206.367668,76.4124309 206.938746,73.3642369" id="Path-2" stroke="#FFFFFF" stroke-width="5.65354957" stroke-linecap="round"></path>
                    <path d="M217.811393,66.4361385 C217.811393,68.2334516 217.811393,75.8791989 217.811393,89.3733804" id="Path-3" stroke="#FFFFFF" stroke-width="5.65354957" stroke-linecap="round"></path>
                    <path d="M231.84493,46.1888812 C229.851311,54.6491507 230.790692,78.255143 231.303525,89.4104717 C231.308695,89.5229415 231.591946,89.404613 231.736156,89.4016837" id="Path-10" stroke="#FFFFFF" stroke-width="5.65354957" stroke-linecap="round"></path>
                    <path d="M243.296686,46.1888812 C243.779194,70.5851055 243.592599,56.2029476 243.600479,89.3368712" id="Path-11" stroke="#FFFFFF" stroke-width="5.65354957" stroke-linecap="round"></path>
                    <path d="M275.949655,86.5986079 C273.480592,87.832085 272.050723,87.0201588 271.559982,84.3692733 C270.846116,80.5131177 270.985627,73.284694 267.975727,69.7925303 C265.331444,66.7245653 262.163732,66.4905392 260.825118,66.5587167 C259.459649,66.6282619 257.78187,66.9586017 256.268289,69.108708 C254.251656,71.9734182 252.207455,79.9270888 256.268289,84.8976534 C257.952511,86.9591852 258.876238,88.1725233 261.245481,88.9236915 C266.217669,90.5001229 268.178097,89.474414 271.639186,85.5812738 C271.816944,85.3813262 271.957082,85.0771188 271.888767,84.8184492 C271.835866,84.6181418 271.53229,84.607238 271.354051,84.5016324" id="Path-12" stroke="#FFFFFF" stroke-width="5.65354957" stroke-linecap="round"></path>
                    <path d="M294.506613,88.463612 C291.776354,90.1840191 285.764649,91.4597135 283.229613,87.750345 C282.466437,86.6336355 282.071379,83.6640495 282.02132,82.6111415 C281.584045,73.4137494 281.013412,67.1596424 290.846602,66.5111961 C296.907475,66.111514 297.116125,75.0165849 296.962723,79.5066639 C296.768828,85.1819832 294.907851,102.170157 294.506613,104.32027 C293.192412,111.362675 290.432915,115.040397 284.105525,114.20204 C282.950844,114.049049 281.806654,113.706896 280.736521,113.208708 C279.01116,112.405486 275.196165,108.198897 274.610047,107.612517" id="Path-13" stroke="#FFFFFF" stroke-width="5.65354957" stroke-linecap="round"></path>
                    <path d="M305.077046,75.3938186 C305.924737,76.883416 311.675802,77.1223568 313.287464,77.2834448 C317.557828,77.7102738 320.291655,76.6514277 321.072048,72.0710218 C321.170334,71.4941499 321.28493,70.860557 321.072048,70.3154676 C319.681763,66.7556066 311.233176,65.5901852 308.515286,67.5845051 C301.733094,72.5611081 302.878494,86.6229853 311.562646,89.1992764 C312.546647,89.4911958 313.580698,89.6345176 314.606691,89.6630247 C315.17525,89.6788221 315.765061,89.5713007 316.280284,89.3303553 C317.409174,88.8024263 318.537964,88.2094312 319.47409,87.3867706 C319.941925,86.9756413 320.066306,86.2909304 320.362414,85.7430102" id="Path-14" stroke="#FFFFFF" stroke-width="5.65354957" stroke-linecap="round"></path>
                    <path d="M216.337928,52.756419 C216.577213,49.6253634 216.826085,43.6726721 221.108756,45.7678398 C221.949987,46.1793868 223.655177,47.4007935 222.059008,48.6372626 C220.087128,50.164775 212.691255,55.8007572 210.649845,52.0282083 C208.309249,47.7027627 219.10245,45.4148222 220.446422,48.9890995 C221.722958,52.3840299 220.404265,58.8365108 216.337928,56.6154501 C211.3133,53.8709652 217.220995,41.7688229 222.516231,47.7096139" id="Path-4" stroke="#FFFFFF" stroke-width="3.9574847" stroke-linecap="round"></path>
                    <path d="M1.56688801,76.2862681 L16.2833924,76.2862681 C17.0695471,76.2862681 17.7068513,76.9235724 17.7068513,77.7097271 L17.7068513,92.4262314 C17.7068513,93.2123861 17.0695471,93.8496904 16.2833924,93.8496904 L1.56688801,93.8496904 C0.780733328,93.8496904 0.143429035,93.2123861 0.143429035,92.4262314 L0.143429035,77.7097271 C0.143429035,76.9235724 0.780733328,76.2862681 1.56688801,76.2862681 Z M124.265816,76.2862681 L138.98232,76.2862681 C139.768475,76.2862681 140.405779,76.9235724 140.405779,77.7097271 L140.405779,92.4262314 C140.405779,93.2123861 139.768475,93.8496904 138.98232,93.8496904 L124.265816,93.8496904 C123.479661,93.8496904 122.842357,93.2123861 122.842357,92.4262314 L122.842357,77.7097271 C122.842357,76.9235724 123.479661,76.2862681 124.265816,76.2862681 Z M62.9104269,137.195758 L77.6269312,137.195758 C78.4130859,137.195758 79.0503902,137.833062 79.0503902,138.619217 L79.0503902,153.335721 C79.0503902,154.121876 78.4130859,154.75918 77.6269312,154.75918 L62.9104269,154.75918 C62.1242722,154.75918 61.4869679,154.121876 61.4869679,153.335721 L61.4869679,138.619217 C61.4869679,137.833062 62.1242722,137.195758 62.9104269,137.195758 Z M26.490631,116.54222 L36.8967711,126.94836 C37.4526664,127.504255 37.4526664,128.40554 36.8967711,128.961435 L26.490631,139.367575 C25.9347357,139.92347 25.0334514,139.92347 24.4775561,139.367575 L14.071416,128.961435 C13.5155207,128.40554 13.5155207,127.504255 14.071416,126.94836 L24.4775561,116.54222 C25.0334514,115.986325 25.9347357,115.986325 26.490631,116.54222 Z M115.294881,116.54222 L125.701021,126.94836 C126.256917,127.504255 126.256917,128.40554 125.701021,128.961435 L115.294881,139.367575 C114.738986,139.92347 113.837702,139.92347 113.281806,139.367575 L102.875666,128.961435 C102.319771,128.40554 102.319771,127.504255 102.875666,126.94836 L113.281806,116.54222 C113.837702,115.986325 114.738986,115.986325 115.294881,116.54222 Z M26.490631,30.981679 L36.8967711,41.387819 C37.4526664,41.9437143 37.4526664,42.8449987 36.8967711,43.400894 L26.490631,53.8070341 C25.9347357,54.3629294 25.0334514,54.3629294 24.4775561,53.8070341 L14.071416,43.400894 C13.5155207,42.8449987 13.5155207,41.9437143 14.071416,41.387819 L24.4775561,30.981679 C25.0334514,30.4257837 25.9347357,30.4257837 26.490631,30.981679 Z M115.294881,30.981679 L125.701021,41.387819 C126.256917,41.9437143 126.256917,42.8449987 125.701021,43.400894 L115.294881,53.8070341 C114.738986,54.3629294 113.837702,54.3629294 113.281806,53.8070341 L102.875666,43.400894 C102.319771,42.8449987 102.319771,41.9437143 102.875666,41.387819 L113.281806,30.981679 C113.837702,30.4257837 114.738986,30.4257837 115.294881,30.981679 Z" id="Combined-Shape" fill="#FFFFFF"></path>
                    <circle id="Oval-7" stroke="#FFFFFF" stroke-width="14.6759996" cx="70.268679" cy="85.0679793" r="33.7995961"></circle>
                    <path d="M61.513165,33.293053 C61.4556298,32.5611573 61.4263183,31.8213277 61.4263183,31.074652 C61.4263183,15.6553534 73.9261296,3.15554208 89.3454283,3.15554208 C90.092104,3.15554208 90.8319336,3.18485359 91.5638292,3.24238873 C91.6213644,3.97428439 91.6506759,4.714114 91.6506759,5.46078969 C91.6506759,20.8800884 79.1508646,33.3798997 63.7315659,33.3798997 C62.9848902,33.3798997 62.2450606,33.3505881 61.513165,33.293053 Z" id="Combined-Shape" fill="#FFFFFF" transform="translate(76.538497, 18.267721) rotate(-10.000000) translate(-76.538497, -18.267721) "></path>
                </g>
            </g>
        </g>
    </g>
</svg>