<?xml version="1.0" encoding="UTF-8"?>
<svg width="155px" height="90px" viewBox="0 0 155 90" version="1.1" xmlns="http://www.w3.org/2000/svg" xmlns:xlink="http://www.w3.org/1999/xlink">
    <!-- Generator: Sketch 48.2 (47327) - http://www.bohemiancoding.com/sketch -->
    <title>xui</title>
    <desc>Created with Sketch.</desc>
    <defs>
        <path d="M17.7073053,12.2641429 L60.8759471,12.2641429 C70.3423784,12.2641429 78.0164372,19.9382017 78.0164372,29.404633 L78.0164372,72.5732748 C78.0164372,82.0397061 70.3423784,89.713765 60.8759471,89.713765 L17.7073053,89.713765 C8.24087397,89.713765 0.566815145,82.0397061 0.566815145,72.5732748 L0.566815145,29.404633 C0.566815145,19.9382017 8.24087397,12.2641429 17.7073053,12.2641429 Z M63.3350896,31.5176663 L58.4754542,26.6580309 L39.20924,45.924245 L19.9430259,26.6580309 L15.0833905,31.5176663 L34.3496046,50.7838804 L15.0833905,70.0500946 L19.9430259,74.90973 L39.20924,55.6435158 L58.4754542,74.90973 L63.3350896,70.0500946 L44.0688754,50.7838804 L63.3350896,31.5176663 Z M98.6706034,27.5502039 L98.6706034,54.9002706 C98.6706034,62.7938296 101.785577,66.7405499 108.015617,66.7405499 C114.245658,66.7405499 117.360631,62.7938296 117.360631,54.9002706 L117.360631,27.5502039 L128.369155,27.5502039 L128.369155,55.1449045 C128.369155,58.961212 127.896201,62.2555818 126.950279,65.0281129 C126.036974,67.5070818 124.455025,69.7413821 122.204382,71.7310809 C118.485928,74.9602641 113.756387,76.5748315 108.015617,76.5748315 C102.307465,76.5748315 97.594233,74.9602641 93.8757795,71.7310809 C91.5925187,69.7413821 89.9779513,67.5070818 89.0320289,65.0281129 C88.1187246,62.810088 87.6620792,59.5157182 87.6620792,55.1449045 L87.6620792,27.5502039 L98.6706034,27.5502039 Z M153.272883,27.5502039 L153.272883,75.2048819 L142.264359,75.2048819 L142.264359,27.5502039 L153.272883,27.5502039 Z M140.600849,7.73486042 C140.600849,5.81039768 141.302126,4.146904 142.7047,2.74432946 C144.107275,1.34175493 145.787077,0.640478177 147.744158,0.640478177 C149.733857,0.640478177 151.429968,1.34175493 152.832542,2.74432946 C154.235117,4.11428599 154.936394,5.79408843 154.936394,7.78378719 C154.936394,9.77348595 154.235117,11.4695972 152.832542,12.8721717 C151.462586,14.2747462 149.782783,14.976023 147.793085,14.976023 C145.803386,14.976023 144.107275,14.2747462 142.7047,12.8721717 C141.302126,11.4695972 140.600849,9.75717719 140.600849,7.73486042 Z" id="path-1"></path>
    </defs>
    <g id="rylan.io" stroke="none" stroke-width="1" fill="none" fill-rule="evenodd" transform="translate(-943.000000, -1473.000000)">
        <g id="startups" transform="translate(143.000000, 800.000000)">
            <g id="xui" transform="translate(625.000000, 512.000000)">
                <g transform="translate(175.000000, 160.911498)">
                    <mask id="mask-2" fill="white">
                        <use xlink:href="#path-1"></use>
                    </mask>
                    <use fill="#FFFFFF" xlink:href="#path-1"></use>
                </g>
            </g>
        </g>
    </g>
</svg>