<svg version="1" xmlns="http://www.w3.org/2000/svg" width="346.667" height="346.667" viewBox="0 0 260.000000 260.000000"><path d="M0 130v130h260V130.5l-4.4 9c-7.4 15-20.4 31.4-31 38.9-3.3 2.4-11.6 7.2-18.4 10.7l-12.3 6.4h-9.2c-13.3 0-18-1.6-25.1-8.8l-5.9-5.8-9 3.6c-17.2 6.8-29.2 8.9-37.9 6.4-4.8-1.3-18.3-10.1-20.4-13.4-2-3.1-3.1-10.5-1.5-10.6 5.9-.7 6.6-3.4 2.2-9.9-2.7-4-2.8-4.5-1.3-5.6 1.4-1.1 2-1 3.2.6 2.2 2.8 9.2 2.8 16.7.1 3.5-1.2 8.4-2.4 10.9-2.7 5.6-.5 12.4-2.4 12.4-3.5 0-1.2-1.6-1.9-4.2-1.9h-5.6c-2.3 0-3.9.7-5.2 2.2-1.6 2.1-2.2 2.2-4.9 1.1-1.8-.6-3.3-.7-3.7-.2-.9 1.5-5.8 1-10.5-1.1-6.9-3.2-7.3-3.5-8.9-6.5-.8-1.5-3.3-4.5-5.5-6.6-3.3-3.1-4.7-3.9-8-3.9-3.9 0-7.7-1.8-10.3-5-1.8-2.2-.9-11.6 1.8-17.2l2.2-4.8-3.6-4.2C58.8 93.4 56 86 56 80.3c0-1.8.5-6.3 1.2-10.1l1.1-6.9 4.5 8.6c2.4 4.7 5 9.8 5.8 11.2 1 1.8 1.2 3.4.6 5-1 2.5-.6 4.9.8 4.9.4 0 1.1-1.1 1.4-2.4.3-1.4 2-3.8 3.7-5.5 2.2-2.3 3-4.1 3.2-7 .1-3.6-.5-4.6-8.5-13-14.7-15.4-17.9-25-13.9-41.3 1.2-4.7 2.2-10.7 2.3-13.4 0-2.7.4-6.1.9-7.6l.8-2.8H0v130zM185 .7c3.5 1.1 5.9 2.7 5.4 3.5-.3.4-.1.8.4.8s.8 1 .7 2.2c-.1 1.3.8 3.4 2.1 4.8s3.7 4.2 5.4 6.4c1.6 2.1 3.1 3.3 3.2 2.5 0-.8.2-1.9.3-2.4.2-.6.3-1.9.4-3 .1-1.6.7-1.2 2.5 1.8 2.7 4.4 7.9 7.8 7.4 4.9-.5-2.9 3.6-2.7 5.2.2.7 1.4 2.1 2.8 3 3.1.9.3 2.5 2.1 3.5 3.9 1.2 2.2 2.6 3.4 3.7 3.3 1.1-.1 1.6-.7 1.4-1.4-.3-.7.1-1.3.8-1.3 1.4 0 2.6 2.1 2.6 4.6 0 .8-.7 1.4-1.6 1.4-1.4 0-1.4.3-.4 1.5.7.8 1.7 1.5 2.3 1.5.5 0 1.6.8 2.4 1.7 1.4 1.7 1.4 1.7.9 0-.4-1.3.1-1.7 2.2-1.7 1.6 0 3.3-.5 4-1.2.9-.9 1.2-.9 1.2 0 0 .6 1.2 2.3 2.7 3.7 1.5 1.4 2.2 2.5 1.6 2.5-.7 0-1.5-.5-1.8-1-.3-.6-1.4-1-2.2-1-1.4 0-1.3.4.5 2 2.6 2.4 2.8 3.7.7 3.7-.8 0-1.4-.7-1.3-1.5.2-.8-.3-1.7-1.1-2-.8-.3-1.1 0-.7.7.4.6.1 1.1-.6 1.1-.9 0-.9.3-.2.8 1.3.9 3.7 5.2 2.9 5.2-.4 0-1.5-.5-2.6-1-1.9-1.1-2.3-.4-2.2 3.7.1 1.2-1.9 1.8-4.2 1.3-.5-.1-.1.8.9 1.9l1.9 2.1 3.6-2.2c7.2-4.3 9.2-5 13.6-4.6l4.5.3V0l-38.2.1c-21.1 0-37.6.3-36.8.6zm66.4 39.8c.3.8.1 1.5-.4 1.5-.6 0-1-.7-1-1.5s.2-1.5.4-1.5.6.7 1 1.5z"/><path d="M238.6 43.5c-.3.8-.1 1.7.3 2 .5.3 1.1-.2 1.5-1 .3-.8.1-1.7-.3-2-.5-.3-1.1.2-1.5 1zM95.2 78.5c1 1 16.8 5.5 19.5 5.5 3.1 0 3-2.8-.1-4-3-1.1-20.3-2.5-19.4-1.5zM107 85.6c4.9 6.5 7.3 8.1 13.5 9 1.7.3 3.5.7 4.1.9.6.2 3.3-.2 6-.7 3.9-.9 4.5-1.2 2.9-1.9-1.1-.4-3.3-.8-5-.8-1.6-.1-6.6-1.7-11-3.7s-8.9-3.8-10-4.2c-1.8-.5-1.9-.4-.5 1.4zM232.5 91c-.3.5-1.5 1-2.5 1-2 0-3.6 1.7-2.6 2.7.9 1 6.6-1.9 6.6-3.3 0-1.6-.6-1.8-1.5-.4zM236 91c0 .5.5 1 1 1 .6 0 1-.5 1-1 0-.6-.4-1-1-1-.5 0-1 .4-1 1zM115 100.9c0 1.2 2.9 2.3 4.2 1.5.6-.4.5-1-.3-1.5-1.8-1.1-3.9-1.1-3.9 0z"/></svg>