<?xml version="1.0" encoding="UTF-8"?>
<svg width="256px" height="256px" viewBox="0 0 256 256" version="1.1" xmlns="http://www.w3.org/2000/svg" xmlns:xlink="http://www.w3.org/1999/xlink">
    <!-- Generator: Sketch 48.2 (47327) - http://www.bohemiancoding.com/sketch -->
    <title>nytimes</title>
    <desc>Created with Sketch.</desc>
    <defs></defs>
    <g id="webpage" stroke="none" stroke-width="1" fill="none" fill-rule="evenodd">
        <g id="nytimes" fill="#000000" fill-rule="nonzero">
            <path d="M94.5877605,79.0149787 L94.5877605,63.3079787 L89.8637605,65.4149787 C89.8637605,65.4149787 88.6587605,68.1119787 88.8697605,72.0269787 C89.0357605,75.0849787 90.7457605,78.7429787 92.0597605,80.2769787 L94.5877605,79.0169787 L94.5877605,79.0149787 Z M108.423761,46.6719787 C109.588761,46.7749787 111.417761,47.3479787 112.796761,48.5559787 C114.260761,49.9779787 114.594761,52.1359787 114.081761,54.0979787 C113.624761,55.8449787 113.113761,56.7529787 111.331761,57.9609787 C109.528761,59.1769787 107.349761,59.0749787 107.349761,59.0749787 L107.349761,66.6479787 L111.032761,69.6279787 L107.347761,72.5999787 L107.347761,82.9129787 C107.347761,82.9129787 111.037761,80.7989787 113.327761,76.0609787 C113.327761,76.0609787 113.422761,75.8029787 113.637761,75.3149787 C113.840761,76.5849787 113.724761,79.1529787 112.287761,82.4509787 C111.207761,84.9339787 109.239761,87.3249787 106.771761,88.6859787 C102.397761,91.1119787 99.1197605,91.3429787 95.6037605,90.6159787 C91.4877605,89.7659787 87.7487605,87.4539787 85.1967605,83.4189787 C83.4047605,80.5849787 82.6017605,77.2789787 82.6767605,73.7239787 C82.8197605,66.7439787 88.0127605,60.7209787 94.0067605,58.4769787 C94.7367605,58.2039787 95.0287605,58.0239787 96.0637605,57.9299787 C95.5857605,58.2559787 95.0337605,58.6749787 94.3577605,59.1199787 C92.4277605,60.3899787 90.7737605,62.9149787 90.0677605,64.8599787 L101.703761,59.6699787 L101.703761,75.9359787 L92.3197605,80.6359787 C93.3897605,82.1179787 96.6367605,84.3639787 99.4167605,84.6799787 C104.144761,85.2019787 106.916761,83.1399787 106.916761,83.1399787 L106.916761,72.5999787 L103.252761,69.6279787 L106.919761,66.6559787 L106.919761,59.0759787 C104.921761,58.8439787 102.493761,58.1859787 101.074761,57.8339787 C98.9887605,57.3199787 92.0307605,55.3669787 90.9367605,55.2039787 C89.8447605,55.0419787 88.4967605,55.0939787 87.6797605,55.8209787 C86.8637605,56.5569787 86.3577605,57.8509787 86.7047605,59.0159787 C86.9007605,59.6759787 87.3547605,60.0609787 87.6987605,60.4359787 C87.6987605,60.4359787 87.2967605,60.4039787 86.5687605,59.9659787 C85.2547605,59.1779787 84.2567605,57.6359787 84.1347605,55.7359787 C83.9807605,53.2419787 85.0067605,50.9979787 87.0627605,49.4899787 C88.8487605,48.3429787 90.8697605,47.6059787 93.2177605,47.9399787 C96.6437605,48.4279787 101.251761,50.3639787 105.354761,51.3499787 C106.944761,51.7349787 108.174761,51.8639787 109.294761,51.2119787 C109.814761,50.8349787 110.730761,49.8669787 109.981761,48.5819787 C109.106761,47.0759787 107.431761,47.1099787 106.014761,46.8439787 C107.234761,46.5859787 107.504761,46.5859787 108.420761,46.6719787 L108.423761,46.6719787 Z M153.703761,74.9219787 L148.416761,78.7939787 L148.416761,65.9099787 L153.702761,74.9199787 L153.703761,74.9219787 Z M153.550761,62.5439787 C153.550761,62.5439787 149.986761,64.7039787 147.588761,66.1339787 C145.191761,67.5539787 141.975761,69.1219787 141.975761,69.1219787 L141.975761,84.1119787 L139.831761,85.8349787 L140.114761,86.1689787 L142.206761,84.4819787 L148.762761,90.4099787 L160.159761,81.3819787 L159.889761,81.0559787 L153.589761,85.9979787 L148.414761,81.1509787 L148.414761,79.3439787 L158.811761,71.6939787 L153.549761,62.5459787 L153.550761,62.5439787 Z M123.681761,96.0449787 C125.178761,96.4129787 127.816761,96.6189787 130.999761,95.0249787 C134.522761,93.2599787 136.294761,89.5169787 136.269761,85.6809787 L136.419761,80.2409787 L136.419761,68.3609787 L138.672761,66.6389787 L138.408761,66.3049787 L136.192761,67.9749787 L131.075761,62.2879787 L124.513761,67.9229787 L124.513761,48.7709787 L116.313761,55.1109787 C116.677761,55.3409787 117.839761,55.5549787 117.873761,57.1909787 L117.873761,84.0209787 L114.401761,86.5979787 L114.639761,86.9579787 L116.316761,85.7059787 L120.986761,90.0499787 L128.338761,84.1999787 L128.072761,83.8659787 L126.342761,85.2359787 L124.512761,83.4199787 L124.530761,68.4739787 L126.672761,66.6499787 L129.866761,70.6159787 C129.866761,70.6159787 129.859761,80.2959787 129.868761,83.5079787 C129.844761,86.9339787 129.832761,91.2079787 128.032761,93.2719787 C126.235761,95.3419787 125.512761,95.5059787 123.680761,96.0459787 L123.681761,96.0449787 Z M35.7037605,151.357979 C32.7667605,151.023979 31.5337605,149.243979 31.5657605,147.837979 C31.5877605,146.937979 32.4037605,145.173979 34.1907605,144.933979 C35.9747605,144.683979 37.7987605,145.523979 39.3387605,147.330979 L46.1237605,139.835979 L45.7967605,139.545979 L43.9747605,141.583979 C42.1247605,139.476979 39.4977605,138.148979 36.8807605,137.763979 L36.8807605,114.928979 L54.5027605,147.025979 C54.5027605,147.025979 54.6707605,147.392979 55.3957605,147.392979 C56.0197605,147.392979 55.8707605,146.886979 55.8707605,146.886979 L55.8677605,114.586979 C57.2977605,114.526979 59.4847605,113.738979 60.5477605,112.650979 C63.9377605,109.164979 62.5537605,105.360979 62.1807605,104.993979 C61.9737605,106.655979 60.6957605,108.325979 58.5607605,108.333979 C55.7637605,108.343979 54.0577605,106.277979 54.0577605,106.277979 L47.2797605,114.005979 L47.6037605,114.295979 L49.5457605,112.078979 C51.9157605,114.263979 53.6487605,114.468979 55.4407605,114.588979 L55.4387605,133.330979 L42.3637605,109.584979 C41.1837605,107.622979 39.3797605,105.899979 36.5557605,105.874979 C33.3087605,105.856979 30.9857605,108.718979 30.7077605,111.184979 C30.3937605,113.968979 30.7417605,114.611979 30.7417605,114.611979 C30.7417605,114.611979 31.2197605,111.511979 33.1377605,111.537979 C34.8617605,111.562979 35.7577605,113.147979 36.4497605,114.337979 L36.4497605,121.217979 C34.6717605,121.337979 30.0447605,121.541979 29.7617605,126.357979 C29.7417605,128.147979 30.8517605,130.022979 31.8267605,130.657979 C33.0797605,131.477979 34.0567605,131.462979 34.0567605,131.462979 C34.0567605,131.462979 32.5567605,130.665979 33.0047605,129.089979 C33.4077605,127.676979 36.3467605,127.444979 36.4527605,128.035979 L36.4527605,137.741979 C35.0377605,137.724979 30.5127605,137.879979 28.4687605,141.759979 C27.2387605,144.107979 27.3087605,146.729979 28.6257605,148.577979 C29.6987605,150.083979 31.9057605,152.009979 35.7057605,151.357979 L35.7037605,151.357979 Z M73.0697605,131.587979 L67.7817605,135.460979 L67.7817605,122.577979 L73.0697605,131.587979 Z M72.9197605,119.211979 C72.9197605,119.211979 69.3527605,121.369979 66.9557605,122.801979 C64.5577605,124.221979 61.3437605,125.789979 61.3437605,125.789979 L61.3437605,140.779979 L59.1987605,142.502979 L59.4827605,142.835979 L61.5727605,141.149979 L68.1327605,147.077979 L79.5267605,138.049979 L79.2567605,137.723979 L72.9597605,142.663979 L67.7817605,137.817979 L67.7817605,136.010979 L78.1797605,128.360979 L72.9167605,119.212979 L72.9197605,119.211979 Z M88.8467605,147.187979 L83.2597605,142.542979 L80.8057605,144.325979 L80.5557605,143.975979 L83.0517605,142.150979 L83.0517605,129.171979 C83.1717605,123.826979 78.1577605,125.154979 78.4287605,119.483979 C78.5487605,116.990979 80.9617605,115.105979 82.1787605,114.480979 C83.4817605,113.820979 84.8927605,113.820979 84.8927605,113.820979 C84.8927605,113.820979 82.6047605,115.250979 83.1597605,117.306979 C84.0157605,120.476979 89.4347605,120.758979 89.5367605,124.981979 L89.5367605,139.707979 L93.5367605,142.911979 L94.5897605,142.089979 L94.5897605,126.149979 L92.4327605,124.006979 L97.9867605,119.089979 L103.059761,123.586979 L101.123761,125.684979 L101.123761,139.814979 L105.876761,143.737979 L106.720761,143.197979 L106.720761,126.191979 L104.560761,124.171979 L110.124761,119.081979 L115.329761,123.381979 L117.407761,121.541979 L117.687761,121.865979 L113.010761,125.978979 L113.010761,139.838979 L101.040761,147.221979 L94.9177605,142.371979 L88.8477605,147.188979 L88.8467605,147.187979 Z M164.855761,191.921979 L159.569761,195.793979 L159.569761,182.908979 L164.855761,191.920979 L164.855761,191.921979 Z M164.705761,179.543979 C164.705761,179.543979 161.137761,181.703979 158.741761,183.133979 C156.343761,184.555979 153.128761,186.121979 153.128761,186.121979 L153.128761,201.111979 L150.983761,202.834979 L151.269761,203.168979 L153.361761,201.481979 L159.918761,207.409979 L171.312761,198.381979 L171.042761,198.055979 L164.745761,202.997979 L159.567761,198.150979 L159.567761,196.343979 L169.967761,188.693979 L164.703761,179.545979 L164.705761,179.543979 Z M111.205761,185.814979 L111.485761,186.139979 L113.630761,184.289979 L116.817761,187.895979 L116.817761,200.283979 L115.269761,201.696979 L120.233761,207.306979 L125.326761,202.288979 L123.236761,200.121979 L123.236761,185.139979 L124.500761,184.129979 L128.022761,188.239979 L128.022761,200.591979 L126.697761,201.911979 L131.371761,207.171979 L136.369761,202.168979 L134.532761,200.240979 L134.487761,185.200979 L135.837761,184.103979 L139.509761,188.146979 L139.509761,200.429979 L138.302761,201.636979 L143.462761,207.264979 L150.392761,200.866979 L150.098761,200.549979 L148.414761,202.099979 L145.834761,199.239979 L145.834761,185.214979 L148.326761,183.321979 L148.068761,182.978979 L145.571761,184.872979 L140.857761,179.586979 L134.114761,184.916979 L129.394761,179.776979 L122.881761,184.872979 L118.117761,179.802979 L111.203761,185.814979 L111.205761,185.814979 Z M97.0977605,185.428979 L97.3777605,185.754979 L99.1917605,184.186979 L102.027761,187.544979 L102.027761,201.704979 L100.027761,203.451979 L100.305761,203.776979 L102.405761,201.986979 L106.980761,207.262979 L113.590761,201.362979 L113.310761,201.035979 L111.364761,202.749979 L108.632761,199.597979 L108.632761,185.754979 L110.938761,183.758979 L110.658761,183.433979 L108.470761,185.316979 L103.656761,179.706979 L97.0987605,185.426979 L97.0977605,185.428979 Z M99.0037605,173.704979 L103.979761,169.146979 L108.027761,173.633979 L103.027761,178.173979 L99.0027605,173.703979 L99.0037605,173.704979 Z M92.3107605,163.671979 C93.4757605,163.774979 95.3057605,164.347979 96.6847605,165.555979 C98.1487605,166.977979 98.4827605,169.135979 97.9697605,171.097979 C97.5127605,172.844979 97.0017605,173.752979 95.2167605,174.960979 C93.4167605,176.176979 91.2367605,176.074979 91.2367605,176.074979 L91.2367605,183.646979 L94.9227605,186.626979 L91.2367605,189.599979 L91.2367605,199.911979 C91.2367605,199.911979 94.9267605,197.797979 97.2167605,193.059979 C97.2167605,193.059979 97.3117605,192.801979 97.5267605,192.313979 C97.7287605,193.581979 97.6147605,196.150979 96.1767605,199.448979 C95.0967605,201.931979 93.1287605,204.322979 90.6607605,205.683979 C86.2887605,208.108979 83.0107605,208.339979 79.4947605,207.611979 C75.3787605,206.763979 71.6397605,204.451979 69.0887605,200.415979 C67.2957605,197.581979 66.4907605,194.275979 66.5667605,190.720979 C66.7107605,183.740979 71.9037605,177.717979 77.8987605,175.473979 C78.6267605,175.199979 78.9187605,175.020979 79.9547605,174.925979 C79.4747605,175.250979 78.9247605,175.670979 78.2487605,176.115979 C76.3187605,177.383979 74.6647605,179.909979 73.9587605,181.855979 L85.5917605,176.663979 L85.5917605,192.930979 L76.2087605,197.632979 C77.2787605,199.112979 80.5257605,201.358979 83.3087605,201.674979 C88.0337605,202.196979 90.8057605,200.134979 90.8057605,200.134979 L90.8057605,189.597979 L87.1437605,186.624979 L90.8057605,183.652979 L90.8057605,176.072979 C88.8087605,175.840979 86.3827605,175.180979 84.9637605,174.830979 C82.8757605,174.315979 75.9177605,172.362979 74.8237605,172.200979 C73.7317605,172.037979 72.3837605,172.090979 71.5667605,172.816979 C70.7517605,173.552979 70.2467605,174.846979 70.5937605,176.011979 C70.7897605,176.669979 71.2437605,177.055979 71.5857605,177.431979 C71.5857605,177.431979 71.1837605,177.398979 70.4557605,176.961979 C69.1427605,176.171979 68.1437605,174.631979 68.0227605,172.731979 C67.8697605,170.237979 68.8957605,167.993979 70.9527605,166.485979 C72.7377605,165.338979 74.7577605,164.601979 77.1077605,164.935979 C80.5337605,165.423979 85.1397605,167.359979 89.2447605,168.343979 C90.8347605,168.729979 92.0647605,168.858979 93.1817605,168.206979 C93.7017605,167.829979 94.6177605,166.861979 93.8697605,165.576979 C92.9957605,164.069979 91.3217605,164.103979 89.9027605,163.838979 C91.1247605,163.583979 91.3927605,163.583979 92.3107605,163.668979 L92.3107605,163.671979 Z M78.4777605,196.014979 L78.4777605,180.306979 L73.7527605,182.413979 C73.7527605,182.413979 72.5467605,185.110979 72.7567605,189.023979 C72.9227605,192.083979 74.6327605,195.740979 75.9467605,197.273979 L78.4767605,196.013979 L78.4777605,196.014979 Z M177.387761,209.344979 C176.630761,209.566979 173.347761,208.770979 172.561761,205.369979 C171.794761,202.053979 174.095761,199.809979 177.573761,196.279979 L173.468761,192.529979 L173.468761,185.369979 C173.468761,185.369979 176.484761,183.859979 178.848761,182.387979 C181.211761,180.907979 183.628761,179.304979 183.628761,179.304979 C183.628761,179.304979 185.392761,181.531979 187.385761,181.351979 C190.505761,181.078979 190.361761,178.619979 190.271761,178.037979 C190.801761,178.987979 192.228761,181.814979 186.745761,188.137979 L191.211761,191.741979 L191.211761,201.044979 C191.211761,201.044979 186.024761,203.742979 181.119761,207.322979 C181.119761,207.322979 178.379761,203.896979 176.003761,205.532979 C174.395761,206.636979 175.130761,208.502979 177.385761,209.344979 L177.387761,209.344979 Z M179.533761,182.439979 L179.533761,189.882979 L182.013761,192.042979 C182.013761,192.042979 187.396761,187.732979 189.349761,183.740979 C189.349761,183.740979 186.931761,187.020979 183.674761,186.018979 C180.949761,185.188979 179.534761,182.438979 179.534761,182.438979 L179.533761,182.439979 Z M173.527761,202.174979 C173.527761,202.174979 175.883761,198.277979 179.932761,199.114979 C183.816761,199.921979 185.162761,204.024979 185.162761,204.024979 L185.162761,194.576979 L182.452761,192.221979 C179.479761,195.211979 174.182761,199.536979 173.527761,202.174979 Z M178.807761,125.396979 L180.817761,123.546979 L181.105761,123.871979 L179.147761,125.686979 L179.147761,140.480979 C179.147761,140.480979 175.429761,142.450979 172.832761,143.916979 C170.237761,145.381979 167.465761,147.103979 167.465761,147.103979 L160.641761,141.355979 L158.836761,142.921979 L158.544761,142.596979 L160.440761,140.944979 L160.440761,125.034979 L160.464761,125.034979 C160.464761,125.034979 163.684761,123.579979 166.399761,122.046979 C168.829761,120.676979 171.545761,119.091979 171.545761,119.091979 L178.802761,125.394979 L178.807761,125.396979 Z M166.917761,138.432979 L172.685761,143.649979 L172.685761,127.681979 L166.917761,122.345979 L166.917761,138.434979 L166.917761,138.432979 Z M192.223761,123.896979 L196.558761,119.466979 C196.558761,119.466979 197.155761,119.989979 197.712761,120.263979 C198.029761,120.416979 199.340761,121.093979 200.545761,120.433979 C201.197761,120.073979 201.291761,119.980979 202.005761,119.303979 C202.151761,122.746979 200.498761,125.170979 198.435761,126.173979 C197.591761,126.583979 195.125761,127.371979 192.545761,124.228979 L192.545761,140.144979 L195.290761,142.570979 L197.580761,140.676979 L197.844761,141.010979 L190.672761,146.997979 L185.214761,142.030979 L183.251761,143.880979 L182.928761,143.536979 L185.918761,140.839979 L185.943761,127.099979 L183.651761,124.059979 L181.679761,125.797979 L181.393761,125.480979 L188.341761,119.236979 L192.221761,123.896979 L192.223761,123.896979 Z M210.501761,130.524979 L218.516761,118.868979 C218.516761,118.868979 219.573761,120.118979 221.413761,120.606979 C223.916761,121.256979 226.101761,118.842979 226.101761,118.842979 C225.681761,121.959979 224.101761,125.497979 220.838761,126.036979 C217.962761,126.516979 215.288761,124.280979 215.288761,124.280979 L214.768761,125.085979 L225.896761,141.893979 L228.121761,139.941979 L228.409761,140.265979 L220.774761,146.939979 L210.503761,130.524979 L210.501761,130.524979 Z M203.879761,114.961979 C203.879761,112.441979 202.849761,110.893979 201.499761,111.004979 L210.243761,104.862979 L210.243761,139.624979 L210.245761,139.624979 L212.552761,142.056979 L214.302761,140.540979 L214.576761,140.865979 L207.531761,147.017979 L202.758761,142.537979 L200.848761,144.215979 L200.545761,143.890979 L203.878761,140.987979 L203.878761,114.961979 L203.879761,114.961979 Z M130.793761,114.388979 C130.793761,112.040979 129.840761,110.730979 128.295761,110.696979 C126.075761,110.644979 125.547761,113.780979 125.547761,113.780979 C125.547761,113.780979 125.141761,111.364979 127.162761,109.172979 C128.302761,107.947979 130.422761,106.226979 133.737761,107.022979 C137.162761,107.852979 138.134761,110.508979 138.134761,112.855979 L138.134761,145.192979 C138.134761,145.192979 139.429761,145.346979 140.314761,145.545979 C141.344761,145.758979 142.320761,146.032979 142.320761,146.032979 L142.320761,107.039979 L142.746761,107.039979 L142.746761,112.299979 L149.768761,106.646979 L154.911761,111.219979 L157.308761,109.147979 L157.580761,109.472979 L155.073761,111.630979 L155.073761,141.696979 C154.949761,143.656979 154.633761,145.653979 152.780761,146.800979 C148.650761,149.250979 143.665761,146.424979 139.226761,145.782979 C135.930761,145.292979 130.756761,144.668979 129.459761,147.690979 C129.034761,148.684979 129.062761,150.217979 130.559761,151.220979 C133.559761,153.224979 146.915761,147.854979 151.497761,149.985979 C155.674761,151.931979 155.659761,155.007979 155.014761,157.122979 C153.928761,161.088979 148.921761,161.782979 148.921761,161.782979 C148.921761,161.782979 151.369761,160.359979 150.671761,158.004979 C150.318761,156.814979 149.508761,156.480979 146.888761,156.770979 C141.160761,157.420979 134.318761,160.196979 129.718761,158.270979 C127.348761,157.285979 125.672761,154.320979 125.834761,151.410979 C125.952761,147.220979 130.789761,145.568979 130.789761,145.568979 L130.789761,130.071979 C130.651761,129.455979 128.069761,129.618979 127.506761,130.757979 C126.646761,132.481979 128.572761,133.267979 128.572761,133.267979 C128.572761,133.267979 126.976761,133.507979 125.639761,131.965979 C124.987761,131.212979 123.629761,128.573979 125.396761,126.132979 C126.849761,124.119979 128.592761,123.769979 130.789761,123.528979 L130.789761,114.388979 L130.793761,114.388979 Z M147.747761,124.734979 C147.747761,124.734979 146.782761,125.832979 145.262761,125.832979 C143.742761,125.832979 142.747761,124.727979 142.747761,124.727979 L142.747761,129.490979 C142.747761,129.490979 143.742761,128.385979 145.261761,128.385979 C146.781761,128.385979 147.745761,129.431979 147.745761,129.431979 L147.745761,124.734979 L147.747761,124.734979 Z M147.745761,114.534979 L144.373761,111.570979 L142.746761,112.854979 L142.746761,124.014979 C142.746761,124.014979 143.748761,125.284979 145.268761,125.284979 C146.788761,125.284979 147.745761,124.067979 147.745761,124.067979 L147.745761,114.534979 Z M142.745761,146.150979 C142.745761,146.150979 144.785761,146.690979 146.269761,145.473979 C147.919761,144.110979 147.745761,142.201979 147.745761,142.201979 L147.745761,130.157979 C147.745761,130.157979 146.788761,128.924979 145.268761,128.924979 C143.748761,128.924979 142.746761,130.200979 142.746761,130.200979 L142.746761,146.150979 L142.745761,146.150979 Z"></path>
        </g>
    </g>
</svg>