<?xml version="1.0" encoding="UTF-8"?>
<svg width="256px" height="256px" viewBox="0 0 256 256" version="1.1" xmlns="http://www.w3.org/2000/svg" xmlns:xlink="http://www.w3.org/1999/xlink">
    <!-- Generator: Sketch 48.2 (47327) - http://www.bohemiancoding.com/sketch -->
    <title>techcrunch</title>
    <desc>Created with Sketch.</desc>
    <defs></defs>
    <g id="webpage" stroke="none" stroke-width="1" fill="none" fill-rule="evenodd">
        <g id="techcrunch" fill="#000000" fill-rule="nonzero">
            <path d="M22,56 L127.741875,56 L127.741875,91.2478229 L92.4944503,91.2478229 L92.4944503,161.741476 L57.2470259,161.741476 L57.2470259,91.2478229 L22,91.2478229 L22,56 Z M36.4652844,180.496771 L36.4652844,200.153107 L29.2330407,200.153107 L29.2330407,180.496771 L22,180.496771 L22,174.191871 L43.6967311,174.191871 L43.6967311,180.496771 L36.4652844,180.496771 Z M60.572232,192.364935 L49.0750847,192.364935 C49.260394,194.590241 50.5587547,195.517585 52.4130433,195.517585 C54.0820226,195.517585 55.5656926,195.146169 57.4199812,194.219224 L60.0163041,198.484127 C57.6052905,199.968196 55.1946755,200.709433 52.0420262,200.709433 C46.1077447,200.709433 42.9554938,196.630237 42.9554938,190.50985 C42.9554938,183.833932 46.6644696,180.310266 51.8567169,180.310266 C57.2346719,180.310266 60.5726306,183.833932 60.5726306,191.065777 C60.572232,191.623299 60.572232,191.993918 60.572232,192.364935 Z M51.671009,185.13309 C50.187339,185.13309 49.260394,186.245743 49.0746862,188.100032 L54.6379505,188.100032 C54.2673319,186.245743 53.7110055,185.13309 51.671009,185.13309 Z M72.9971215,200.524522 C67.2485478,200.524522 63.9105892,196.815148 63.9105892,190.325337 C63.9105892,184.390657 66.8775307,180.310664 73.1828293,180.310664 C76.8918051,180.310664 78.931403,181.979644 80.6007808,184.761674 L75.9644615,188.285341 C75.0371179,186.616361 74.4807915,185.688619 72.99752,185.688619 C71.3285407,185.688619 70.4011971,187.357599 70.4011971,190.510647 C70.4011971,193.663694 71.3285407,195.146966 73.1828293,195.146966 C74.4807915,195.146966 75.4081351,194.405729 76.5203894,192.550643 L80.7856916,195.888602 C78.5603859,199.22656 76.3350801,200.524522 72.9971215,200.524522 Z M95.6207976,200.153505 L95.6207976,189.026977 C95.6207976,186.430654 94.6938526,185.874726 93.3954919,185.874726 C91.9118219,185.874726 91.1701861,186.616361 91.1701861,189.026977 L91.1701861,200.153505 L84.4942689,200.153505 L84.4942689,175.860451 L91.1701861,173.264128 L91.1701861,182.16575 C92.4685468,181.238406 93.766509,180.496771 95.9918148,180.496771 C100.257117,180.496771 102.296715,183.278004 102.296715,188.471049 L102.296715,200.153107 L95.6207976,200.153505 Z M118.43058,200.524522 C110.641611,200.524522 106.562416,194.775949 106.562416,187.172688 C106.562416,178.82819 111.384044,173.820853 118.43058,173.820853 C124.735082,173.820853 127.331803,176.602087 129.185693,181.424114 L122.695882,184.020039 C121.76814,181.609424 120.841594,180.126152 118.43058,180.126152 C115.463639,180.126152 114.165676,183.093094 114.165676,187.173485 C114.165676,191.067372 115.463639,194.220818 118.616288,194.220818 C120.841594,194.220818 121.76814,192.922856 123.252209,190.511444 L129.3718,193.664093 C127.517511,197.186564 124.550171,200.524522 118.43058,200.524522 Z M145.690576,188.100032 C144.763631,187.172688 143.836685,186.431052 142.538325,186.431052 C140.869345,186.431052 139.941603,187.172289 139.941603,189.583303 L139.941603,200.152708 L133.265686,200.152708 L133.265686,180.68208 L139.941603,180.68208 L139.941603,182.166149 C141.054655,181.053097 142.353015,180.311461 144.021596,180.311461 C145.505266,180.311461 146.432211,180.683276 147.173449,181.053097 L145.690576,188.100032 Z M161.453424,200.153505 L161.453424,198.855543 C160.340771,199.782488 158.856702,200.524522 156.631396,200.524522 C152.366094,200.524522 150.326496,197.743289 150.326496,192.550643 L150.326496,180.682478 L157.002812,180.682478 L157.002812,191.809007 C157.002812,194.405729 157.929359,194.961258 159.228118,194.961258 C160.52608,194.961258 161.453424,194.220021 161.453424,191.809007 L161.453424,180.682478 L168.129341,180.682478 L168.129341,200.153107 L161.453424,200.153505 Z M184.262808,200.153505 L184.262808,189.026977 C184.262808,186.430654 183.335464,185.874726 182.037502,185.874726 C180.553433,185.874726 179.812196,186.616361 179.812196,189.026977 L179.812196,200.153505 L173.13588,200.153505 L173.13588,180.682877 L179.812196,180.682877 L179.812196,181.981238 C181.110158,181.053894 182.408917,180.312258 184.634223,180.312258 C188.898728,180.312258 190.938725,183.093891 190.938725,188.286935 L190.938725,200.154701 L184.262808,200.153505 Z M203.919542,200.524522 C198.170172,200.524522 194.832213,196.815148 194.832213,190.325337 C194.832213,184.390657 197.799553,180.310664 204.10525,180.310664 C207.814624,180.310664 209.853824,181.979644 211.522803,184.761674 L206.886085,188.285341 C205.959539,186.616361 205.402017,185.688619 203.919542,185.688619 C202.250563,185.688619 201.322821,187.357599 201.322821,190.510647 C201.322821,193.663694 202.250164,195.146966 204.104055,195.146966 C205.402017,195.146966 206.32936,194.405729 207.442013,192.550643 L211.706917,195.888602 C209.482807,199.22656 207.443209,200.524522 203.919542,200.524522 Z M226.729325,200.153505 L226.729325,189.026977 C226.729325,186.430654 225.801981,185.874726 224.504019,185.874726 C223.01995,185.874726 222.278713,186.616361 222.278713,189.026977 L222.278713,200.153505 L215.602796,200.153505 L215.602796,175.860451 L222.278713,173.264128 L222.278713,182.16575 C223.577074,181.238406 224.875435,180.496771 227.10074,180.496771 C231.366043,180.496771 233.405242,183.278004 233.405242,188.471049 L233.405242,200.153107 L226.729325,200.153505 Z M162.989299,126.495247 L233.484546,126.495247 L233.484546,161.741476 L127.741875,161.741476 L127.741875,91.2478229 L162.989299,91.2478229 L162.989299,126.495247 Z M162.989299,56 L233.484945,56 L233.484945,91.2474244 L162.989299,91.2474244 L162.989299,56 Z"></path>
        </g>
    </g>
</svg>