<?xml version="1.0" encoding="UTF-8"?>
<svg width="256px" height="256px" viewBox="0 0 256 256" version="1.1" xmlns="http://www.w3.org/2000/svg" xmlns:xlink="http://www.w3.org/1999/xlink">
    <!-- Generator: Sketch 48.2 (47327) - http://www.bohemiancoding.com/sketch -->
    <title>time</title>
    <desc>Created with Sketch.</desc>
    <defs></defs>
    <g id="webpage" stroke="none" stroke-width="1" fill="none" fill-rule="evenodd">
        <g id="time" fill="#000000" fill-rule="nonzero">
            <path d="M44.5999211,100.487166 L38.4163188,100.456668 L28.836334,100.452073 C28.1719033,100.451237 23.0339622,100.495939 23.0339622,100.495939 L22.9367383,108.187543 L22,108.215116 L22.059706,99.5663959 L22.0294496,96.0144967 C25.2947207,96.1619702 37.0935087,96.26516 49.3360571,96.2726799 C63.6118353,96.2802003 72.8097817,96.1552859 76.4191714,96.0571094 L76.3739833,99.9929411 L76.4441799,108.739838 L75.4727462,108.72857 C75.4793039,108.014598 75.3166148,105.111499 75.3254974,104.828249 C75.3290743,104.722552 75.1229856,100.825992 75.0951455,100.533133 L70.9956021,100.476735 L58.7135209,100.468389 L54.0068325,100.48219 L53.984775,154.437465 C53.984775,154.513922 54.0691003,157.978504 54.0884453,158.695817 C54.5600439,158.757638 59.1118169,159.05176 59.935194,159.054684 L60.2563156,159.05176 L60.2563156,160.519812 C60.0098378,160.519812 59.7064546,160.545149 59.4506889,160.543658 C56.8671939,160.513582 52.6922138,160.22448 49.7258756,160.223642 C46.8063342,160.220718 42.688236,160.486425 39.6456518,160.526111 C39.5633535,160.529035 38.9376519,160.513591 38.7052826,160.502265 L38.6988144,158.935618 C38.7306845,158.939493 38.9158543,158.933531 39.2038944,158.923993 C40.4899934,158.877613 43.6568305,158.683357 44.4802081,158.619438 L44.6105114,158.601554 L44.6088976,153.981829 L44.600015,100.487355 L44.5999211,100.487166 Z M123.252978,96 C123.252978,96 127.86002,109.279307 128.609171,111.222783 C129.359126,113.166259 143.440859,146.766841 143.440859,146.766841 C143.440859,146.766841 150.068625,132.298136 155.972658,116.77038 C157.170813,113.62748 158.739305,109.528299 159.893485,106.209099 C161.587845,101.350826 163.448008,96.0225597 163.448008,96.0225597 L167.077163,96.0246486 C167.077163,96.0246486 167.97356,101.957849 168.289438,104.600676 C169.213669,112.288938 175.260512,143.534953 177.384915,153.814657 C177.91299,156.384375 178.31641,158.609429 178.31641,158.609429 C178.938885,158.650384 181.391266,158.878054 182.848012,158.991689 C183.149768,159.015535 183.964674,159.05643 184.153072,159.05813 L184.154684,160.605142 C184.154684,160.605142 183.498727,160.636887 183.135246,160.636887 C179.883289,160.61632 174.815543,160.343611 171.689046,160.34069 C168.910297,160.339856 166.233213,160.557092 163.452849,160.610567 C162.980851,160.620701 162.504009,160.599836 162.019504,160.599836 L162.019504,159.068282 C162.036792,159.064407 162.407591,159.045628 162.601638,159.05159 C163.961561,158.993108 167.561266,158.66891 167.919098,158.6522 C167.920711,158.092803 167.725857,156.145149 167.434593,154.156134 C167.231664,152.751586 166.887558,150.353991 166.522462,147.990237 C165.736603,143.395159 162.077596,124.348925 160.991591,119.064107 C160.814088,118.195559 160.704367,117.710107 160.704367,117.710107 C160.704367,117.710107 149.332799,144.675213 147.042189,149.988021 C146.817888,150.511074 146.658132,150.877458 146.605286,150.99903 C144.412302,156.115488 142.573519,160.676304 142.573519,160.676304 L139.345352,160.659854 L121.672787,118.534214 L121.25404,117.554538 C121.25404,117.554538 119.706929,125.448343 117.472393,136.586986 C116.291184,142.604994 113.84001,157.65315 113.675011,158.6487 C115.084152,158.840034 117.854429,159.052684 118.610436,159.029291 C118.784303,159.029291 119.078806,159.036445 119.298266,159.036445 L119.296248,160.559644 C118.979968,160.60057 118.242114,160.603103 118.212262,160.602686 C115.541225,160.550046 113.616919,160.359129 110.735702,160.359129 C109.97768,160.359129 105.972537,160.547959 104.558555,160.593505 C103.969968,160.618841 103.138117,160.555501 102.979574,160.56176 L102.981592,159.054857 C103.119571,159.054857 103.399937,158.999296 103.577038,158.993036 C104.855068,158.944152 106.819718,158.760747 108.486643,158.561895 C108.622178,157.820348 110.065222,150.401132 110.525926,147.775018 C112.29895,139.076582 117.528467,110.019692 118.184428,106.102659 C118.758492,101.869792 119.427762,96.6075332 119.487067,96.0268298 C120.868371,96.0502257 123.252978,96.0000926 123.252978,96.0000926 L123.252978,96 Z M99.7205562,160.603121 C97.3222311,160.602704 93.251738,160.230886 90.1990679,160.229213 C87.181496,160.227127 83.0855832,160.592259 80.1390127,160.591425 C79.8876763,160.593511 79.4455364,160.541706 79.2042929,160.541706 L79.2051006,159.010572 C79.786021,158.998351 82.3888788,158.779534 83.1154383,158.73068 C83.9646346,158.673032 84.750493,158.633329 85.0994518,158.528883 C85.0994518,158.528883 85.1072017,156.683165 85.1185286,153.819754 C85.1560562,143.918972 85.2343007,115.936172 85.1420765,103.274333 C85.1337304,101.938715 85.1256824,98.5539249 85.1256824,98.0634604 C84.5738064,98.0099855 83.8024702,97.9410531 83.249384,97.8733741 C82.5571061,97.8395346 79.7081639,97.5867824 79.2236558,97.5604627 L79.2075598,96.0284921 C82.0322953,96.0297454 86.2254311,96.2967019 89.6286726,96.2987908 C92.8822449,96.3004619 97.2928201,96.0397721 100.630709,96.0410252 L100.623853,97.6377505 C100.093358,97.669919 98.8060488,97.7442823 98.7628816,97.7484601 C97.7886252,97.8345211 95.0659534,98.1186063 94.3970832,98.1608013 C94.395873,99.1158287 94.3938044,100.896374 94.3914198,103.087589 C94.3833718,114.425926 94.3567239,144.087333 94.3470365,154.075013 C94.3454239,155.381387 94.3442137,156.58666 94.3425654,157.311494 C94.3425654,158.075181 94.3473346,158.533059 94.3553826,158.563141 C94.3735651,158.619537 96.0799968,158.767441 96.4745401,158.792927 C97.2253032,158.871052 100.326786,159.001817 100.421994,159.021878 L100.628947,159.021878 L100.625668,160.553429 C100.421934,160.552177 99.9281591,160.606069 99.7203982,160.603148 L99.7205562,160.603121 Z M201.360574,100.723625 L201.332257,126.113729 L218.940679,126.178917 C219.021368,126.178917 223.60057,126.050239 223.710702,126.051491 C223.989461,126.05358 227.132904,125.885642 227.253928,125.84719 C227.253928,125.84719 227.305167,125.580235 227.373754,125.388477 C227.631529,123.851911 227.95387,122.393886 228.038186,121.253786 C228.038186,121.253786 228.118875,120.766245 228.126535,120.435788 L229.126611,120.416562 C229.127821,120.53479 229.178655,120.828068 229.173409,121.24208 C229.159399,122.771544 229.038262,125.951624 229.041898,128.031713 C229.045475,131.032571 229.132662,133.740569 229.150427,135.097493 C229.164437,135.48268 229.136716,136.101399 229.136716,136.101399 L228.038207,136.101399 C228.020919,135.959367 228.001484,135.808541 227.977281,135.653131 C227.784456,133.922299 227.625901,132.701571 227.337055,130.938153 C227.328113,130.848761 227.268081,130.530826 227.247096,130.327789 C226.685941,130.293123 225.205394,130.245491 224.414289,130.222092 C224.070576,130.211957 219.779007,130.181137 214.9517,130.17279 C212.970912,130.168319 209.417602,130.25342 207.910025,130.250498 C206.143859,130.24722 203.228351,130.34785 201.326636,130.412591 L201.330213,153.43685 L201.405238,156.403034 L212.094221,156.581849 L227.317227,156.575291 C227.385814,156.575291 230.801152,156.451203 231.869808,156.471681 C232.0925,156.476152 232.549972,156.438684 232.549972,156.438684 C232.651646,155.695885 232.777105,154.188982 232.901349,152.750173 C232.915358,152.583073 233.29549,148.762539 233.29549,147.736489 L234.234245,147.726056 C234.234245,148.698214 234.027709,160.760549 234.027709,160.760549 C232.311969,160.758042 227.045741,160.750415 220.539002,160.658608 C216.598809,160.602629 212.205176,160.600543 207.866407,160.539944 C204.351018,160.489808 200.875968,160.371592 197.709132,160.374513 C193.199716,160.37702 188.781879,160.649814 187.068154,160.650649 C186.675226,160.650649 185.982152,160.62263 185.831678,160.623524 L185.833291,159.106173 L186.147151,159.106173 C187.206529,159.102 190.316885,158.931978 191.939436,158.654146 C191.939436,158.350843 192.04877,154.595069 192.04877,154.517782 C192.04877,154.517782 192.067846,106.842875 192.070231,104.70597 C192.071844,102.399868 192.027875,98.5622125 192.029067,98.2229815 C191.111692,98.1210451 190.783309,98.0658992 190.590878,98.0303884 C189.61743,97.9017147 187.696349,97.7463032 186.668036,97.6773709 C186.375148,97.6840567 186.055645,97.6493787 185.899925,97.6218071 C185.899925,97.6218071 185.898313,96.131196 185.889493,96.1094718 C186.121067,96.1240924 186.601932,96.0919242 187.465249,96.0956859 C189.279017,96.1032063 192.61529,96.354287 196.699098,96.3609713 C199.262422,96.3655676 203.402706,96.2515151 206.365012,96.2168398 C210.588805,96.2189286 213.795177,96.1859247 217.890685,96.1621115 C224.569684,96.1253476 230.27564,96.0848238 232.506546,96.0752147 C233.15726,96.0739614 233.51348,96.071456 233.51348,96.071456 C233.51348,96.1875966 233.508115,96.3258793 233.508115,96.4800372 C233.509325,96.9579686 233.489038,97.7985262 233.495894,98.8304235 C233.513182,102.041838 233.595928,107.090197 233.595928,108.738726 L232.658785,108.741651 L232.648352,108.289621 C232.555737,107.163165 232.349991,103.984337 232.096243,101.307253 C232.071503,101.069124 232.028074,100.881125 232.028074,100.881125 C231.469742,100.863151 229.185987,100.794227 229.145244,100.759973 C229.108133,100.728639 227.287903,100.703991 227.249579,100.686444 C227.233781,100.67768 221.254777,100.639235 215.097798,100.631714 C210.890546,100.625872 206.758328,100.648019 204.219612,100.647601 C203.598348,100.644263 201.360583,100.723637 201.360583,100.723637 L201.360574,100.723625 Z"></path>
        </g>
    </g>
</svg>