<?xml version="1.0" encoding="UTF-8"?>
<svg width="256px" height="256px" viewBox="0 0 256 256" version="1.1" xmlns="http://www.w3.org/2000/svg" xmlns:xlink="http://www.w3.org/1999/xlink">
    <!-- Generator: Sketch 48.2 (47327) - http://www.bohemiancoding.com/sketch -->
    <title>washingtonpost</title>
    <desc>Created with Sketch.</desc>
    <defs></defs>
    <g id="webpage" stroke="none" stroke-width="1" fill="none" fill-rule="evenodd">
        <g id="washingtonpost" fill="#000000" fill-rule="nonzero">
            <path d="M88.1786025,111.449371 L83.65319,114.651971 L83.65319,124.909572 L85.9739144,124.909572 C87.2967273,124.909572 88.3410532,124.979194 88.3410532,125.025609 L84.6278942,130.502518 C82.5856568,133.51946 80.9147353,135.95622 80.984357,136.002635 C81.0307715,136.002635 81.2164294,135.933013 81.4020874,135.770562 C83.2586669,134.308506 84.0941276,134.006812 86.0435361,134.076434 C87.27352,134.146055 87.4823852,134.19247 88.3642605,134.633407 C88.9212343,134.86548 89.6638661,135.329625 89.9887675,135.677733 L90.6385704,136.234707 L95.0479467,133.148144 L99.364494,130.154409 L99.364494,118.318715 L96.510003,118.249093 L93.6090976,118.249093 L96.9277334,113.375572 C99.8750533,109.082232 100.594478,107.898663 99.8750533,108.548466 C99.457323,108.919781 98.2505463,109.360719 97.1830131,109.52317 C95.558506,109.755242 94.4445583,109.476755 93.2377817,108.548466 L92.704015,108.200357 C92.6576006,108.200357 90.6153631,109.662413 88.0625663,111.449371 L88.1786025,111.449371 Z M90.8242283,110.289009 C90.8242283,110.521081 91.9845905,111.356542 92.7504295,111.635029 C93.6787193,111.983138 95.0711539,111.983138 96.4635885,111.635029 C97.0437696,111.472578 97.5311217,111.402956 97.554329,111.402956 C97.6703652,111.5422 96.0226509,112.47049 95.2336046,112.748977 C93.9572062,113.213121 92.5183571,113.1435 91.4508239,112.63294 C90.7081921,112.284832 89.5014154,111.310128 89.5014154,111.101262 C89.5014154,110.962019 90.5225341,110.172973 90.7081921,110.172973 C90.7546066,110.172973 90.8010211,110.219387 90.8010211,110.289009 L90.8242283,110.289009 Z M91.7061036,113.189914 C93.0985382,113.700474 95.3728481,113.421987 96.5796247,112.563319 C96.8581117,112.377661 97.1133913,112.261625 97.1365986,112.284832 C97.1365986,112.284832 95.9762364,114.094997 94.4909728,116.230063 L91.8221398,120.105673 L89.6406589,120.105673 L89.6406589,111.890309 L90.3368762,112.400868 C90.7313993,112.702562 91.3579949,113.050671 91.7293108,113.189914 L91.7061036,113.189914 Z M87.4359707,123.238651 L89.6406589,123.285065 L89.176514,123.911661 L88.7587836,124.538256 L84.0477132,124.538256 L84.0477132,114.791214 L84.604687,114.327069 L85.1616609,113.909339 L85.1616609,118.550788 L85.2080753,123.192236 L87.4359707,123.192236 L87.4359707,123.238651 Z M95.0943611,126.95181 L95.0943611,132.567963 L94.4677656,133.032108 L93.7715483,133.542667 L93.7715483,122.728091 L92.2398702,122.728091 C91.3579949,122.728091 90.6617776,122.681677 90.6617776,122.635262 L91.0563007,121.98546 L91.4508239,121.428486 L95.1175684,121.428486 L95.1175684,126.998224 L95.0943611,126.95181 Z M93.4234396,127.880099 L93.4234396,132.614377 L92.6111861,131.964574 C91.5436529,131.105906 90.6153631,130.757798 89.2229285,130.688176 C87.5984214,130.595347 86.1363651,131.036285 84.5814798,132.080611 C84.2565783,132.312683 83.9780914,132.475134 83.9316769,132.451927 C83.9316769,132.405512 86.60051,128.413866 89.4550009,124.282977 L90.2904617,123.122615 L93.4002324,123.122615 L93.4002324,127.833685 L93.4234396,127.880099 Z M88.3642605,132.892864 C89.3389647,133.055315 90.3136689,133.589081 91.1027152,134.285299 L91.7989325,134.911894 L91.172337,135.329625 L90.5921559,135.724148 L90.128011,135.213589 C89.4317937,134.517371 87.9697373,133.821154 86.8325824,133.635496 C86.0667434,133.496252 85.7418419,133.496252 84.9760029,133.68191 C84.4190291,133.774739 83.8620552,133.913983 83.7228117,133.960397 C83.4907393,134.030019 83.4907393,134.006812 83.7924335,133.797947 C84.1637494,133.449838 85.3009043,132.985693 86.1131578,132.869657 C86.9718259,132.707206 87.5520069,132.707206 88.3410532,132.869657 L88.3642605,132.892864 Z M122.455701,110.845983 C121.109681,112.284832 120.018941,113.514816 120.018941,113.56123 C120.018941,113.886132 120.251013,113.793303 120.645536,113.375572 L121.063267,112.911427 L122.293251,114.07179 L123.523235,115.185737 L123.523235,131.430808 L123.05909,131.987782 C122.664567,132.382305 122.54853,132.59117 122.641359,132.683999 C122.734188,132.823242 122.873432,132.730413 123.267955,132.359098 L123.7321,131.825331 L126.16886,134.053226 L128.605621,136.257914 L131.22804,133.426631 C133.316691,131.24515 133.827251,130.595347 133.711215,130.479311 C133.571971,130.363275 133.40952,130.479311 132.968583,130.943456 L132.411609,131.639673 L131.785013,131.036285 C131.436905,130.711383 130.787102,130.107995 130.346164,129.64385 L129.510704,128.901218 L129.510704,112.563319 L130.021263,112.029552 C130.415786,111.658236 130.555029,111.426164 130.485408,111.263713 C130.415786,111.031641 130.322957,111.12447 129.835605,111.588614 L129.278631,112.168796 L127.143565,110.19618 L124.938877,108.223564 C124.892462,108.223564 123.778514,109.383926 122.432494,110.845983 L122.455701,110.845983 Z M123.755307,113.097085 L125.240571,114.419898 L125.240571,130.920248 L127.329223,132.84645 L129.417875,134.772651 L129.11618,135.167174 C128.95373,135.399246 128.768072,135.561697 128.652036,135.561697 C128.605621,135.561697 127.491673,134.633407 126.261689,133.473045 L123.940965,131.430808 L123.940965,115.069701 L122.664567,113.81651 L121.364961,112.586526 L121.782691,112.168796 C122.014764,111.936723 122.246836,111.751065 122.293251,111.751065 L123.801722,113.097085 L123.755307,113.097085 Z M135.150064,110.938812 C133.177448,113.097085 132.690096,113.677266 132.829339,113.839717 C132.945376,113.978961 133.061412,113.886132 133.525557,113.421987 L134.036116,112.795391 L135.358929,114.048582 L136.704949,115.278566 L136.704949,129.434985 L135.776659,130.479311 L134.84837,131.50043 L135.823074,132.382305 C136.380048,132.892864 137.517203,134.006812 138.375871,134.772651 L139.953963,136.281122 L142.135444,133.960397 C143.342221,132.637584 144.340132,131.50043 144.363339,131.407601 C144.409754,131.314772 144.038438,130.897041 143.551086,130.479311 L142.715625,129.736679 L142.715625,114.419898 L143.481464,113.630852 L144.247303,112.841806 L145.755774,114.23424 L147.264245,115.696297 L147.264245,131.894953 L149.120824,133.589081 L151.511171,135.770562 L152.044937,136.234707 L154.365662,133.774739 C157.382603,130.525725 157.382603,130.525725 157.150531,130.340067 C157.034495,130.224031 156.848837,130.340067 156.407899,130.873834 L155.804511,131.570051 L154.528112,130.363275 L153.228507,129.202912 L153.228507,113.282743 L153.855102,112.586526 C154.180004,112.261625 154.435283,111.890309 154.435283,111.843894 C154.435283,111.611822 154.087175,111.751065 153.576615,112.238417 L153.066056,112.702562 L150.582881,110.474667 C149.236861,109.221476 148.076498,108.200357 148.030084,108.200357 C147.983669,108.200357 146.776893,109.430341 145.361251,110.985226 L142.808454,113.770095 L142.738832,113.166707 C142.669211,112.540111 142.646003,112.540111 140.23245,110.381838 L137.726068,108.17715 C137.679653,108.17715 136.565706,109.407134 135.173271,110.892397 L135.150064,110.938812 Z M138.074176,114.280655 L138.375871,114.512727 L138.375871,130.107995 L137.818897,130.804212 L137.238716,131.50043 L138.793601,132.892864 L140.557352,134.517371 C140.789424,134.749444 140.789424,134.749444 140.371694,135.260003 L139.97717,135.79377 L137.888518,133.821154 L135.567794,131.639673 C135.405343,131.50043 135.498172,131.361186 136.264011,130.595347 L137.122679,129.667057 L137.122679,115.116115 L136.240804,114.303862 L134.84837,113.004256 L134.314603,112.540111 L134.778748,112.075967 L135.242893,111.611822 L136.496084,112.818598 C137.192301,113.514816 137.934933,114.118204 138.120591,114.257447 L138.074176,114.280655 Z M147.125001,113.352365 L148.795923,114.90725 L148.795923,131.152321 L150.83816,132.892864 C151.952108,133.821154 152.857191,134.679822 152.857191,134.749444 L152.393046,135.213589 L151.975315,135.677733 L149.817042,133.728325 L147.635561,131.802124 L147.635561,115.557053 L146.011054,114.094997 L144.432961,112.563319 L144.827484,112.21521 C145.013142,111.983138 145.245215,111.79748 145.291629,111.79748 C145.361251,111.79748 146.173504,112.493697 147.078587,113.375572 L147.125001,113.352365 Z M163.648559,111.983138 L158.450136,115.696297 L158.450136,131.709295 L157.939577,132.219854 C157.568261,132.544755 157.475432,132.753621 157.545054,132.84645 C157.637883,132.939279 157.846748,132.84645 158.171649,132.498341 C158.519758,132.150232 158.751831,132.034196 158.867867,132.103818 L161.606322,134.262092 L164.159118,136.350743 L160.631617,140.458426 C156.7328,144.983838 156.57035,145.192703 156.686386,145.285532 C156.686386,145.355154 157.104116,145.192703 157.545054,144.960631 C158.009199,144.728558 158.937489,144.357243 159.726535,144.101963 C161.002933,143.637818 161.28142,143.591403 162.581026,143.591403 C163.97346,143.591403 164.043082,143.591403 164.90175,144.009134 C165.412309,144.241206 166.154941,144.79818 166.75833,145.355154 L167.686619,146.283444 L170.564318,144.148377 C172.420897,142.755943 173.882953,141.549166 174.741621,140.667291 C176.366129,139.042784 176.737444,138.392981 176.737444,137.186204 C176.737444,136.489987 176.667823,136.304329 176.041227,135.28321 C175.693118,134.586993 175.34501,133.844361 175.275388,133.426631 C175.205766,133.032108 175.159352,128.97084 175.159352,123.029786 L175.159352,113.282743 L175.669911,112.702562 C176.041227,112.284832 176.134056,112.075967 176.041227,111.95993 C175.971605,111.843894 175.809155,111.95993 175.437839,112.308039 L174.973694,112.818598 L172.072788,110.544288 C170.448281,109.291097 169.102261,108.223564 169.009432,108.269979 C168.916603,108.269979 166.50305,109.9409 163.671766,111.983138 L163.648559,111.983138 Z M168.429251,112.865013 L170.819597,114.768007 L170.819597,124.468635 L170.866012,134.146055 L171.167706,134.679822 C171.306949,134.981516 171.956752,135.677733 172.560141,136.234707 C173.186736,136.814888 173.766917,137.441484 173.882953,137.627142 C174.347098,138.509017 174.231062,139.715794 173.650881,140.179939 C173.511638,140.295975 173.48843,140.179939 173.511638,139.715794 C173.604467,138.601846 173.093907,137.928836 171.074877,136.397158 C170.471489,135.886599 170.193002,135.584904 169.914515,135.004723 L169.589613,134.262092 L169.543199,124.747122 L169.543199,115.301773 L167.222475,113.514816 C165.992491,112.516904 164.971372,111.658236 164.971372,111.611822 C164.971372,111.518993 165.737211,110.985226 165.899662,110.985226 C165.969283,110.985226 167.106438,111.843894 168.452458,112.88822 L168.429251,112.865013 Z M167.361718,114.094997 L169.125468,115.487431 L169.125468,130.618554 L168.568495,131.24515 L168.011521,131.871745 L166.224563,130.479311 L164.460813,129.086876 L164.460813,111.820687 L165.040994,112.284832 C165.342688,112.516904 166.433428,113.30595 167.361718,114.048582 L167.361718,114.094997 Z M162.62744,132.892864 L165.180237,134.86548 C165.180237,134.935102 165.087408,135.213589 164.855336,135.515283 L164.437605,136.049049 L161.652736,133.821154 L158.867867,131.570051 L158.867867,115.997991 L159.471255,115.533846 L160.074643,115.069701 L160.144265,123.052993 L160.19068,131.059492 L162.604233,132.916071 L162.62744,132.892864 Z M169.311126,134.424542 C169.543199,135.515283 169.960929,136.049049 171.515815,137.13979 C172.676177,137.97525 173.140322,138.764297 173.140322,139.646172 C173.140322,140.50484 172.769006,141.340301 172.026374,142.082933 L171.422986,142.709528 L170.587525,142.059725 L169.357541,141.201057 C166.92078,139.947866 163.950253,140.133524 160.724446,141.781238 L159.564084,142.338212 L160.376338,141.409923 L165.133823,135.886599 L169.079054,131.361186 L169.125468,132.660792 L169.287919,134.470957 L169.311126,134.424542 Z M166.062112,142.77915 C166.479843,143.011222 167.268889,143.568196 167.802656,144.055548 L168.730945,144.983838 L168.313215,145.30874 C168.081143,145.540812 167.84907,145.680055 167.802656,145.680055 C167.733034,145.680055 167.338511,145.30874 166.874366,144.844595 C165.621175,143.684232 164.600056,143.173673 163.161207,143.104051 C162.070466,143.011222 160.561996,143.266502 159.610499,143.637818 C159.00711,143.916305 158.983903,143.800269 159.564084,143.405746 C160.910104,142.639906 162.46499,142.245383 164.089497,142.315005 C165.087408,142.315005 165.389102,142.407834 166.038905,142.732735 L166.062112,142.77915 Z M197.415099,111.704651 L192.587992,115.185737 L192.587992,130.781005 L192.123847,131.24515 C191.775738,131.570051 191.729324,131.709295 191.84536,131.848538 C191.938189,131.987782 192.077432,131.91816 192.402334,131.546844 L192.796857,131.036285 L196.277944,133.658703 C198.180938,135.143967 199.75903,136.327536 199.828652,136.327536 C199.875066,136.327536 201.986926,134.795858 204.470101,132.916071 L209.111549,129.481399 L209.111549,113.81651 L209.714938,113.213121 C210.179083,112.679355 210.271912,112.516904 210.109461,112.424075 C209.970217,112.308039 209.877388,112.377661 209.52928,112.795391 C209.297207,113.097085 209.065135,113.329158 208.972306,113.329158 C208.902684,113.329158 207.394213,112.168796 205.607256,110.776361 L202.28862,108.223564 C202.242205,108.223564 200.060724,109.801657 197.368684,111.704651 L197.415099,111.704651 Z M204.841417,123.470723 L204.841417,132.103818 L204.284443,132.567963 L203.750676,133.032108 L203.681054,124.282977 L203.63464,115.557053 L201.081843,113.538023 L198.482632,111.449371 L199.039606,111.054848 L199.573372,110.637117 L202.218998,112.725769 L204.864624,114.814421 L204.864624,123.49393 L204.841417,123.470723 Z M201.012221,113.955753 L203.263324,115.742711 L203.263324,132.243061 L200.896185,130.432896 L198.529046,128.645939 L198.482632,120.38416 C198.482632,113.886132 198.482632,112.099174 198.645082,112.145588 L201.035429,113.955753 L201.012221,113.955753 Z M197.415099,132.59117 L200.710527,135.143967 L200.246382,135.515283 L199.851859,135.886599 L196.417187,133.26418 L192.982515,130.664969 L192.982515,115.464224 L193.539489,115.046494 L194.096463,114.651971 L194.096463,122.356776 L194.166084,130.015166 L197.415099,132.637584 L197.415099,132.59117 Z M213.474511,110.938812 C211.525103,113.073878 211.014543,113.677266 211.153787,113.839717 C211.246616,113.955753 211.385859,113.886132 211.850004,113.421987 L212.383771,112.818598 L213.683376,114.048582 L215.006189,115.278566 L215.006189,129.434985 L214.077899,130.479311 L213.14961,131.50043 L214.124314,132.382305 C214.658081,132.892864 215.818443,134.006812 216.677111,134.772651 L218.231996,136.281122 L220.436684,133.960397 C221.643461,132.637584 222.641372,131.50043 222.66458,131.407601 C222.66458,131.291564 222.339678,130.873834 221.852326,130.479311 L220.993658,129.690265 L220.993658,114.419898 L221.782704,113.654059 L222.571751,112.865013 L224.080222,114.257447 L225.588692,115.719504 L225.588692,131.91816 L227.445272,133.589081 L229.835618,135.770562 L230.392592,136.234707 L232.713316,133.797947 C235.683843,130.548933 235.730258,130.548933 235.498185,130.31686 C235.405356,130.200824 235.266113,130.31686 234.755554,130.850627 L234.175373,131.546844 L232.898974,130.340067 L231.599368,129.179705 L231.599368,113.259536 L232.17955,112.563319 C232.527658,112.238417 232.806145,111.867101 232.806145,111.820687 C232.806145,111.588614 232.458036,111.727858 231.947477,112.21521 L231.436918,112.679355 L228.953743,110.451459 C227.63093,109.198268 226.470568,108.17715 226.400946,108.17715 C226.400946,108.17715 225.170962,109.407134 223.75532,110.962019 L221.156109,113.746888 L221.086487,113.1435 C221.040073,112.516904 221.040073,112.516904 218.603312,110.358631 C217.280499,109.128647 216.143344,108.153942 216.120137,108.153942 L213.56734,110.86919 L213.474511,110.938812 Z M215.145433,113.120293 L216.677111,114.559142 L216.677111,130.084788 L216.09693,130.781005 L215.539956,131.477222 L217.071634,132.869657 L218.835384,134.494164 C219.067457,134.726236 219.067457,134.726236 218.649726,135.236796 L218.231996,135.770562 L216.143344,133.797947 L213.82262,131.616466 C213.683376,131.477222 213.776205,131.337979 214.518837,130.57214 L215.400712,129.64385 L215.400712,115.069701 L214.008278,113.839717 C213.265646,113.1435 212.662258,112.563319 212.662258,112.516904 C212.662258,112.354453 213.358475,111.588614 213.451304,111.658236 C213.520926,111.658236 214.263557,112.354453 215.145433,113.120293 Z M226.052837,113.81651 L227.097163,114.814421 L227.097163,131.059492 L228.72167,132.451927 L230.7407,134.308506 L231.204845,134.703029 L230.7407,135.167174 L230.276556,135.631319 L228.095075,133.705118 L225.936801,131.778916 L225.936801,115.533846 L224.312294,114.07179 L222.734201,112.540111 L223.198346,112.122381 L223.616077,111.658236 L224.312294,112.284832 L226.02963,113.839717 L226.052837,113.81651 Z M108.531355,158.583283 L104.818196,162.528514 L104.818196,159.650816 C104.771782,157.237263 104.725367,156.796325 104.586124,156.796325 C104.400466,156.796325 104.354051,157.26047 104.354051,159.882889 L104.354051,162.992659 L103.727456,163.688876 L103.077653,164.431508 L103.077653,159.395536 L100.524856,157.074812 C99.0860071,155.751999 97.9024376,154.684466 97.8560231,154.684466 C97.8096087,154.684466 96.5332103,156.007279 95.0247394,157.608579 C92.9360875,159.836474 92.3094919,160.555899 92.4255281,160.671935 C92.5647716,160.787971 92.7272223,160.671935 93.1217454,160.20779 L93.655512,159.627609 L94.8622887,160.787971 L96.0226509,161.901919 L96.0226509,167.86618 L95.2568119,167.912595 C93.7251338,168.051838 92.3559064,169.072957 91.6596891,170.581428 C91.3347877,171.277645 91.2883732,171.463303 91.2883732,173.134225 C91.2883732,175.269291 91.4276166,175.454949 91.9845905,174.526659 C92.6808078,173.459126 93.84117,172.832531 95.3264336,172.832531 L96.0690654,172.832531 L96.0690654,183.600692 L94.9551177,184.180873 C92.9128802,185.155577 91.3115804,187.081778 90.5457414,189.472124 C90.3136689,190.214756 89.942353,192.140957 90.0119748,192.256993 C90.0583893,192.256993 90.3368762,192.024921 90.7081921,191.792849 C92.3326991,190.400414 93.4234396,189.750611 94.9551177,189.240052 L96.0226509,188.868736 L96.0690654,196.387883 L96.1386871,203.90703 L99.3180795,200.95971 C101.08183,199.335203 102.567094,198.01239 102.567094,198.035597 C102.659923,198.035597 103.147275,198.499742 103.727456,199.010301 L104.794989,199.938591 L104.794989,188.938358 L105.096683,189.031187 C105.932144,189.263259 107.069299,189.959476 107.927967,190.77173 L108.856257,191.653605 L113.683363,188.056482 L118.464056,184.45936 L118.464056,160.20779 L115.377492,157.422921 L112.244514,154.591637 L108.531355,158.536868 L108.531355,158.583283 Z M96.3475523,159.859681 L97.6007435,161.089665 L97.6007435,167.842973 L96.417174,167.842973 L96.417174,161.623432 L95.9530292,161.205701 L94.699838,160.045339 L93.9107917,159.349122 L94.3285221,158.884977 C94.5605945,158.652905 94.792667,158.513661 94.9087032,158.583283 L96.3011378,159.882889 L96.3475523,159.859681 Z M111.432261,160.486277 L113.103182,162.041162 L113.103182,187.940446 L112.523001,188.404591 L111.919613,188.91515 L111.919613,162.644551 L110.202277,161.066458 C109.227573,160.184583 108.438526,159.441951 108.438526,159.395536 C108.438526,159.349122 108.624184,159.163464 108.856257,158.931392 C109.320402,158.397625 109.041915,158.235174 111.455468,160.486277 L111.432261,160.486277 Z M110.34152,161.80909 L111.501882,162.853416 L111.548297,174.410623 L111.548297,186.014245 L110.898494,185.457271 C109.506059,184.250494 107.64948,183.415034 105.932144,183.182961 C105.537621,183.182961 105.11989,183.066925 105.003854,183.043718 C104.771782,182.974096 104.771782,182.393915 104.771782,173.111017 L104.771782,163.224732 L106.396289,161.484188 L108.020796,159.766852 L108.600977,160.277412 C108.902671,160.509484 109.691717,161.205701 110.34152,161.80909 Z M104.377259,181.488832 L104.377259,199.126338 L103.727456,198.499742 L103.077653,197.849939 L103.077653,165.104518 L103.681041,164.477923 L104.330844,163.851327 C104.330844,163.851327 104.377259,171.811412 104.377259,181.535247 L104.377259,181.488832 Z M97.6007435,186.524804 L97.6007435,201.864792 L96.9973551,202.421766 L96.417174,203.001947 L96.417174,172.391593 L95.1407756,172.484422 C93.6787193,172.554044 92.9360875,172.809323 92.2862847,173.482333 C91.8221398,173.946478 91.7525181,173.853649 92.0542122,173.134225 C92.5183571,172.066691 93.2145744,171.463303 94.2124859,171.277645 C94.4445583,171.208023 95.3264336,171.161609 96.1386871,171.161609 L97.6239507,171.161609 L97.6239507,186.524804 L97.6007435,186.524804 Z M106.767605,187.592337 C107.695894,187.963653 108.693806,188.683078 109.366816,189.448917 C109.691717,189.84344 109.946997,190.214756 109.946997,190.261171 C109.946997,190.353999 109.714925,190.609279 109.390023,190.841352 L108.809842,191.235875 L108.06721,190.470036 C107.278164,189.634575 106.257045,189.007979 105.282341,188.729492 L104.748575,188.567042 L104.748575,187.081778 L105.398377,187.197814 C105.816108,187.244229 106.396289,187.429887 106.790812,187.56913 L106.767605,187.592337 Z M95.9994436,187.82441 L95.9994436,188.451006 L94.9087032,188.799114 C93.655512,189.17043 92.5415643,189.727404 91.7989325,190.330792 C91.5204456,190.562865 91.2651659,190.702108 91.2187515,190.678901 C91.1027152,190.51645 92.3791136,189.054394 93.0289165,188.520627 C93.84117,187.894032 94.1428642,187.731581 95.0247394,187.40668 C95.9530292,187.035364 95.9994436,187.035364 95.9994436,187.777995 L95.9994436,187.82441 Z M163.184414,157.93348 L160.283509,161.020043 L160.283509,164.733202 L158.891074,164.733202 L157.962784,166.125637 C157.452225,166.914683 157.034495,167.587693 157.034495,167.634108 C157.034495,167.70373 157.730712,167.750144 158.659002,167.750144 L160.283509,167.750144 L160.283509,187.244229 L159.819364,187.801203 C159.215975,188.543834 159.355219,188.822321 160.005022,188.172519 L160.515581,187.708374 L161.072555,188.126104 L163.625352,190.168342 L165.621175,191.792849 L166.688708,190.632486 C170.866012,186.176696 170.912426,186.083867 170.773183,185.921416 C170.657147,185.782172 170.54111,185.875001 170.030551,186.385561 L169.427163,187.081778 L167.84907,185.80538 L166.224563,184.575396 L166.224563,167.750144 L168.823774,167.750144 L169.752064,166.35771 C170.216209,165.661492 170.680354,164.965275 170.680354,164.872446 C170.680354,164.802824 169.8681,164.733202 168.429251,164.733202 L166.224563,164.733202 L166.224563,159.766852 C166.224563,157.051605 166.178149,154.823709 166.131734,154.823709 C166.038905,154.823709 164.692885,156.216144 163.114792,157.93348 L163.184414,157.93348 Z M161.838394,162.389271 L161.838394,164.709995 L160.654825,164.709995 L160.654825,161.13608 L161.235006,160.579106 C161.5367,160.254204 161.791979,160.022132 161.815187,160.022132 C161.815187,160.022132 161.861601,161.066458 161.861601,162.342856 L161.838394,162.389271 Z M161.838394,177.172285 L161.838394,186.594426 L164.019875,188.358177 L166.340599,190.214756 C166.479843,190.284378 165.806833,191.073424 165.57476,191.050217 C165.481931,191.050217 164.367984,190.214756 163.068378,189.193637 L160.747654,187.337058 L160.701239,177.520394 L160.654825,167.70373 L161.861601,167.70373 L161.861601,177.149078 L161.838394,177.172285 Z M126.16886,167.169963 L121.295339,170.65105 L121.295339,186.246317 L120.831194,186.710462 C120.506293,187.035364 120.436671,187.174607 120.552707,187.313851 C120.668744,187.453094 120.78478,187.383472 121.109681,187.012156 L121.527412,186.501597 L124.706804,188.891943 C126.470555,190.214756 128.02544,191.44474 128.187891,191.583983 C128.466378,191.816056 128.512792,191.816056 128.791279,191.653605 L133.479142,188.172519 L137.888518,184.923504 L137.888518,169.328237 L138.445492,168.701641 C138.863223,168.237496 138.979259,168.005424 138.909637,167.935802 C138.793601,167.819766 138.607943,167.935802 138.283042,168.307118 C138.050969,168.585605 137.772482,168.817677 137.726068,168.817677 C137.656446,168.817677 136.171182,167.657315 134.407432,166.264881 L131.112003,163.712084 C131.042382,163.712084 128.791279,165.290176 126.16886,167.19317 L126.16886,167.169963 Z M131.506526,168.655227 L133.595178,170.279734 L133.595178,187.545923 L133.014997,188.010068 L132.458023,188.474213 L132.411609,179.748289 L132.411609,171.045573 L129.78919,168.956921 L127.236394,166.914683 L127.77016,166.450538 L128.303927,166.056015 L128.907315,166.52016 L131.529734,168.608812 L131.506526,168.655227 Z M129.812398,169.490687 L131.993879,171.184816 L131.993879,179.353766 C131.993879,183.855971 131.993879,187.545923 131.924257,187.545923 C131.924257,187.545923 130.833516,186.780084 129.603532,185.828587 L127.282808,184.157665 L127.282808,175.872679 C127.282808,168.956921 127.329223,167.610901 127.514881,167.70373 L129.835605,169.513895 L129.812398,169.490687 Z M126.145653,188.010068 C129.278631,190.493243 129.394667,190.609279 129.162595,190.841352 C128.69845,191.375118 128.628828,191.351911 125.101327,188.659871 L121.689862,186.060659 L121.689862,170.859915 L122.246836,170.442184 L122.780603,170.047661 L122.827017,177.706052 L122.827017,185.434064 L126.122446,187.986861 L126.145653,188.010068 Z M145.082764,166.937891 L145.03635,166.937891 C147.542732,165.150933 149.631384,163.688876 149.677798,163.688876 L150.327601,164.0834 C150.629295,164.315472 151.163062,164.617166 151.487963,164.779617 C152.717947,165.336591 155.363573,165.034897 156.663179,164.176229 C156.918458,163.944156 157.150531,163.874534 157.196945,163.944156 C157.220152,163.990571 155.758096,166.195259 153.901517,168.817677 L150.652503,173.691199 C150.652503,173.714406 151.952108,173.784027 153.530201,173.784027 L156.384692,173.784027 L156.384692,185.596515 L152.02173,188.659871 L147.612354,191.746434 L146.962551,191.18946 C145.616531,189.982684 144.131267,189.495331 142.205066,189.564953 C140.859046,189.634575 140.093207,189.936269 138.816808,190.910973 C138.352663,191.235875 137.95814,191.514362 137.888518,191.467947 C137.818897,191.421533 139.489818,188.938358 141.532056,185.96783 L145.291629,180.467714 C145.291629,180.444506 144.200889,180.398092 142.878076,180.398092 L140.441315,180.398092 L140.441315,170.186905 L145.082764,166.937891 Z M149.167239,166.868269 L149.167239,166.845062 C148.795923,166.682611 148.308571,166.334502 148.006877,166.10243 L147.542732,165.638285 L146.916136,166.10243 L146.312748,166.52016 L147.008965,167.146756 C147.357074,167.518072 148.006877,167.935802 148.4014,168.12146 C149.051203,168.446361 149.283275,168.446361 150.443637,168.446361 C151.604,168.446361 151.836072,168.399947 152.532289,168.051838 C153.274921,167.726937 154.690563,166.798647 154.504905,166.798647 L153.414165,167.077134 C152.346631,167.332414 150.861368,167.425243 150.16515,167.262792 C149.956285,167.216378 149.49214,167.03072 149.167239,166.868269 Z M147.264245,167.86618 L146.521613,167.355621 C146.498406,167.355621 146.428784,169.2122 146.428784,171.463303 L146.428784,175.594193 L148.749509,175.594193 L151.418342,171.718583 C152.926812,169.583516 154.087175,167.819766 154.087175,167.773351 C154.063967,167.750144 153.808688,167.86618 153.530201,168.051838 C152.648325,168.608812 151.534378,168.910506 150.374016,168.910506 C149.120824,168.910506 148.262156,168.632019 147.264245,167.86618 Z M142.158651,174.085722 L142.205066,174.085722 C142.205066,171.532925 142.158651,169.444273 142.112237,169.444273 C142.042615,169.444273 141.764128,169.676345 141.462434,169.908418 L140.90546,170.418977 L140.90546,180.049983 L145.662945,180.049983 L146.12709,179.353766 L146.591235,178.72717 L142.158651,178.72717 L142.158651,174.085722 Z M151.905694,182.533158 L151.928901,182.556366 L151.928901,176.917005 L148.447814,176.917005 L147.983669,177.520394 L147.519525,178.146989 L149.144032,178.216611 L150.768539,178.216611 L150.768539,183.554277 C150.768539,186.524804 150.791746,188.891943 150.83816,188.891943 C150.884575,188.891943 151.139855,188.7527 151.441549,188.520627 L151.905694,188.172519 L151.905694,182.533158 Z M150.374016,183.415034 L150.350808,183.391826 L150.350808,178.587927 L147.148209,178.587927 L143.992024,183.229376 C142.274688,185.758965 140.882253,187.870824 140.882253,187.917239 C140.90546,187.940446 141.207154,187.801203 141.508849,187.615545 C143.806366,186.037452 146.219919,185.689344 148.308571,186.687255 C148.842338,186.919327 149.515348,187.383472 149.817042,187.685166 L150.374016,188.24214 L150.374016,183.415034 Z M145.268422,188.381384 L145.291629,188.358177 C144.10806,188.126104 142.785247,188.311762 141.624885,188.822321 C140.394901,189.356088 140.278865,189.518539 141.323191,189.286466 C142.437138,188.984772 143.17977,188.984772 144.154474,189.216845 C145.268422,189.495331 146.243126,189.959476 146.939344,190.655694 L147.565939,191.18946 L148.14612,190.77173 L148.703094,190.377207 L148.053291,189.773818 C147.241038,189.077601 146.196712,188.520627 145.268422,188.381384 Z M127.120357,54.313137 L127.120357,54.2667225 C128.744864,52.595801 130.090885,51.2033664 130.137299,51.2033664 C130.206921,51.2033664 130.253335,54.498795 130.253335,58.5368554 L130.29975,65.8471371 L132.620474,63.3871693 L135.034028,60.8343725 L137.586824,63.1550969 L140.093207,65.4294068 L140.557352,64.9188474 C140.90546,64.5475315 141.067911,64.4779098 141.137533,64.5475315 C141.276776,64.686775 141.183947,64.8260184 140.90546,65.1509198 L140.441315,65.5686502 L140.348486,76.0583244 C140.302072,85.5268798 140.302072,86.6176202 140.069999,87.3138375 C139.072088,90.6788879 136.333633,93.2316847 132.295573,94.6241193 C130.926345,95.0650569 130.369372,95.2043004 130.369372,94.972228 C130.369372,94.9258135 130.601444,94.7633628 130.833516,94.6241193 C131.576148,94.2063889 133.014997,92.7443326 133.479142,91.8856646 C134.407432,90.0987068 134.314603,90.8413386 134.407432,79.0056443 L134.407432,68.3999339 L132.829339,66.9146704 L131.204832,65.452614 L130.694273,65.9863806 L130.230128,66.5665617 L130.230128,82.5099381 L131.112003,83.2989844 L131.970671,84.0880307 L129.882019,86.3623406 L127.561295,88.7991011 C127.445259,88.9383446 126.911492,88.5206142 124.892462,86.6640347 C123.500027,85.3644291 122.339665,84.2736886 122.339665,84.2040669 C122.293251,84.1112379 122.710981,83.5774713 123.267955,82.9972902 L124.242659,81.929757 L124.242659,57.4229077 L127.120357,54.313137 Z M125.194156,83.4150206 L125.170949,83.3453989 L125.75113,82.6491816 L125.75113,69.5138816 L125.704716,56.3785817 L125.170949,56.9587628 L124.637182,57.5157367 L124.637182,82.2546584 L124.358695,82.4867309 C124.196245,82.6259743 123.801722,83.066912 123.430406,83.4846423 L122.80381,84.1808597 L124.985291,86.2230971 C126.215275,87.3834593 127.259601,88.311749 127.306015,88.311749 C127.375637,88.311749 127.60771,88.0796766 127.839782,87.8476042 L128.257512,87.4298738 L126.493762,85.8053667 L124.637182,84.1808597 C124.613975,84.1576524 124.869255,83.8095438 125.194156,83.4150206 Z M134.407432,66.1024168 L134.407432,66.0327951 C132.202744,64.0137649 132.434816,64.1298011 131.970671,64.6403605 L131.552941,65.1045053 L132.481231,66.0327951 L134.105738,67.5412659 L134.801955,68.1910688 L134.801955,78.3790487 C134.801955,88.2885418 134.755541,89.7041836 134.33781,90.7485096 C134.291396,91.0502038 134.152152,91.3751052 134.105738,91.5143487 C133.873665,92.1409442 135.358929,90.3539865 135.591001,89.6577692 L135.892696,88.8919301 L135.93911,78.2862198 L135.985525,67.6108877 L134.407432,66.1024168 Z M104.934232,51.8763764 L104.911025,51.9692054 L105.746486,51.8531692 C106.141009,51.829962 107.858345,52.1316561 108.600977,52.3637286 C109.065122,52.5493865 110.457556,53.1295676 111.710748,53.7097487 C114.193923,54.9165254 115.725601,55.450292 117.210864,55.5663282 C119.485174,55.7519861 121.805899,54.7772819 122.734188,53.1991893 C122.896639,52.8510807 123.082297,52.6190082 123.128712,52.6190082 C123.267955,52.6190082 123.082297,54.6844529 122.850225,55.5199137 C122.1308,58.1887467 120.11177,60.2773987 117.558973,60.8575798 L116.90917,60.9968232 L116.90917,81.5352339 L117.721424,81.071089 C119.531589,79.9571413 121.388168,77.7060387 122.316458,75.547765 C123.035883,73.9232579 123.105504,74.1553304 122.687774,76.592091 C121.829106,81.3263687 118.9282,85.7125377 115.331078,87.7315679 C112.755074,89.170417 109.181158,89.5649402 106.164216,88.8223084 C100.455234,87.2906303 96.7884899,82.5563526 96.1851016,75.8262519 C95.5817133,69.2353947 98.320168,64.4314953 105.746486,59.2562799 L106.489118,58.6993061 L105.607243,58.5832699 C104.400466,58.3511974 103.263311,58.3511974 102.195778,58.5832699 C99.8518461,59.0938292 98.1113028,60.8111653 97.647158,63.0854751 C97.4615,63.9905576 97.3222565,64.1065939 97.1830131,63.4103766 C96.9973551,62.3428433 97.4150855,59.6043886 98.0648883,57.8406381 C99.2948723,54.4291733 101.75484,52.3405213 104.934232,51.8763764 Z M122.339665,56.123302 C122.478909,55.7519861 122.571738,55.357463 122.571738,55.2878413 C122.525323,55.1950123 122.270043,55.5199137 121.968349,55.9840586 C120.506293,58.211954 118.440848,59.2330727 115.470321,59.2330727 C113.706571,59.2330727 112.685452,59.0010003 109.436438,57.8406381 C106.535532,56.7963121 105.746486,56.6106542 104.400466,56.6106542 C102.706337,56.6106542 101.615597,56.9819701 100.292784,58.0030888 C99.6893954,58.4440264 98.5522405,59.836461 98.6682767,59.9524972 C98.6914839,59.9757045 99.0860071,59.7436321 99.5037374,59.3955234 C101.778047,57.7710163 104.655746,57.6085656 108.415319,58.9313785 C112.755074,60.5094711 114.333166,60.880787 116.073709,60.695129 C119.090651,60.3934349 121.45779,58.6296844 122.339665,56.123302 Z M108.879464,59.5347669 L108.902671,59.5811814 L107.138921,58.9545858 C106.999677,58.9545858 106.024973,59.9757045 105.235927,60.9039942 C103.286518,63.2943403 102.265399,65.6614792 101.801255,68.6320064 C101.49956,70.6742438 101.615597,73.0413827 102.079741,74.8515477 C102.590301,76.9401996 103.843492,79.2145095 105.096683,80.4212862 L105.491206,80.7926021 L106.187424,80.4212862 L106.883641,80.0499703 L106.953263,72.2987509 L106.953263,64.5707387 L106.210631,64.9652619 C105.676864,65.2669561 105.467999,65.359785 105.351963,65.1973343 C105.259134,65.1277126 105.259134,65.0348836 105.259134,65.0348836 C105.305548,64.9884691 106.883641,64.1298011 108.786635,63.1318896 L112.546208,61.0432377 C112.824695,60.8575798 112.824695,60.8575798 111.664333,60.4630566 C111.060945,60.3006059 109.807754,59.8596683 108.879464,59.5347669 Z M115.30787,61.0896522 L115.261456,61.0200305 L113.636949,60.9272015 L113.172804,60.8575798 L113.126389,68.9337006 L113.126389,77.0562358 L109.506059,79.0520588 L105.885729,81.0014673 L106.512325,81.3959904 C108.090418,82.3939019 109.343609,82.7188033 111.664333,82.7188033 C113.474498,82.7188033 114.449202,82.5563526 115.841637,82.022586 L116.584269,81.7440991 L116.584269,61.0896522 L115.30787,61.0896522 Z M100.872965,64.2226301 L100.849758,64.2226301 C101.313902,63.6656562 101.592389,63.1550969 101.545975,63.1550969 C101.476353,63.0622679 99.9214678,64.8028112 99.2252505,65.7775154 C98.3433753,67.0539138 97.368671,69.1193585 96.9509406,70.6510366 C96.6260392,71.7649843 96.6260392,72.1827147 96.6260392,73.9928797 C96.602832,78.8431936 97.9952666,82.5099381 100.919379,85.2948073 C102.659923,86.9425216 104.516502,87.8708114 107.069299,88.4277852 C108.833049,88.7526867 111.478675,88.7526867 112.87111,88.2885418 C115.516736,87.54591 117.930289,85.6893305 119.647625,83.1365337 C120.042148,82.5563526 120.343842,82.0922077 120.343842,82.0457932 C120.297428,82.0457932 119.763661,82.5563526 119.067444,83.2061554 C116.700305,85.4804653 114.495617,86.8728999 112.476587,87.2906303 C111.037738,87.638739 108.600977,87.5227027 107.022884,87.0585579 C103.541798,86.0374391 100.896172,83.7631293 99.271665,80.5141151 C98.0648883,78.0773546 97.6239507,75.8262519 97.7399869,72.8093102 C97.8560231,69.4906744 98.6682767,67.3091935 100.872965,64.2226301 Z M108.531355,71.4168756 C108.531355,67.1931573 108.531355,63.7584852 108.484941,63.7584852 L107.90476,64.0369721 L107.347786,64.3154591 L107.347786,72.020264 C107.347786,76.1975678 107.370993,79.6786544 107.417408,79.6786544 L107.997589,79.3769602 L108.531355,79.1448878 L108.531355,71.4168756 Z M148.447814,64.7099822 L148.4014,64.8028112 C151.232684,62.7141592 153.62303,61.0200305 153.669444,61.0200305 C153.739066,61.0432377 155.317158,63.54962 158.891074,69.2818092 L159.123146,69.6763324 L154.087175,73.3894913 L149.07441,77.1026503 L149.144032,78.6111212 L149.144032,80.119592 L151.812865,82.2082439 C153.298128,83.3686061 154.504905,84.3433104 154.551319,84.3433104 C154.597734,84.3433104 155.293951,83.647093 156.082998,82.7188033 C156.918458,81.836928 157.66109,81.1407107 157.707505,81.1407107 C157.800334,81.1407107 157.893163,81.1871252 157.893163,81.2567469 C157.985992,81.3959904 150.977404,89.0079663 150.791746,89.0079663 C150.768539,89.0079663 149.097617,87.6851534 147.125001,86.0606464 L143.481464,83.1365337 L143.063734,83.6006786 C142.738832,83.9719945 142.576382,84.0648234 142.413931,83.9719945 C142.228273,83.8559582 142.274688,83.7863365 142.738832,83.3221916 L143.272599,82.8116323 L143.272599,68.4927629 L148.447814,64.7099822 Z M152.973227,67.9589963 L152.996434,67.9589963 C151.650414,65.7543082 150.490052,63.9441432 150.490052,63.8977287 C150.350808,63.735278 149.49214,64.4779098 149.561762,64.6635677 C149.584969,64.7331894 150.67571,66.5665617 152.02173,68.7248354 L154.435283,72.6236523 L154.853014,72.2755436 C155.131501,72.0898857 155.317158,71.9042277 155.363573,71.9042277 C155.38678,71.9042277 154.29604,70.0940627 152.973227,67.9589963 Z M151.812865,69.1193585 L151.789657,69.072944 L149.32969,65.1277126 C149.097617,64.8956402 149.097617,65.452614 149.097617,70.6510366 L149.097617,76.4528475 L149.468933,76.2207751 C149.863456,75.9887026 153.808688,73.0645899 153.994346,72.9021392 C154.04076,72.8325175 153.066056,71.1151815 151.812865,69.1193585 Z M148.14612,84.784248 L148.14612,84.7610407 L144.897106,82.0922077 L144.850692,74.9675839 L144.78107,67.8429601 L144.247303,68.2606905 L143.713537,68.6552136 L143.713537,82.7420105 L147.264245,85.5965015 L150.814953,88.4741997 L151.116647,88.1028838 C151.279098,87.8940186 151.395134,87.6619462 151.395134,87.5691172 C151.395134,87.5691172 149.956285,86.2695116 148.14612,84.784248 Z M30.8102962,90.9341676 L30.8567106,90.980582 C32.4812177,90.307572 32.6668756,90.400401 31.4136845,91.3286907 C29.9516281,92.3962239 29.1393746,93.9743165 29.2554108,95.5988235 C29.3250326,96.596735 29.6731412,97.2233306 30.7174672,98.3836928 C31.1816121,98.8942521 31.7153787,99.5672622 31.8778294,99.8689564 C32.4348032,100.820453 32.7132901,102.259302 32.7132901,104.162296 L32.7132901,105.856425 L35.9623043,102.537789 L39.2113184,99.2191536 L42.5299542,102.468168 C44.3865337,104.278333 45.941419,105.740389 46.0110408,105.786804 C46.0574553,105.786804 47.4963044,104.347954 49.2136404,102.537789 C50.9077692,100.797246 52.3698255,99.2887753 52.41624,99.2887753 C52.509069,99.2423608 53.9247109,100.611588 55.6188396,102.305717 L58.6357813,105.322659 L58.6357813,125.837862 L53.6230167,130.479311 L47.9140347,135.724148 L47.2178174,136.327536 L43.458244,133.078522 C41.3927993,131.291564 39.6290488,129.829508 39.6290488,129.829508 C39.559427,129.829508 38.2366141,131.291564 36.6121071,133.078522 L33.7112016,136.327536 L33.3398857,136.049049 L29.3482398,132.637584 L25.6814953,129.504607 L25.6814953,118.597202 L24.6603766,118.597202 C23.9641593,118.597202 23.4768072,118.666824 23.1054913,118.829274 C22.5485174,119.061347 21.9915436,119.757564 21.8523001,120.221709 C21.6434349,120.894719 21.457777,120.476989 21.3185335,118.898896 C21.2257045,117.970606 21.5273987,116.206856 21.9219218,115.41781 C22.5253102,114.211033 23.6856723,113.421987 24.985278,113.236329 L25.6814953,113.1435 L25.6814953,108.200357 C25.6814953,102.560997 25.751117,102.95552 24.5907548,101.238184 C23.6392579,99.7993346 23.4303927,98.8014232 23.8017086,97.2929523 C24.1034027,96.2022119 24.5907548,95.3667511 25.5886663,94.2760107 C26.8650647,92.9299905 28.5359863,91.8624573 30.8102962,90.9341676 Z M26.8650647,93.9511092 L26.8418575,93.9743165 C27.561282,93.069234 27.0739299,93.3013064 26.0528112,94.3688396 C24.6835838,95.7844815 24.1730245,96.782393 24.0801955,98.2444493 C24.033781,99.4744332 24.12661,99.6600912 25.2405577,101.400634 C25.6118736,101.980816 25.936775,102.653826 26.0063967,103.025142 C26.0760184,103.419665 26.1456402,105.508317 26.1456402,108.432429 L26.1456402,113.213121 L27.3292096,113.213121 L27.2827951,107.875455 L27.2363806,102.537789 L26.9114792,101.795158 C26.7258213,101.35422 26.2848836,100.588381 25.936775,100.031407 C25.4262156,99.1727391 25.3101794,98.9406666 25.3101794,98.2444493 C25.2405577,96.9216364 25.7975315,95.3435439 26.8650647,93.9511092 Z M38.8632097,105.949254 C37.7956765,104.928135 36.704936,103.860602 36.4032419,103.62853 L35.8694753,103.164385 L35.4981594,103.62853 L35.1268435,104.092675 L37.3547389,106.297363 L39.5826343,108.525258 L39.5826343,118.852482 L39.5362198,129.156498 L43.2957933,132.405512 C45.3612379,134.19247 47.1017812,135.654526 47.1481957,135.654526 C47.2178174,135.654526 47.4498899,135.492075 47.6819623,135.260003 L48.1461072,134.888687 L47.844413,134.656615 C47.7051696,134.494164 46.034248,133.101729 44.1776685,131.477222 L40.7894109,128.529902 L40.7894109,107.805834 L38.8632097,105.949254 Z M53.2981153,118.620409 L53.2517008,118.643617 L53.2517008,107.132824 L51.2790851,105.113793 L49.3064694,103.141178 L48.8423245,103.605323 L48.3781796,104.069467 L50.2347591,105.926047 L52.0913386,107.782626 L52.0913386,131.268357 L52.6947269,130.688176 L53.2981153,130.107995 L53.2981153,118.620409 Z M37.0066302,106.483021 L36.983423,106.436606 C35.846268,105.322659 34.8715638,104.394369 34.8251493,104.394369 C34.7323203,104.394369 34.221761,104.858514 33.6647871,105.438695 L32.6900829,106.483021 L32.6900829,126.394836 L35.2892942,128.599524 L37.842091,130.804212 L38.4686866,130.154409 L39.0952821,129.458192 L39.0952821,108.571673 L37.0066302,106.483021 Z M49.8866505,106.181327 L49.8634432,106.204534 C48.9119462,105.253037 48.0996927,104.463991 48.0532782,104.463991 C48.0068637,104.463991 47.5659261,104.928135 47.0321595,105.508317 L46.1038697,106.506228 L46.1038697,126.464458 L48.8191172,128.785182 L51.5343648,131.105906 L51.6039865,119.502285 L51.6039865,107.898663 L49.8866505,106.181327 Z M27.3756241,122.844128 L27.3988313,122.797713 L27.3988313,117.065524 L25.5422518,117.065524 C23.9641593,117.065524 23.5928434,117.111938 23.2215275,117.344011 C22.7109681,117.599291 22.1772015,118.295508 22.1772015,118.690031 C22.1772015,118.945311 22.1772015,118.945311 22.4092739,118.759653 C22.8966261,118.318715 23.5696361,118.179472 24.892449,118.179472 L26.1920547,118.179472 L26.1920547,129.318949 L29.0929601,131.778916 L32.8061191,134.958309 L33.6183726,135.700941 L34.0128958,135.236796 C34.221761,135.004723 34.3842117,134.772651 34.3842117,134.726236 C34.3842117,134.679822 32.8061191,133.287387 30.8567106,131.616466 L27.3756241,128.599524 L27.3756241,122.844128 Z M105.305548,101.655914 L105.282341,101.6095 C106.906848,99.9385781 108.252868,98.5461435 108.299283,98.5461435 C108.368905,98.5461435 108.415319,101.841572 108.415319,105.879632 L108.484941,113.189914 L110.805665,110.729946 L113.196011,108.17715 L115.748808,110.497874 L118.25519,112.772184 L118.719335,112.308039 C119.369138,111.658236 119.60121,111.843894 118.997822,112.540111 L118.533677,113.073878 L118.533677,123.470723 C118.464056,132.916071 118.464056,133.960397 118.231983,134.656615 C117.16445,138.323359 114.101094,140.992192 109.41323,142.268591 C108.392112,142.570285 108.183247,142.384627 108.9955,141.966896 C109.738132,141.549166 111.130567,140.08711 111.594711,139.228442 C112.523001,137.441484 112.476587,138.184116 112.523001,126.348421 L112.569416,115.742711 L111.01453,114.257447 L109.390023,112.795391 L108.879464,113.352365 L108.415319,113.909339 L108.415319,129.806301 L109.25078,130.595347 L110.17907,131.407601 L108.090418,133.612289 C106.97647,134.842273 105.932144,135.933013 105.816108,136.049049 C105.607243,136.281122 105.444792,136.165085 102.984824,133.913983 C101.569182,132.614377 100.362405,131.50043 100.362405,131.454015 C100.339198,131.407601 100.803343,130.920248 101.383524,130.363275 L102.42785,129.318949 L102.42785,104.765685 L105.305548,101.655914 Z M103.402554,130.757798 L103.425762,130.73459 L103.982735,130.038373 L103.982735,116.879866 L103.936321,103.721359 L103.402554,104.324747 L102.799166,104.951343 L102.799166,129.551021 L101.870876,130.525725 L100.942587,131.454015 L101.244281,131.755709 C103.472176,133.867568 105.421585,135.631319 105.514414,135.631319 C105.63045,135.631319 106.326667,134.888687 106.326667,134.772651 C106.326667,134.703029 105.537621,133.960397 104.562917,133.078522 L102.799166,131.454015 L103.402554,130.757798 Z M112.453379,113.259536 L112.499794,113.259536 C111.594711,112.377661 110.782458,111.635029 110.712836,111.635029 C110.620007,111.611822 110.387935,111.79748 110.155862,112.029552 L109.738132,112.493697 L110.666422,113.421987 L112.290929,114.953665 L112.987146,115.58026 L112.987146,125.745033 C112.987146,135.816977 112.987146,136.977339 112.523001,138.091287 L112.290929,138.833919 C112.058856,139.460514 113.54412,137.673556 113.776192,136.977339 L114.077886,136.2115 L114.124301,125.489753 L114.124301,114.814421 L112.453379,113.259536 Z M124.567561,101.284598 L124.544353,101.261391 C126.493762,99.1495318 126.586591,99.0799101 126.818663,99.3119825 C127.561295,99.8921636 131.042382,103.187592 131.042382,103.257214 C131.042382,103.326836 130.114092,104.324747 128.95373,105.531524 L126.911492,107.689797 L124.706804,105.64756 C123.523235,104.510405 122.54853,103.558908 122.54853,103.512494 C122.54853,103.466079 123.453613,102.44496 124.567561,101.284598 Z M127.213186,105.786804 L127.213186,105.810011 L125.263778,103.953431 L123.824929,102.630618 L123.453613,103.048349 L122.989468,103.466079 L124.613975,104.997757 L126.633005,106.854337 L127.027528,107.179238 L127.398844,106.715093 L127.746953,106.250948 L127.213186,105.786804 Z M183.374716,102.468168 L183.351509,102.468168 C184.976016,100.750832 186.275622,99.358397 186.368451,99.358397 C186.46128,99.358397 186.46128,101.586292 186.46128,104.30154 L186.46128,109.26789 L188.712382,109.26789 C190.128024,109.26789 190.91707,109.337512 190.91707,109.407134 C190.91707,109.499963 190.49934,110.19618 190.035195,110.892397 L189.106905,112.284832 L186.484487,112.284832 L186.484487,129.110083 L188.108994,130.363275 L189.687086,131.616466 L190.267267,130.920248 C190.777827,130.409689 190.893863,130.31686 191.009899,130.456104 C191.125935,130.641761 190.824241,131.013077 189.431807,132.498341 L186.762974,135.28321 L185.834684,136.304329 L183.281887,134.262092 L180.682676,132.243061 L180.218531,132.707206 C179.522314,133.357009 179.38307,133.078522 179.986459,132.312683 L180.450603,131.778916 L180.450603,112.284832 L178.826096,112.284832 C177.944221,112.284832 177.201589,112.238417 177.201589,112.192003 C177.201589,112.122381 177.665734,111.449371 178.129879,110.660325 L179.104583,109.26789 L180.497018,109.26789 L180.497018,105.554731 L183.374716,102.468168 Z M182.028696,106.923958 L182.051903,106.877544 C182.051903,105.601146 182.051903,104.55682 182.005489,104.55682 C181.982281,104.55682 181.703795,104.788892 181.4021,105.113793 L180.868334,105.670767 L180.868334,109.244683 L182.028696,109.244683 L182.028696,106.923958 Z M182.028696,121.706973 L181.982281,121.73018 L181.982281,112.284832 L180.845127,112.284832 L180.845127,122.055081 L180.891541,131.871745 L183.328302,133.821154 L185.741855,135.747355 L186.206,135.28321 C186.438072,135.051138 186.600523,134.819065 186.554108,134.819065 L184.279799,132.962486 L182.028696,131.152321 L182.028696,121.706973 Z M66.8047311,111.983138 L66.8279383,111.983138 C69.6824293,109.9409 72.0959827,108.269979 72.2352261,108.269979 C72.3048479,108.269979 73.6972825,109.291097 75.2521678,110.544288 L78.129866,112.818598 L78.5940109,112.308039 C78.9421195,111.95993 79.1277775,111.867101 79.2206065,111.95993 C79.2902282,112.052759 79.1973992,112.284832 78.8260833,112.702562 L78.315524,113.30595 L78.315524,128.71556 L79.8239948,130.154409 L81.3788801,131.593258 L81.843025,131.036285 C82.2375481,130.595347 82.3303771,130.525725 82.4232061,130.711383 C82.4696206,130.897041 81.8662322,131.593258 80.0096528,133.635496 L77.4568559,136.327536 L76.7606386,135.631319 C74.6719867,133.635496 72.4672986,131.593258 72.3512623,131.593258 C72.2584334,131.593258 71.1909002,132.660792 69.937709,133.983605 L67.6633991,136.304329 L64.7857009,133.797947 L61.9312099,131.24515 L61.5134795,131.639673 C60.9565057,132.196647 60.701226,131.964574 61.2349926,131.361186 L61.6295158,130.897041 L61.6295158,115.696297 L66.8047311,111.983138 Z M71.6086305,112.748977 L71.5854233,112.748977 L69.17187,110.845983 C69.079041,110.845983 68.1507512,111.5422 68.1507512,111.635029 C68.1507512,111.635029 69.17187,112.516904 70.4250611,113.491608 L72.6761638,115.301773 L72.6761638,131.291564 L75.0665099,133.542667 L77.4336487,135.747355 L77.8281718,135.28321 C78.0602443,135.027931 78.222695,134.772651 78.222695,134.726236 C78.222695,134.703029 77.2944052,133.774739 76.1340431,132.707206 L73.9989766,130.757798 L73.9989766,114.698385 L71.6086305,112.748977 Z M70.1697814,113.81651 C68.9630048,112.88822 67.941886,112.099174 67.8026426,112.052759 C67.6169846,111.983138 67.6169846,112.795391 67.6169846,120.105673 L67.6169846,128.274623 L69.5896003,129.991959 L71.5854233,131.732502 L71.9567392,131.361186 L72.3048479,131.036285 L72.3048479,115.487431 L70.1697814,113.81651 Z M65.8532341,132.498341 L65.8764414,132.521548 L63.3236445,130.270446 L63.3236445,122.65847 L63.2772301,115.000079 L62.6738417,115.464224 L62.0240389,115.881955 L62.0240389,130.781005 L64.7392864,133.194558 C66.2013428,134.494164 67.4777412,135.654526 67.5241557,135.654526 C67.6401919,135.700941 68.4060309,135.027931 68.4060309,134.888687 C68.4060309,134.819065 67.2456687,133.774739 65.8532341,132.498341 Z"></path>
        </g>
    </g>
</svg>