<?xml version="1.0" encoding="UTF-8"?>
<svg width="256px" height="256px" viewBox="0 0 256 256" version="1.1" xmlns="http://www.w3.org/2000/svg" xmlns:xlink="http://www.w3.org/1999/xlink">
    <!-- Generator: Sketch 48.2 (47327) - http://www.bohemiancoding.com/sketch -->
    <title>wsj</title>
    <desc>Created with Sketch.</desc>
    <defs></defs>
    <g id="webpage" stroke="none" stroke-width="1" fill="none" fill-rule="evenodd">
        <g id="wsj" fill="#000000" fill-rule="nonzero">
            <path d="M30.6871611,77.16528 C30.6871611,77.9593078 30.9177785,78.1127025 31.4302324,78.2414069 L32.2242601,78.4208052 L32.2242601,78.779339 L26.9468519,78.779339 L26.9468519,78.4208052 L27.6129632,78.2674105 C28.1254171,78.139494 28.3560344,77.8826104 28.3560344,77.166068 L28.3560344,61.6403703 L27.7923614,61.6403703 C26.2040433,61.6403703 25.563673,64.2278553 25.3842747,66.9689976 L25,66.9689976 L25,61.1281791 L34.0431955,61.1281791 L34.0431955,66.9692603 L33.6589208,66.9692603 C33.4795225,64.228118 32.8391522,61.640633 31.2508341,61.640633 L30.6871611,61.640633 L30.6871611,77.16528 Z M34.6068685,78.4205425 L35.1705415,78.2666225 C35.6829954,78.138706 35.9136128,77.8823477 35.9136128,77.16528 L35.9136128,62.7164972 C35.9136128,61.9991669 35.6829954,61.7685495 35.1705415,61.6403703 L34.6068685,61.486713 L34.6068685,61.1279165 L39.6024402,61.1279165 L39.6024402,61.486713 L39.013289,61.6403703 C38.526576,61.7685495 38.2447395,61.973426 38.2447395,62.6907563 L38.2447395,69.4283034 L42.1132278,69.4283034 L42.1132278,62.6907563 C42.1132278,61.973426 41.8313913,61.7685495 41.3446783,61.6403703 L40.7555271,61.486713 L40.7555271,61.1279165 L45.7510987,61.1279165 L45.7510987,61.486713 L45.1874257,61.6403703 C44.6752345,61.7685495 44.4446171,61.9991669 44.4446171,62.7164972 L44.4446171,77.1398018 C44.4446171,77.8571322 44.6752345,78.139494 45.1874257,78.2674105 L45.7510987,78.4208052 L45.7510987,78.779339 L40.7552644,78.779339 L40.7552644,78.4208052 L41.3444156,78.2931514 C41.8311286,78.1652349 42.1129651,77.8828731 42.1129651,77.166068 L42.1129651,70.0177173 L38.2447395,70.0177173 L38.2447395,77.16528 C38.2447395,77.8823477 38.526576,78.1644469 39.013289,78.2923634 L39.6024402,78.4205425 L39.6024402,78.778551 L34.6068685,78.778551 L34.6068685,78.4205425 Z M49.95238,78.2671478 L51.7200963,78.2671478 C54.0257448,78.2671478 54.4612386,75.653922 54.7685534,72.9385205 L55.1528281,72.9385205 L55.1528281,78.7788137 L46.3145091,78.7788137 L46.3145091,78.4205425 L46.878182,78.2671478 C47.3906359,78.1389687 47.6212533,77.8823477 47.6212533,77.1655427 L47.6212533,62.7419755 C47.6212533,62.0249078 47.3906359,61.7685495 46.878182,61.6403703 L46.3145091,61.486713 L46.3145091,61.1279165 L54.8967325,61.1279165 L54.8967325,66.9689976 L54.5124578,66.9689976 C54.2306213,64.2278553 53.6926892,61.6403703 51.7200963,61.6403703 L49.95238,61.6403703 L49.95238,69.3516061 L50.7721486,69.3258652 C51.8737537,69.2489052 52.2835067,68.3012201 52.5653432,66.0720063 L52.9496179,66.0720063 L52.9496179,73.1938282 L52.5653432,73.1938282 C52.3349884,70.4014667 51.8992319,69.9659729 50.7464077,69.8890129 L49.95238,69.863272 L49.95238,78.2671478 Z M60.6303848,63.4850467 C60.2973292,61.9736886 60.0924527,61.7430713 59.6057397,61.6148921 L59.1190267,61.486713 L59.1190267,61.1279165 L63.9097219,61.1279165 L63.9097219,61.486713 L63.5254472,61.5634103 C62.7056786,61.7428086 62.7823759,62.5625772 63.0129933,63.6641823 L65.0368052,73.7065447 L66.5226851,65.7134725 L65.984753,62.9720675 C65.7798765,61.9986415 65.7029165,61.6913268 65.1907253,61.5631477 L64.8576696,61.4864503 L64.8576696,61.1276538 L69.5459266,61.1276538 L69.5459266,61.4864503 L68.9822536,61.5888886 C68.1367441,61.7425459 68.2649232,62.6647528 68.4697997,63.6639196 L70.4169143,73.7068074 L72.338288,64.2021144 C72.6968218,62.2295216 72.5176862,61.7428086 71.7491368,61.5891512 L71.2112047,61.486713 L71.2112047,61.1279165 L74.7208965,61.1279165 L74.7208965,61.486713 L74.2341835,61.6148921 C73.6192913,61.7685495 73.465634,62.2552625 73.1068375,63.9717597 L69.9814204,78.8817773 L69.3153092,78.8817773 L66.9072225,67.2510968 L64.7294905,78.8817773 L63.883981,78.8817773 L60.6303848,63.4850467 Z M85.6854657,78.2671478 L86.7101108,78.2671478 C88.8875801,78.2671478 89.5282131,75.6788749 89.7843087,72.9385205 L90.1685835,72.9385205 L90.1685835,78.7788137 L77.0775014,78.7788137 L77.0775014,78.4205425 L77.6154335,78.3175789 C78.7170386,78.1132278 78.7170386,77.8059131 78.4352021,76.2680261 L77.9484891,73.9623777 L74.7973311,73.9623777 L74.4642755,75.7051411 C74.0800008,77.6777339 74.2848773,78.1639216 75.0536894,78.3175789 L75.5916215,78.4205425 L75.5916215,78.7788137 L72.0307106,78.7788137 L72.0307106,78.4205425 L72.4662045,78.292626 C73.1577939,78.0877496 73.3371922,77.6777339 73.6959887,75.9354958 L76.8214058,61.0252156 L77.5899552,61.0252156 L80.8690297,76.4219461 C81.2020853,78.0105269 81.3557426,78.3427945 82.2779495,78.3427945 C83.0719772,78.3427945 83.3538137,77.9327789 83.3538137,77.1650174 L83.3538137,62.7162346 C83.3538137,61.9989042 83.123459,61.7682868 82.6110051,61.6401077 L82.0473321,61.4864503 L82.0473321,61.1279165 L87.1198638,61.1279165 L87.1198638,61.5121912 L86.4280116,61.6658486 C85.9158204,61.7682868 85.685203,61.9989042 85.685203,62.7162346 L85.6854657,78.2671478 Z M74.900032,73.3734891 L77.8205726,73.3734891 L76.3346928,66.0982725 L74.900032,73.3734891 Z M94.3701274,78.2671478 L95.3947725,78.2671478 C97.5725045,78.2671478 98.2128748,75.6788749 98.4689704,72.9385205 L98.8532452,72.9385205 L98.8532452,78.7788137 L90.7322565,78.7788137 L90.7322565,78.4205425 L91.2959295,78.2671478 C91.8083833,78.1389687 92.0390007,77.8823477 92.0390007,77.1655427 L92.0390007,62.7164972 C92.0390007,61.9991669 91.8083833,61.7685495 91.2959295,61.6403703 L90.7322565,61.486713 L90.7322565,61.1279165 L95.8047881,61.1279165 L95.8047881,61.5121912 L95.1131987,61.6658486 C94.6007448,61.7682868 94.3701274,61.9989042 94.3701274,62.7162346 L94.3701274,78.2671478 Z M107.206953,78.8812519 C105.721335,78.8812519 105.209144,77.8571322 104.722431,77.8571322 C104.440595,77.8571322 104.107539,77.9338295 103.851443,78.779339 L103.544129,78.779339 L103.544129,72.9379952 L103.928403,72.9379952 C104.235981,76.2428105 105.465765,78.3173163 107.182,78.3173163 C108.334824,78.3173163 109.129114,77.2669303 109.129114,75.3712975 C109.129114,71.37463 103.416212,69.6583955 103.416212,65.2262342 C103.416212,62.8438884 104.645996,61.0246902 106.823466,61.0246902 C108.232386,61.0246902 108.539963,61.9468971 109.129114,61.9468971 C109.46217,61.9468971 109.692787,61.6908015 109.820704,61.1271285 L110.128018,61.1271285 L110.128018,66.9682096 L109.743744,66.9682096 C109.436429,64.0221908 108.642401,61.5883632 106.797462,61.5883632 C105.516722,61.5883632 105.260363,62.8691039 105.260363,63.7403543 C105.260363,67.5576235 110.973265,68.8641051 110.973265,74.1924697 C110.972477,76.9091844 109.48686,78.8812519 107.206953,78.8812519 Z M116.634423,77.16528 C116.634423,77.8823477 116.86504,78.138706 117.377494,78.2666225 L118.043605,78.4205425 L118.043605,78.778551 L112.894376,78.778551 L112.894376,78.4205425 L113.560488,78.2666225 C114.072941,78.138706 114.303559,77.8823477 114.303559,77.16528 L114.303559,61.6403703 L113.739886,61.6403703 C112.151568,61.6403703 111.511197,64.2278553 111.331799,66.9689976 L110.947524,66.9689976 L110.947524,61.1281791 L119.991245,61.1281791 L119.991245,66.9692603 L119.606708,66.9692603 C119.42731,64.228118 118.787202,61.640633 117.198621,61.640633 L116.634948,61.640633 L116.634948,77.16528 L116.634423,77.16528 Z M120.55413,78.4205425 L121.117803,78.2666225 C121.630257,78.138706 121.860875,77.8823477 121.860875,77.16528 L121.860875,62.7164972 C121.860875,61.9991669 121.630257,61.7685495 121.117803,61.6403703 L120.55413,61.486713 L120.55413,61.1279165 L125.447264,61.1279165 C127.624996,61.1279165 129.648808,62.5113581 129.648808,65.4061578 C129.648808,67.6351089 128.598422,69.1979487 126.471909,69.7616217 C128.803298,70.1968529 128.803298,71.2989833 129.033915,74.2444768 L129.187573,76.4989061 C129.264533,77.7541686 129.315752,78.0365304 129.674548,78.0365304 C130.058823,78.0365304 130.212743,77.1658054 130.212743,76.3200332 L130.212743,75.8845393 L130.647974,75.8845393 L130.647974,76.4734279 C130.647974,77.8826104 130.340397,78.8815146 128.880521,78.8815146 C127.445597,78.8815146 126.779749,78.061746 126.676785,75.1159899 L126.549131,71.8369154 C126.497912,70.2740756 126.113638,70.0434582 125.370566,70.0434582 L124.166523,70.0434582 L124.166523,77.1655427 C124.166523,77.8826104 124.39714,78.1647096 124.909594,78.292626 L125.473267,78.4208052 L125.473267,78.7788137 L120.554393,78.7788137 L120.55413,78.4205425 Z M124.16626,69.5310043 L125.01177,69.5310043 C126.446431,69.5310043 127.163761,69.1467296 127.163761,65.739476 C127.163761,62.3322225 126.215813,61.640633 125.191168,61.640633 L124.166523,61.640633 L124.16626,69.5310043 Z M134.43924,78.2671478 L136.206694,78.2671478 C138.51208,78.2671478 138.948361,75.653922 139.255151,72.9385205 L139.639426,72.9385205 L139.639426,78.7788137 L130.801106,78.7788137 L130.801106,78.4205425 L131.364779,78.2671478 C131.876971,78.1389687 132.107588,77.8823477 132.107588,77.1655427 L132.107588,62.7419755 C132.107588,62.0249078 131.876971,61.7685495 131.364779,61.6403703 L130.801106,61.486713 L130.801106,61.1279165 L139.383593,61.1279165 L139.383593,66.9689976 L138.999055,66.9689976 C138.718007,64.2278553 138.179549,61.6403703 136.206694,61.6403703 L134.43924,61.6403703 L134.43924,69.3516061 L135.259009,69.3258652 C136.360088,69.2489052 136.770629,68.3012201 137.052203,66.0720063 L137.436741,66.0720063 L137.436741,73.1938282 L137.052203,73.1938282 C136.821323,70.4014667 136.386355,69.9659729 135.232742,69.8890129 L134.43924,69.863272 L134.43924,78.2671478 Z M143.943933,78.2671478 L145.711649,78.2671478 C148.01651,78.2671478 148.452792,75.653922 148.759581,72.9385205 L149.143856,72.9385205 L149.143856,78.7788137 L140.306062,78.7788137 L140.306062,78.4205425 L140.869735,78.2671478 C141.381926,78.1389687 141.612806,77.8823477 141.612806,77.1655427 L141.612806,62.7419755 C141.612806,62.0249078 141.381926,61.7685495 140.869735,61.6403703 L140.306062,61.486713 L140.306062,61.1279165 L148.888286,61.1279165 L148.888286,66.9689976 L148.504011,66.9689976 C148.222174,64.2278553 147.684242,61.6403703 145.711649,61.6403703 L143.943933,61.6403703 L143.943933,69.3516061 L144.763702,69.3258652 C145.865044,69.2489052 146.27506,68.3012201 146.556896,66.0720063 L146.941434,66.0720063 L146.941434,73.1938282 L146.556896,73.1938282 C146.326279,70.4014667 145.890785,69.9659729 144.737961,69.8890129 L143.943933,69.863272 L143.943933,78.2671478 Z M155.395478,77.16528 C155.395478,77.9593078 155.626621,78.1127025 156.138287,78.2414069 L156.932314,78.4208052 L156.932314,78.779339 L151.654906,78.779339 L151.654906,78.4208052 L152.321017,78.2674105 C152.832683,78.139494 153.064089,77.8826104 153.064089,77.166068 L153.064089,61.6403703 L152.500416,61.6403703 C150.912098,61.6403703 150.271727,64.2278553 150.092329,66.9689976 L149.708054,66.9689976 L149.708054,61.1281791 L158.751512,61.1281791 L158.751512,66.9692603 L158.367238,66.9692603 C158.187577,64.228118 157.547469,61.640633 155.959151,61.640633 L155.395478,61.640633 L155.395478,77.16528 Z M169.461825,74.7059742 C169.461825,77.4476419 168.077595,78.8812519 165.952133,78.8812519 C164.031284,78.8812519 162.904201,77.3189374 162.929154,75.6024402 C162.954895,74.2704804 163.928321,73.6046318 164.722349,73.7068074 C165.286022,73.7835047 165.849695,74.1935204 165.772735,75.090249 C165.695775,76.3712523 164.311808,76.3200332 164.261114,77.1140609 C164.210157,77.6010366 164.850002,78.3181043 165.669508,78.3181043 C167.104694,78.3181043 167.104694,76.4991688 167.104694,75.1159899 L167.104694,62.6907563 C167.104694,61.973426 166.873552,61.7685495 166.310667,61.6403703 L165.670296,61.486713 L165.670296,61.1279165 L170.717612,61.1279165 L170.717612,61.486713 L170.153939,61.6403703 C169.641748,61.7685495 169.46235,61.9991669 169.46235,62.7164972 L169.461825,74.7059742 Z M175.431085,78.9072555 C172.433847,78.9072555 170.973183,74.8596316 170.973183,69.9404946 C170.973183,65.0476239 172.382365,61 175.431085,61 C178.454064,61 179.914203,65.0476239 179.914203,69.9404946 C179.914203,74.8596316 178.531024,78.9072555 175.431085,78.9072555 Z M175.431085,61.5891512 C174.150082,61.5891512 173.510237,62.6137963 173.510237,69.8385817 C173.510237,77.2931965 174.098862,78.3438452 175.431085,78.3438452 C176.763045,78.3438452 177.377937,77.2931965 177.377937,69.7868373 C177.377937,62.614059 176.763045,61.5891512 175.431085,61.5891512 Z M190.059266,78.4205425 L190.622676,78.2666225 C191.13513,78.138706 191.365748,77.8823477 191.365748,77.16528 L191.365748,62.7164972 C191.365748,61.8709877 190.981473,61.563673 190.084744,61.563673 C188.957661,61.563673 188.675824,62.0761269 188.675824,63.5362658 L188.675824,74.6547551 C188.675824,77.4216383 187.702398,78.9072555 185.320315,78.9072555 C182.861009,78.9072555 181.426611,77.4216383 181.426611,74.7317151 L181.426611,62.7164972 C181.426611,61.9991669 181.246951,61.7685495 180.734759,61.6403703 L180.171086,61.486713 L180.171086,61.1279165 L185.269096,61.1279165 L185.269096,61.486713 L184.577244,61.6403703 C184.013571,61.7685495 183.783216,61.973426 183.783216,62.6907563 L183.783216,74.9108507 C183.783216,77.3958974 184.500284,78.0362678 185.807028,78.0362678 C187.344653,78.0362678 187.98476,77.16528 187.98476,74.6544924 L187.98476,64.4584727 C187.98476,62.3064816 187.959019,61.7940277 187.037338,61.5891512 L186.550362,61.486713 L186.550362,61.1279165 L194.95345,61.1279165 C197.130919,61.1279165 199.154731,62.5113581 199.154731,65.4061578 C199.154731,67.6351089 198.104345,69.1979487 195.977832,69.7616217 C198.309222,70.1968529 198.309222,71.2989833 198.539839,74.2444768 L198.693497,76.4989061 C198.770457,77.7541686 198.82115,78.0365304 199.180472,78.0365304 C199.564747,78.0365304 199.718667,77.1658054 199.718667,76.3200332 L199.718667,75.8845393 L200.153898,75.8845393 L200.153898,76.4734279 C200.153898,77.8826104 199.846583,78.8815146 198.386445,78.8815146 C196.951784,78.8815146 196.285673,78.061746 196.182709,75.1159899 L196.055055,71.8369154 C196.003836,70.2740756 195.619561,70.0434582 194.876753,70.0434582 L193.672709,70.0434582 L193.672709,77.1655427 C193.672709,77.8826104 193.903064,78.1647096 194.415518,78.292626 L194.979191,78.4208052 L194.979191,78.7788137 L190.060054,78.7788137 L190.060054,78.4208052 L190.059266,78.4208052 L190.059266,78.4205425 Z M193.671396,69.5310043 L194.516906,69.5310043 C195.951304,69.5310043 196.668634,69.1467296 196.668634,65.739476 C196.668634,62.3322225 195.720949,61.640633 194.696041,61.640633 L193.671396,61.640633 L193.671396,69.5310043 Z M200.614082,61.5891512 L200.255811,61.486713 L200.255811,61.1279165 L203.61132,61.1279165 L208.197139,72.758597 L208.197139,64.3815127 C208.197139,62.4858798 208.248095,61.8197686 206.890395,61.5891512 L206.455163,61.486713 L206.455163,61.1279165 L210.246692,61.1279165 L210.246692,61.486713 L209.888421,61.5891512 C208.787078,61.8452468 208.864038,62.7419755 208.864038,64.53517 L208.864038,78.7790764 L208.04427,78.7790764 L202.305364,64.6636118 L202.305364,75.5257428 C202.305364,77.6007739 202.305364,78.1904505 203.944901,78.4205425 L203.944901,78.778551 L200.255286,78.778551 L200.255286,78.4205425 L200.717046,78.3435825 C201.664206,78.1636589 201.639253,77.2419774 201.639253,75.3720855 L201.639253,63.1262502 C201.203234,62.2297842 201.023835,61.7428086 200.614082,61.5891512 Z M223.158376,78.2671478 L224.183021,78.2671478 C226.36049,78.2671478 227.001123,75.6788749 227.257219,72.9385205 L227.641493,72.9385205 L227.641493,78.7788137 L214.576152,78.7788137 L214.576152,78.4205425 L215.114084,78.3175789 C216.215689,78.1132278 216.24143,77.8059131 215.933853,76.2680261 L215.446877,73.9623777 L212.296245,73.9623777 L211.962401,75.7051411 C211.578126,77.6777339 211.783265,78.1639216 212.551815,78.3175789 L213.089747,78.4205425 L213.089747,78.7788137 L209.528573,78.7788137 L209.528573,78.4205425 L209.963805,78.292626 C210.655919,78.0877496 210.83453,77.6777339 211.193851,75.9354958 L214.319006,61.0254782 L215.088081,61.0254782 L218.36663,76.4222088 C218.700473,78.0107895 218.827865,78.3430572 219.750597,78.3430572 C220.544099,78.3430572 220.826724,77.9330415 220.826724,77.16528 L220.826724,62.7162346 C220.826724,61.9989042 220.596106,61.7682868 220.083915,61.6401077 L219.520242,61.4864503 L219.520242,61.1279165 L224.592774,61.1279165 L224.592774,61.5121912 L223.900922,61.6658486 C223.38873,61.7682868 223.158113,61.9989042 223.158113,62.7162346 L223.158376,78.2671478 Z M212.39842,73.3734891 L215.318961,73.3734891 L213.833344,66.0980099 L212.39842,73.3734891 Z M230.664472,77.6517304 C230.664472,78.3435825 230.152281,78.8560364 229.537389,78.8560364 C228.922497,78.8560364 228.410043,78.3435825 228.410043,77.6517304 C228.410043,76.9601409 228.922497,76.447687 229.537389,76.447687 C230.152281,76.447687 230.664472,76.9604036 230.664472,77.6517304 Z M60.6282435,88.3764362 L88.788696,88.3764362 L88.788696,90.5319813 L85.4038539,91.1472875 C80.3252145,92.0702435 81.0954014,97.6099224 82.3260071,103.611518 L94.0207723,163.935202 L105.561379,106.843517 C107.714961,94.9949231 106.640079,92.0715792 102.0237,91.1486097 L98.7917012,90.5333035 L98.7917012,88.3790738 L119.872843,88.3790738 L119.872843,90.5333035 L116.950464,91.3040772 C113.257055,92.2270332 112.333289,95.1497565 110.178149,105.460067 L91.4053953,195.019349 L87.4039314,195.019349 L72.9396304,125.15776 L59.8587785,195.019349 L54.7808609,195.019349 L35.2373269,102.536373 C33.2367906,93.4582394 32.0064345,92.074001 29.0829489,91.3040772 L26.159261,90.5333035 L26.159261,88.3790738 L54.9350197,88.3790738 L54.9350197,90.5333035 L52.6266313,90.9944509 C47.702596,92.0720244 48.1635613,96.9959316 49.5487846,103.612833 L61.7046972,163.933887 L70.6299265,115.922905 L67.3992432,99.4558951 C66.168624,93.6089105 65.7061678,91.7630525 62.6296365,90.9931354 L60.6282435,90.5319813 L60.6282435,88.3764362 Z M197.554371,88.6675448 L227.871745,88.6675448 L227.871745,90.8217744 L224.485587,91.7453915 C221.40907,92.5153153 220.331287,93.9006803 220.331287,98.2093958 L220.328589,170.225214 C220.328589,186.693323 212.012938,195.303867 199.246131,195.303867 C187.708358,195.303867 180.938789,185.920445 181.088677,175.610127 C181.243295,167.609567 187.090407,163.609945 191.859825,164.223673 C195.245591,164.684362 198.631938,167.147293 198.169678,172.533596 C197.70741,180.228078 189.39348,179.920104 189.088974,184.689509 C188.782896,187.614586 192.626646,191.921663 197.549096,191.921663 C206.169684,191.921656 206.169968,180.995998 206.169968,172.687755 L206.169968,98.0539216 C206.169968,93.7452128 204.781398,92.5153153 201.400361,91.7453915 L197.554371,90.8217744 L197.554371,88.6675448 Z M145.708478,88.0462684 C132.629279,88.0462616 125.242642,98.9732145 125.242642,113.283026 C125.242642,139.905264 159.557473,150.214313 159.557473,174.220708 C159.557473,185.607021 154.787259,191.915686 147.862708,191.915686 C137.553969,191.915686 130.166664,179.455597 128.319174,159.604886 L126.010785,159.604886 L126.010785,194.691812 L127.856704,194.691812 C129.39496,189.613166 131.395901,189.152741 133.08878,189.152741 C136.012266,189.152741 139.087988,195.303165 148.011591,195.303165 C161.70607,195.303165 170.628897,183.458296 170.634294,167.140075 C170.634294,135.134699 136.319464,127.286632 136.319464,104.357804 C136.319464,99.1245535 137.858785,91.432426 145.551688,91.432426 C156.633502,91.432426 161.403392,106.051608 163.249304,123.747179 L165.557692,123.747179 L165.557692,88.6615746 L163.711773,88.6615746 C162.943428,92.0473275 161.558009,93.5853401 159.557473,93.5853401 C156.018681,93.5853401 154.171292,88.0462212 145.708478,88.0462684 Z M170.480135,118.22392 L170.480135,118.60338 C170.504083,118.589011 170.528504,118.57417 170.5526,118.559869 C170.540997,118.465304 170.526291,118.371292 170.5157,118.276592 C170.502478,118.260672 170.492966,118.240299 170.480149,118.223906 L170.480135,118.22392 Z"></path>
        </g>
    </g>
</svg>