<?xml version="1.0" encoding="UTF-8"?>
<svg width="24px" height="24px" viewBox="0 0 24 24" version="1.1" xmlns="http://www.w3.org/2000/svg" xmlns:xlink="http://www.w3.org/1999/xlink">
    <!-- Generator: Sketch 48.2 (47327) - http://www.bohemiancoding.com/sketch -->
    <title>dribbble</title>
    <desc>Created with Sketch.</desc>
    <defs></defs>
    <g id="rylan.io" stroke="none" stroke-width="1" fill="none" fill-rule="evenodd" transform="translate(-791.000000, -227.000000)" opacity="0.749433877">
        <g id="me" transform="translate(535.281284, 203.000000)" fill="#000000" fill-rule="nonzero">
            <g id="social" transform="translate(115.011753, 23.306956)">
                <g id="dribbble" transform="translate(140.391215, 0.350108)">
                    <path d="M12.3157479,0.342936439 C5.68798464,0.342936439 0.315747929,5.71591461 0.315747929,12.3429364 C0.315747929,18.9699583 5.68798464,24.3428541 12.3157479,24.3428541 C18.9435112,24.3428541 24.3157479,18.9698759 24.3157479,12.3428541 C24.3157479,5.71583222 18.9434288,0.342936439 12.3157479,0.342936439 Z M20.1898932,6.15090019 C21.4798561,7.78893397 22.269668,9.83484911 22.3318677,12.0615963 C19.6394058,11.5898676 17.3174231,11.5756153 15.3111344,11.8936161 C15.0568986,11.3100928 14.7951658,10.7431287 14.5266775,10.1941241 C16.6784556,9.30915915 18.6082098,8.01837239 20.1898932,6.15090019 Z M18.8091435,4.71693067 C17.3961818,6.43215791 15.6223798,7.61263299 13.6154321,8.4159558 C12.3306594,6.03548072 11.0092259,4.05168283 9.95323248,2.60346095 C10.7114914,2.41818016 11.5012209,2.31923741 12.3150065,2.31923741 C14.7921999,2.31841358 17.0586561,3.22364494 18.8091435,4.71693067 Z M8.00700153,3.29416533 C9.02773475,4.656873 10.3859937,6.63086724 11.714265,9.05113361 C8.89880436,9.82438639 5.74952522,10.0328994 2.56202007,10.0418792 C3.26549391,7.0599212 5.30094634,4.5879179 8.00700153,3.29416533 Z M2.29270797,12.3420302 L2.30094634,12.0180154 L2.35490762,12.0180154 C5.92640288,12.0180154 9.47235922,11.7840459 12.651626,10.8472616 C12.8886437,11.3295354 13.1218718,11.8244962 13.3499097,12.3337919 C9.16721024,13.5600722 6.55943872,16.3125094 4.77220818,18.9314851 C3.23023372,17.1698759 2.29270797,14.8636285 2.29270797,12.3420302 Z M6.23319953,20.301113 C7.92519459,17.7526577 10.2831789,15.2311418 14.1201966,14.1721002 C15.0164482,16.4686264 15.7476853,18.9750661 16.1347236,21.6075527 C14.9572144,22.0965819 13.6679929,22.3665531 12.3164894,22.3665531 C10.0296845,22.3665531 7.92074587,21.5963485 6.23319953,20.301113 Z M17.9782222,20.6086511 C17.5679517,18.2033786 16.8959484,15.9091591 16.086694,13.7821785 C17.8402296,13.5594132 19.8561571,13.6134568 22.1931336,14.0431699 C21.725936,16.759523 20.1644367,19.1063856 17.9782222,20.6086511 Z"></path>
                </g>
            </g>
        </g>
    </g>
</svg>