<?xml version="1.0" encoding="UTF-8"?>
<svg width="23px" height="22px" viewBox="0 0 23 22" version="1.1" xmlns="http://www.w3.org/2000/svg" xmlns:xlink="http://www.w3.org/1999/xlink">
    <!-- Generator: Sketch 48.2 (47327) - http://www.bohemiancoding.com/sketch -->
    <title>github</title>
    <desc>Created with Sketch.</desc>
    <defs></defs>
    <g id="rylan.io" stroke="none" stroke-width="1" fill="none" fill-rule="evenodd" transform="translate(-699.000000, -228.000000)" opacity="0.75">
        <g id="me" transform="translate(535.281284, 203.000000)" fill="#000000" fill-rule="nonzero">
            <g id="social" transform="translate(115.011753, 23.306956)">
                <g id="github" transform="translate(48.706963, 1.170445)">
                    <path d="M21.0395857,6.29730427 C20.0559352,4.61193489 18.7216761,3.2776256 17.0364572,2.29407541 C15.3509875,1.31047506 13.510957,0.8188003 11.5150615,0.8188003 C9.51941681,0.8188003 7.67878436,1.31062556 5.99366581,2.29407541 C4.30829643,3.27757543 2.97408747,4.61193489 1.99043696,6.29730427 C1.00693694,7.98262348 0.515161843,9.8230051 0.515161843,11.818399 C0.515161843,14.2153197 1.21447275,16.3706922 2.61344572,18.2850684 C4.01226819,20.199595 5.81933974,21.5243728 8.03450987,22.2595522 C8.29236195,22.3074104 8.48324273,22.2737492 8.60735286,22.1594214 C8.73151315,22.0449431 8.79351805,21.9015693 8.79351805,21.729902 C8.79351805,21.7012573 8.79105992,21.4435557 8.78629418,20.9564962 C8.78137793,20.4694367 8.7790703,20.0445326 8.7790703,19.6819845 L8.44963166,19.7389729 C8.23958756,19.77745 7.97461193,19.7937539 7.65470479,19.7891386 C7.33494814,19.7846739 7.0030012,19.7511632 6.65931548,19.6888573 C6.31547926,19.6271032 5.99567244,19.4838799 5.6996442,19.2594884 C5.40376646,19.0350969 5.19372236,18.7413763 5.06956207,18.378778 L4.92633878,18.0491889 C4.83087331,17.8297638 4.68057665,17.5860083 4.47524813,17.3188254 C4.26991961,17.0513916 4.06228347,16.8700925 3.85223937,16.7746271 L3.75195798,16.7028398 C3.68513717,16.6551322 3.62313227,16.597592 3.56579279,16.5308214 C3.50850348,16.4640507 3.46561174,16.3972299 3.43696708,16.3303088 C3.40827226,16.2633375 3.43205084,16.208406 3.50855364,16.1653136 C3.58505645,16.1222211 3.72331333,16.101302 3.92392626,16.101302 L4.2102725,16.1440934 C4.40125361,16.1823699 4.63748424,16.2966977 4.9192654,16.4877792 C5.20089606,16.6787101 5.43241112,16.9269303 5.61386072,17.2323396 C5.83358682,17.6239336 6.09831161,17.9223197 6.4087876,18.1276482 C6.71901275,18.3329767 7.03179636,18.4354654 7.34683743,18.4354654 C7.66187849,18.4354654 7.93397766,18.4115865 8.16323525,18.3640795 C8.39224201,18.3163217 8.60710203,18.2445344 8.80771496,18.1491191 C8.89364893,17.5091042 9.12762211,17.0174294 9.50943382,16.6737437 C8.9652355,16.6165547 8.47596869,16.5304201 8.04138258,16.4158916 C7.6070473,16.3012126 7.15821411,16.1150976 6.69518401,15.8570449 C6.23190307,15.5993433 5.84758307,15.2793358 5.54212367,14.8975742 C5.2366141,14.515612 4.98588555,14.0141549 4.7902892,13.3936545 C4.59459251,12.7729032 4.49671908,12.0568369 4.49671908,11.245255 C4.49671908,10.0896864 4.87396571,9.10633684 5.62830847,8.2946546 C5.27494075,7.42588371 5.30830099,6.45196535 5.72848952,5.37299986 C6.0054046,5.28696555 6.41606163,5.35152891 6.96025996,5.56628859 C7.50455862,5.78114861 7.90307554,5.96520683 8.15621204,6.11781112 C8.40934854,6.27036524 8.61216877,6.39964245 8.76497372,6.50448892 C9.65315877,6.25631883 10.5697376,6.1322087 11.5149612,6.1322087 C12.4601847,6.1322087 13.3769643,6.25631883 14.2651995,6.50448892 L14.809448,6.16090352 C15.1816278,5.93164593 15.6211302,5.72155166 16.1269015,5.53057056 C16.6329739,5.33968978 17.0199527,5.28711605 17.2874366,5.37315036 C17.716956,6.45216601 17.7552324,7.4260342 17.4017644,8.2948051 C18.156057,9.10648734 18.5334541,10.0900877 18.5334541,11.2454055 C18.5334541,12.0569874 18.4352295,12.7753111 18.2398338,13.4008282 C18.0441873,14.0264456 17.7913016,14.527401 17.4810765,14.904748 C17.1705002,15.2820447 16.783722,15.5995439 16.3206919,15.8571954 C15.8575615,16.1150474 15.4085778,16.3011625 14.9742425,16.4158414 C14.5397066,16.5305204 14.0504398,16.6167052 13.5062415,16.6739945 C14.0025816,17.1035139 14.2508019,17.7815043 14.2508019,18.7076649 L14.2508019,21.7295007 C14.2508019,21.9011679 14.3104992,22.0444916 14.429994,22.15902 C14.5493384,22.2733478 14.7378112,22.3070091 14.9956633,22.2591007 C17.2111344,21.5240216 19.018206,20.1991937 20.4169783,18.2846671 C21.8156001,16.3702909 22.5151618,14.2149184 22.5151618,11.8179976 C22.5146602,9.82285461 22.0226343,7.98262348 21.0395857,6.29730427 Z"></path>
                </g>
            </g>
        </g>
    </g>
</svg>