<?xml version="1.0" encoding="UTF-8"?>
<svg width="21px" height="21px" viewBox="0 0 21 21" version="1.1" xmlns="http://www.w3.org/2000/svg" xmlns:xlink="http://www.w3.org/1999/xlink">
    <!-- Generator: Sketch 48.2 (47327) - http://www.bohemiancoding.com/sketch -->
    <title>linkedin</title>
    <desc>Created with Sketch.</desc>
    <defs></defs>
    <g id="rylan.io" stroke="none" stroke-width="1" fill="none" fill-rule="evenodd" transform="translate(-837.000000, -228.000000)" opacity="0.75">
        <g id="me" transform="translate(535.281284, 203.000000)" fill="#000000" fill-rule="nonzero">
            <g id="social" transform="translate(115.011753, 23.306956)">
                <g id="linkedin" transform="translate(185.710810, 1.439645)">
                    <path d="M20.0656433,0.25339872 L2.89270132,0.25339872 C1.84527754,0.25339872 0.996152971,1.10252329 0.996152971,2.14994707 L0.996152971,19.3228342 C0.996152971,20.3703129 1.84527754,21.2194374 2.89270132,21.2194374 L20.0655885,21.2194374 C21.1130671,21.2194374 21.9621917,20.3703129 21.9621917,19.3228342 L21.9621917,2.14994707 C21.9621917,1.10252329 21.1130671,0.25339872 20.0656433,0.25339872 Z M7.48393449,18.3568596 C7.48393449,18.6616905 7.23684258,18.9087824 6.93201175,18.9087824 L4.58260794,18.9087824 C4.27777711,18.9087824 4.03068521,18.6616905 4.03068521,18.3568596 L4.03068521,8.50825506 C4.03068521,8.20342422 4.27777711,7.95633232 4.58260794,7.95633232 L6.93201175,7.95633232 C7.23684258,7.95633232 7.48393449,8.20342422 7.48393449,8.50825506 L7.48393449,18.3568596 Z M5.75730985,7.02795393 C4.52464947,7.02795393 3.52535977,6.02866423 3.52535977,4.79600385 C3.52535977,3.56334348 4.52464947,2.56405377 5.75730985,2.56405377 C6.98997022,2.56405377 7.98925993,3.56334348 7.98925993,4.79600385 C7.98925993,6.02866423 6.99002511,7.02795393 5.75730985,7.02795393 Z M19.7618553,18.4013164 C19.7618553,18.6815588 19.5346318,18.9087824 19.2543894,18.9087824 L16.7333055,18.9087824 C16.4530631,18.9087824 16.2258396,18.6815588 16.2258396,18.4013164 L16.2258396,13.7817626 C16.2258396,13.0926276 16.4279807,10.7619396 14.4249008,10.7619396 C12.8711636,10.7619396 12.5560144,12.3572246 12.4927321,13.0731435 L12.4927321,18.4013164 C12.4927321,18.6815588 12.2655634,18.9087824 11.9852662,18.9087824 L9.54694879,18.9087824 C9.2667064,18.9087824 9.03948283,18.6815588 9.03948283,18.4013164 L9.03948283,8.46379827 C9.03948283,8.18355588 9.2667064,7.95633232 9.54694879,7.95633232 L11.9852662,7.95633232 C12.2655086,7.95633232 12.4927321,8.18355588 12.4927321,8.46379827 L12.4927321,9.32302167 C13.0688591,8.45841955 13.9250638,7.79107383 15.7480664,7.79107383 C19.7849619,7.79107383 19.7618553,11.5625459 19.7618553,13.6347808 L19.7618553,18.4013164 Z"></path>
                </g>
            </g>
        </g>
    </g>
</svg>