<?xml version="1.0" encoding="UTF-8"?>
<svg width="22px" height="22px" viewBox="0 0 22 22" version="1.1" xmlns="http://www.w3.org/2000/svg" xmlns:xlink="http://www.w3.org/1999/xlink">
    <!-- Generator: Sketch 48.2 (47327) - http://www.bohemiancoding.com/sketch -->
    <title>oi</title>
    <desc>Created with Sketch.</desc>
    <defs></defs>
    <g id="rylan.io" stroke="none" stroke-width="1" fill="none" fill-rule="evenodd" transform="translate(-748.000000, -229.000000)" opacity="0.75">
        <g id="me" transform="translate(535.281284, 203.000000)">
            <g id="social" transform="translate(115.011753, 23.306956)">
                <g id="openimage" transform="translate(95.000000, 0.000000)">
                    <g id="oi" transform="translate(1.710810, 2.439645)">
                        <path d="M20.0757488,17.2696723 L22.996153,17.2696723 L22.996153,22.2533987 L0.996152971,22.2533987 L0.996152971,0.25339872 L22.996153,0.25339872 L22.996153,5.23712514 L20.0757488,5.23712514 L20.0757488,3.30210325 L4.01465687,3.30210325 L4.01465687,19.2046942 L20.0757488,19.2046942 L20.0757488,17.2696723 Z" id="Shape-Copy" fill="#000000" fill-rule="nonzero"></path>
                        <path d="M19.996153,14.8502577 C19.996153,15.0729153 19.7814926,15.2533987 19.5166717,15.2533987 L17.4756342,15.2533987 C17.2108133,15.2533987 16.996153,15.0729153 16.996153,14.8502577 L16.996153,7.65653974 C16.996153,7.4338821 17.2108133,7.25339872 17.4756342,7.25339872 L19.5166717,7.25339872 C19.7814926,7.25339872 19.996153,7.4338821 19.996153,7.65653974 L19.996153,14.8502577 Z" id="Path" fill="#000000"></path>
                        <path d="M10.8738289,13.9545665 C12.3926507,13.9545665 13.6238289,12.7233675 13.6238289,11.2045665 C13.6238289,9.68580426 12.3925911,8.45456651 10.8738289,8.45456651 C9.35506662,8.45456651 8.12382886,9.68580426 8.12382886,11.2045665 C8.12382886,12.7233288 9.35506662,13.9545665 10.8738289,13.9545665 Z" id="Path" stroke="#000000" stroke-width="2.5"></path>
                    </g>
                </g>
            </g>
        </g>
    </g>
</svg>