<?xml version="1.0" encoding="UTF-8"?>
<svg width="24px" height="19px" viewBox="0 0 24 19" version="1.1" xmlns="http://www.w3.org/2000/svg" xmlns:xlink="http://www.w3.org/1999/xlink">
    <!-- Generator: Sketch 48.2 (47327) - http://www.bohemiancoding.com/sketch -->
    <title>twitter</title>
    <desc>Created with Sketch.</desc>
    <defs></defs>
    <g id="rylan.io" stroke="none" stroke-width="1" fill="none" fill-rule="evenodd" transform="translate(-650.000000, -231.000000)" opacity="0.753226902">
        <g id="me" transform="translate(535.281284, 203.000000)" fill="#000000" fill-rule="nonzero">
            <g id="social" transform="translate(115.011753, 23.306956)">
                <path d="M22.8754539,7.14760934 C22.0414629,7.51741619 21.1454094,7.76739217 20.2048234,7.87978619 C21.1647984,7.30431466 21.9021102,6.39307763 22.2493409,5.30720712 C21.3507642,5.84013802 20.3557297,6.22707622 19.296508,6.43557399 C18.4483515,5.53186235 17.239817,4.96723625 15.9023769,4.96723625 C13.3344016,4.96723625 11.2524784,7.0490709 11.2524784,9.61700194 C11.2524784,9.98145248 11.2936025,10.3363413 11.3728847,10.6767106 C7.50837208,10.4827325 4.08205886,8.63157334 1.78867202,5.8182701 C1.38840943,6.50502897 1.1590619,7.30378346 1.1590619,8.15596826 C1.1590619,9.76923629 1.9799499,11.1925102 3.22766071,12.0263684 C2.46542654,12.0021986 1.74843328,11.7930369 1.12156771,11.4447438 C1.12112504,11.4641327 1.12112504,11.4836102 1.12112504,11.5032205 C1.12112504,13.7561473 2.72399032,15.6354603 4.85111016,16.0627257 C4.46098473,16.1689224 4.05014233,16.2259383 3.62606408,16.2259383 C3.32642048,16.2259383 3.03514335,16.1967221 2.75117028,16.1423621 C3.34293208,17.9896258 5.06013913,19.3341928 7.09491792,19.3715985 C5.50351781,20.6188666 3.49853073,21.3621545 1.31992832,21.3621545 C0.944588085,21.3621545 0.574471357,21.3401981 0.210684817,21.2970377 C2.26848247,22.6165054 4.71268712,23.3863092 7.33860798,23.3863092 C15.8914872,23.3863092 20.5686099,16.3008381 20.5686099,10.1561302 C20.5686099,9.95453812 20.5640061,9.75400843 20.5551085,9.55454114 C21.4637337,8.89899054 22.2520855,8.08005028 22.8754539,7.14760934 Z" id="twitter"></path>
            </g>
        </g>
    </g>
</svg>